<svg width="68" height="68" viewBox="0 0 68 68" fill="none" xmlns="http://www.w3.org/2000/svg">
<rect x="0.916992" y="0.530273" width="66.8287" height="66.8287" rx="33.4144" fill="white"/>
<path d="M26.7143 34.4167L27.0388 33.4708L26.3095 33.2205L25.882 33.8623L26.7143 34.4167ZM41.2857 39.4167L40.9612 40.3625L41.8053 40.6522L42.1887 39.8463L41.2857 39.4167ZM51 19L41.4901 25.5494L51.917 30.5105L51 19ZM17.8323 49.5544L27.5465 34.9711L25.882 33.8623L16.1677 48.4456L17.8323 49.5544ZM26.3897 35.3625L40.9612 40.3625L41.6103 38.4708L27.0388 33.4708L26.3897 35.3625ZM42.1887 39.8463L48.0362 27.5566L46.2302 26.6973L40.3827 38.987L42.1887 39.8463Z" fill="#02C754"/>
</svg>
