<svg width="68" height="68" viewBox="0 0 68 68" fill="none" xmlns="http://www.w3.org/2000/svg">
<rect x="0.790039" y="0.912109" width="66.8287" height="66.8287" rx="33.4144" fill="white"/>
<path d="M23.31 45.1821C22.59 45.1821 21.91 45.0421 21.27 44.7621C20.63 44.4821 20.0734 44.0854 19.6 43.5721C19.1334 43.0588 18.7967 42.4521 18.59 41.7521L20.92 41.1221C21.0867 41.6954 21.39 42.1388 21.83 42.4521C22.2767 42.7588 22.7667 42.9088 23.3 42.9021C23.7734 42.9021 24.1967 42.7921 24.57 42.5721C24.9434 42.3521 25.2367 42.0554 25.45 41.6821C25.6634 41.3021 25.77 40.8788 25.77 40.4121C25.77 39.6988 25.54 39.1021 25.08 38.6221C24.62 38.1421 24.0267 37.9021 23.3 37.9021C23.08 37.9021 22.8634 37.9321 22.65 37.9921C22.4434 38.0521 22.2434 38.1354 22.05 38.2421L20.95 36.3421L25.79 32.2021L26 32.7821H19.15V30.5121H27.98V32.7921L24.09 36.5321L24.07 35.8221C24.9434 35.8821 25.6867 36.1254 26.3 36.5521C26.92 36.9788 27.3934 37.5288 27.72 38.2021C28.0534 38.8754 28.22 39.6121 28.22 40.4121C28.22 41.3188 27.9967 42.1321 27.55 42.8521C27.11 43.5721 26.5167 44.1421 25.77 44.5621C25.03 44.9754 24.21 45.1821 23.31 45.1821ZM36.3911 44.9121V42.5321H30.0111V40.2821L34.6211 30.5121H37.3711L32.7611 40.2821H36.3911V36.5321H38.8311V40.2821H40.1811V42.5321H38.8311V44.9121H36.3911Z" fill="black"/>
<path d="M49.745 34.9121V28.5321L48.39 29.3471V28.5221L49.745 27.7121H50.49V34.9121H49.745ZM53.6415 34.9121V28.5321L52.2865 29.3471V28.5221L53.6415 27.7121H54.3865V34.9121H53.6415Z" fill="#02C754"/>
<g clip-path="url(#clip0_348_448)">
<path d="M41.6649 35.4541H46.9149C46.968 35.4539 47.0201 35.4393 47.0656 35.4117C47.111 35.3841 47.1481 35.3447 47.1728 35.2976C47.1975 35.2505 47.2088 35.1976 47.2057 35.1446C47.2026 35.0915 47.185 35.0403 47.1549 34.9965L44.5299 31.2048C44.4211 31.0476 44.1592 31.0476 44.0501 31.2048L41.4251 34.9965C41.3947 35.0402 41.3769 35.0914 41.3736 35.1446C41.3703 35.1977 41.3816 35.2508 41.4063 35.298C41.431 35.3451 41.4682 35.3846 41.5138 35.4122C41.5594 35.4397 41.6116 35.4542 41.6649 35.4541Z" fill="#02C754"/>
</g>
<defs>
<clipPath id="clip0_348_448">
<rect width="7" height="7" fill="white" transform="translate(40.79 29.9121)"/>
</clipPath>
</defs>
</svg>
