<svg width="68" height="67" viewBox="0 0 68 67" fill="none" xmlns="http://www.w3.org/2000/svg">
<rect x="0.386719" y="0.170898" width="66.8287" height="66.8287" rx="33.4144" fill="white"/>
<g clip-path="url(#clip0_348_442)">
<path d="M14.3867 36.1709C14.3867 30.3361 16.7046 24.7403 20.8304 20.6145C24.9562 16.4887 30.552 14.1709 36.3867 14.1709C42.2215 14.1709 47.8173 16.4887 51.9431 20.6145C56.0689 24.7403 58.3867 30.3361 58.3867 36.1709C58.3867 42.0057 56.0689 47.6014 51.9431 51.7272C47.8173 55.8531 42.2215 58.1709 36.3867 58.1709C30.552 58.1709 24.9562 55.8531 20.8304 51.7272C16.7046 47.6014 14.3867 42.0057 14.3867 36.1709Z" fill="#1A4A7F"/>
<path fill-rule="evenodd" clip-rule="evenodd" d="M32.7899 57.8736C28.3804 57.1493 24.2971 55.0962 21.0859 51.9886L40.9079 33.7946L29.5779 36.5446C28.828 36.729 28.0488 36.7621 27.2859 36.6423C26.5229 36.5224 25.7915 36.2519 25.1342 35.8464C24.4769 35.441 23.9068 34.9087 23.4573 34.2807C23.0078 33.6527 22.6878 32.9416 22.5159 32.1886C22.1676 30.6565 22.4346 29.0489 23.2595 27.7117C24.0845 26.3745 25.4014 25.4146 26.9269 25.0386L50.5109 19.3076C53.3832 21.7127 55.5938 24.8115 56.933 28.3102C58.2723 31.8089 58.696 35.5917 58.1639 39.3C57.6317 43.0083 56.1615 46.5192 53.8924 49.5002C51.6233 52.4811 48.6306 54.8332 45.1979 56.3336C45.1319 55.5526 45.2089 54.7386 45.4839 53.9466L49.2239 42.7926L32.7899 57.8736Z" fill="url(#paint0_linear_348_442)"/>
</g>
<defs>
<linearGradient id="paint0_linear_348_442" x1="68.3529" y1="16.9536" x2="-6.96406" y2="86.0666" gradientUnits="userSpaceOnUse">
<stop stop-color="#FFB800"/>
<stop offset="1" stop-color="#FFF11D"/>
</linearGradient>
<clipPath id="clip0_348_442">
<rect width="44" height="44" fill="white" transform="translate(14.3867 14.1709)"/>
</clipPath>
</defs>
</svg>
