<svg width="68" height="67" viewBox="0 0 68 67" fill="none" xmlns="http://www.w3.org/2000/svg">
<rect x="0.927734" y="0.0664062" width="66.8287" height="66.8287" rx="33.4144" fill="white"/>
<g clip-path="url(#clip0_348_453)">
<path d="M11.9463 21.6442C11.9463 15.8123 16.6736 11.085 22.5056 11.085H45.3486C51.1824 11.085 55.9097 15.8123 55.9097 21.6442V55.0667H22.5056C16.6736 55.0667 11.9463 50.3393 11.9463 44.5074V21.6442Z" fill="#74AA9C"/>
<path d="M32.1774 16.5362C28.5565 16.5362 25.3396 18.8642 24.2186 22.3023L23.8145 24.6632V32.4885C23.8145 32.8799 24.0156 33.2273 24.3521 33.4285L30.6522 37.0589V26.3055H30.654V25.7952L37.0309 22.1121C37.6475 21.7551 38.3191 21.5112 39.0146 21.3838L38.4007 19.3013C36.8169 17.5311 34.5511 16.5252 32.1774 16.5362ZM32.1774 18.685L32.1664 18.696C33.6239 18.696 35.0248 19.1989 36.1458 20.1297C36.1001 20.1517 36.0105 20.2084 35.9446 20.2413L29.3519 24.0378C29.0155 24.228 28.8143 24.5864 28.8143 24.9778V33.8893L25.9779 32.2544V24.8882C25.976 21.4666 28.7503 18.6905 32.1774 18.685Z" fill="white"/>
<path d="M47.3679 23.2855C45.5574 20.1497 41.9329 18.5279 38.3949 19.2761L36.1482 20.1065L29.3714 24.0192C29.0324 24.2148 28.8321 24.5628 28.8261 24.9548L28.8322 32.226L38.1449 26.8493L38.1458 26.8509L38.5877 26.5958L44.9658 30.2767C45.5832 30.6322 46.1303 31.0919 46.5884 31.6305L48.0849 30.0576C48.8261 27.8009 48.5643 25.3357 47.3679 23.2855ZM45.507 24.3599L45.492 24.3559C46.2208 25.6181 46.4857 27.0828 46.24 28.519C46.1982 28.4904 46.1043 28.4411 46.0428 28.4006L39.4586 24.5894C39.1257 24.3931 38.7147 24.3981 38.3758 24.5938L30.6581 29.0496L30.6558 25.7757L37.0352 22.0926C39.9974 20.3802 43.7887 21.3947 45.507 24.3599Z" fill="white"/>
<path d="M49.1183 39.8157C50.9287 36.6799 50.521 32.73 48.1041 30.0402L46.2615 28.5097L39.4846 24.5971C39.1457 24.4014 38.7442 24.4019 38.4018 24.5927L32.1077 28.2335L41.4204 33.6102L41.4195 33.6118L41.8614 33.8669L41.8626 41.231C41.8635 41.9435 41.7389 42.6471 41.5016 43.3131L43.612 43.8227C45.9369 43.3363 47.9409 41.8769 49.1183 39.8157ZM47.2574 38.7413L47.2533 38.7263C46.5246 39.9886 45.3886 40.9503 44.022 41.4557C44.0258 41.4051 44.0215 41.2992 44.026 41.2257L44.0344 33.618C44.038 33.2315 43.8281 32.8781 43.4892 32.6824L35.7716 28.2266L38.6057 26.5877L44.985 30.2708C47.9491 31.98 48.9661 35.7706 47.2574 38.7413Z" fill="white"/>
<path d="M35.6781 49.5966C39.299 49.5966 42.5158 47.2686 43.6369 43.8305L44.041 41.4696V33.6443C44.041 33.253 43.8399 32.9055 43.5034 32.7043L37.2033 29.074V39.8273H37.2014V40.3376L30.8246 44.0207C30.208 44.3777 29.5364 44.6216 28.8409 44.7491L29.4548 46.8315C31.0385 48.6017 33.3044 49.6076 35.6781 49.5966ZM35.6781 47.4478L35.6891 47.4368C34.2316 47.4368 32.8307 46.9339 31.7097 46.0031C31.7554 45.9811 31.845 45.9244 31.9108 45.8915L38.5035 42.095C38.84 41.9048 39.0412 41.5464 39.0412 41.155V32.2435L41.8776 33.8784V41.2446C41.8794 44.6662 39.1052 47.4423 35.6781 47.4478Z" fill="white"/>
<path d="M20.4876 42.8473C22.298 45.9831 25.9225 47.6049 29.4605 46.8567L31.7072 46.0263L38.4841 42.1137C38.823 41.918 39.0234 41.57 39.0293 41.178L39.0233 33.9068L29.7106 39.2835L29.7097 39.2819L29.2678 39.5371L22.8897 35.8561C22.2722 35.5006 21.7252 35.0409 21.2671 34.5023L19.7706 36.0752C19.0293 38.3319 19.2912 40.7971 20.4876 42.8473ZM22.3485 41.7729L22.3635 41.7769C21.6347 40.5147 21.3698 39.05 21.6154 37.6138C21.6573 37.6424 21.7512 37.6917 21.8126 37.7322L28.3968 41.5434C28.7298 41.7397 29.1408 41.7347 29.4797 41.539L37.1973 37.0833L37.1997 40.3571L30.8203 44.0402C27.858 45.7526 24.0668 44.7381 22.3485 41.7729Z" fill="white"/>
<path d="M18.7372 26.3171C16.9267 29.4529 17.3345 33.4028 19.7514 36.0926L21.5939 37.6231L28.3708 41.5358C28.7097 41.7314 29.1112 41.731 29.4537 41.5401L35.7477 37.8993L26.435 32.5226L26.4359 32.521L25.9941 32.2659L25.9928 24.9018C25.992 24.1893 26.1166 23.4857 26.3539 22.8197L24.2435 22.3101C21.9186 22.7965 19.9146 24.2559 18.7372 26.3171ZM20.5981 27.3915L20.6021 27.4065C21.3309 26.1443 22.4668 25.1825 23.8335 24.6771C23.8296 24.7277 23.8339 24.8336 23.8295 24.9071L23.821 32.5148C23.8175 32.9013 24.0273 33.2547 24.3663 33.4504L32.0839 37.9062L29.2498 39.5451L22.8705 35.862C19.9064 34.1528 18.8893 30.3622 20.5981 27.3915Z" fill="white"/>
</g>
<defs>
<clipPath id="clip0_348_453">
<rect x="11.9277" y="11.0664" width="44" height="44" rx="22" fill="white"/>
</clipPath>
</defs>
</svg>
