<svg width="68" height="68" viewBox="0 0 68 68" fill="none" xmlns="http://www.w3.org/2000/svg">
<rect x="0.40332" y="0.833984" width="66.8287" height="66.8287" rx="33.4144" fill="white"/>
<g clip-path="url(#clip0_348_436)">
<path fill-rule="evenodd" clip-rule="evenodd" d="M25.1693 43.1835L22.8289 45.6253L14.4033 36.8346L22.8289 28.0439L25.1693 30.4858L19.0842 36.8346L25.1693 43.1835Z" fill="#DA0E16"/>
<path fill-rule="evenodd" clip-rule="evenodd" d="M47.6377 30.4858L49.9781 28.0439L58.4037 36.8346L49.9781 45.6253L47.6377 43.1835L53.7228 36.8346L47.6377 30.4858Z" fill="#DA0E16"/>
<path fill-rule="evenodd" clip-rule="evenodd" d="M47.637 22.6497C47.637 20.7441 46.8932 19.0206 45.694 17.7782L43.7341 23.6225L38.4335 21.6769L40.3939 15.8311C37.099 16.192 34.5306 19.1066 34.5306 22.6497C34.5306 24.5558 35.2744 26.2788 36.4737 27.5212L31.0322 44.2006C27.7373 44.5615 25.1689 47.4756 25.1689 51.0192C25.1689 52.9249 25.9127 54.6483 27.112 55.8908L29.0718 50.0464L34.3724 51.9921L32.4121 57.8374C35.7069 57.477 38.2753 54.5624 38.2753 51.0192C38.2753 49.1136 37.5315 47.3901 36.3323 46.1477L41.7738 29.4684C45.0686 29.1074 47.637 26.1933 47.637 22.6497Z" fill="#393837"/>
</g>
<defs>
<clipPath id="clip0_348_436">
<rect width="44" height="42" fill="white" transform="translate(14.4033 15.834)"/>
</clipPath>
</defs>
</svg>
