<svg width="32" height="32" viewBox="0 0 32 32" fill="none" xmlns="http://www.w3.org/2000/svg">
<path d="M24.7752 5.72461C20.6895 5.72461 17.4636 9.03718 17.4636 13.1228C17.4636 17.2084 20.8191 20.521 24.9047 20.521C24.9456 20.521 25.0072 20.5155 25.0481 20.5148C23.4327 21.8012 21.4037 22.5763 19.1829 22.5763C18.1611 22.5763 17.3389 23.4048 17.3389 24.4259C17.3389 25.4469 17.9963 26.2754 19.018 26.2754C26.2701 26.2747 32.0002 20.3749 32.0002 13.1228C32.0002 13.1214 32.0002 13.12 32.0002 13.118C32.0002 9.0344 28.8594 5.72461 24.7752 5.72461Z" fill="#004FDF"/>
<path d="M7.44669 5.72461C3.36106 5.72461 0.129538 9.03718 0.129538 13.1228C0.129538 17.2084 3.48228 20.521 7.56861 20.521C7.60948 20.521 7.66975 20.5155 7.71062 20.5148C6.0952 21.8012 4.06555 22.5763 1.8447 22.5763C0.822946 22.5763 0 23.4048 0 24.4259C0 25.4469 0.667778 26.2754 1.68953 26.2754C8.94157 26.2747 14.6821 20.3749 14.6821 13.1228C14.6821 13.1214 14.6821 13.12 14.6821 13.118C14.6821 9.0344 11.5309 5.72461 7.44669 5.72461Z" fill="#004FDF"/>
</svg>
