<svg width="1841" height="569" viewBox="0 0 1841 569" fill="none" xmlns="http://www.w3.org/2000/svg">
<path fill-rule="evenodd" clip-rule="evenodd" d="M1840 30C1840 13.4315 1826.57 0 1810 0H1466C1449.43 0 1436 13.4315 1436 30V32C1436 48.5685 1422.57 62 1406 62H30C13.4315 62 0 75.4315 0 92V538C0 554.569 13.4315 568 30 568H1436H1546H1810C1826.57 568 1840 554.569 1840 538V30Z" fill="#004FDF"/>
<g opacity="0.07">
<path d="M1689.47 276.389C1676.13 181.245 1542.22 120.842 1441.62 122.057C1325.69 123.469 1281.99 206.381 1193.77 181.163C1113.26 158.177 1108.51 77.3333 1049.32 64.5927C994.927 52.8864 908.851 101.764 767 343.704" stroke="white" stroke-miterlimit="10"/>
<path d="M773.762 354.425C913.889 115.982 1000.01 65.2161 1055.18 74.7551C1096.07 81.8807 1111.83 121.137 1143.82 151.823C1159.79 167.619 1179.42 179.201 1200.97 185.53C1271.55 206.315 1313.62 160.311 1389.05 140.576C1408.27 135.488 1428.03 132.677 1447.91 132.203C1548.92 129.461 1681.33 181.819 1696.74 273.499" stroke="white" stroke-miterlimit="10"/>
<path d="M780.543 365.114C918.947 130.184 1005.07 77.547 1060.9 84.9352C1101.93 90.3697 1118.62 127.754 1150.68 156.88C1167.03 172.108 1186.64 183.401 1208.02 189.898C1277.58 211.028 1319.63 169.588 1395.32 150.773C1414.55 145.951 1434.23 143.134 1454.05 142.367C1555.49 138.41 1686.39 182.394 1703.87 270.61" stroke="white" stroke-miterlimit="10"/>
<path d="M787.305 375.767C923.952 144.4 1010.13 89.9076 1066.67 95.0958C1107.89 98.872 1125.45 134.352 1157.62 161.935C1174.32 176.585 1193.89 187.595 1215.07 194.263C1283.68 215.738 1325.57 178.846 1401.6 160.966C1420.86 156.367 1440.49 153.526 1460.25 152.478C1562.1 147.126 1691.49 182.918 1711.04 267.669" stroke="white" stroke-miterlimit="10"/>
<path d="M794.066 386.505C928.991 158.602 1015.15 102.287 1072.47 105.275C1113.81 107.41 1132.33 140.985 1164.6 166.975C1181.66 181.056 1201.21 191.795 1222.25 198.63C1289.9 220.45 1331.68 188.122 1408.09 171.162C1427.32 166.831 1446.85 163.988 1466.52 162.657C1568.8 155.909 1696.68 183.525 1718.31 264.812" stroke="white" stroke-miterlimit="10"/>
<path d="M800.762 397.21C934.012 172.805 1020.22 113.075 1078.26 115.439C1119.69 117.081 1139.2 147.504 1171.54 172.033C1188.95 185.519 1208.49 195.986 1229.37 202.998C1296.07 225.163 1337.7 197.399 1414.37 181.375C1433.6 177.269 1453.06 174.407 1472.66 172.805C1575.36 164.595 1701.73 184.084 1725.44 261.923" stroke="white" stroke-miterlimit="10"/>
<path d="M807.607 407.915C939.052 187.023 1025.19 127.161 1084.04 125.52C1125.6 124.567 1146.12 154.12 1178.5 177.106C1196.24 189.993 1215.78 200.194 1236.49 207.381C1302.25 229.891 1343.77 206.675 1420.72 191.587C1439.94 187.726 1459.35 184.855 1478.86 182.984C1581.99 173.379 1706.86 184.626 1732.63 259.05" stroke="white" stroke-miterlimit="10"/>
<path d="M814.371 418.621C944.043 201.225 1030.2 139.509 1089.83 135.782C1131.49 133.122 1153.06 160.59 1185.46 182.147C1203.52 194.422 1223.06 204.353 1243.62 211.7C1308.4 234.571 1349.83 215.936 1427.08 201.734C1445.05 198.451 1464.24 195.298 1485.07 193.082C1588.64 182.032 1711.98 185.217 1739.82 256.145" stroke="white" stroke-miterlimit="10"/>
<path d="M821.135 429.325C949.116 215.444 1035.21 152.036 1095.61 145.912C1137.39 141.692 1160.02 167.075 1192.46 187.171C1210.83 198.828 1230.38 208.508 1250.79 216.051C1314.63 239.267 1355.92 225.163 1433.48 211.93C1451.54 208.843 1470.67 205.724 1491.34 203.228C1595.21 190.75 1717.1 185.792 1747.01 253.239" stroke="white" stroke-miterlimit="10"/>
<path d="M827.912 440.014C954.153 229.646 1040.21 164.531 1101.4 156.125C1143.28 150.362 1167.06 173.594 1199.36 192.245C1218.03 203.277 1237.59 212.712 1257.85 220.452C1320.75 244.012 1361.93 234.473 1439.78 222.094C1457.84 219.204 1476.99 216.084 1497.49 213.326C1601.9 199.338 1722.22 186.269 1754.19 250.267" stroke="white" stroke-miterlimit="10"/>
<path d="M834.676 450.719C959.177 243.848 1045.22 177.058 1107.15 166.287C1149.12 158.998 1173.99 180.046 1206.29 197.318C1225.25 207.7 1244.84 216.885 1264.94 224.819C1326.87 248.724 1367.94 243.733 1446.1 232.371C1464.24 229.711 1483.35 226.575 1503.67 223.571C1608.5 208.072 1727.29 186.925 1761.37 247.46" stroke="white" stroke-miterlimit="10"/>
<path d="M841.438 461.424C964.215 258.066 1050.26 189.585 1112.98 176.45C1155.06 167.65 1181.03 186.482 1213.27 202.375C1231.8 211.504 1250.77 220.714 1272.09 229.186C1333.07 253.42 1374.03 253.009 1452.49 242.567C1470.67 240.121 1489.75 236.968 1509.94 233.718C1615.2 216.708 1732.48 187.484 1768.61 244.57" stroke="white" stroke-miterlimit="10"/>
<path d="M848.201 472.128C969.255 272.333 1055.18 202.145 1118.76 186.629C1160.96 176.302 1188.07 192.885 1220.23 207.431C1239.2 216.018 1258.23 224.966 1279.22 233.553C1339.25 258.181 1380.07 262.269 1458.84 252.762C1477.08 250.546 1496.13 247.377 1516.11 243.864C1621.78 225.311 1737.57 188.041 1775.76 241.68" stroke="white" stroke-miterlimit="10"/>
<path d="M854.932 482.833C974.279 286.486 1060.29 214.721 1124.53 196.809C1166.85 185.004 1195.11 199.272 1227.19 212.505C1246.62 220.517 1265.68 229.219 1286.28 237.937C1345.37 262.86 1386.04 271.562 1465.19 262.991C1483.49 260.972 1502.5 257.787 1522.31 254.043C1628.41 233.915 1742.69 188.6 1782.95 238.791" stroke="white" stroke-miterlimit="10"/>
<path d="M861.742 493.522C979.317 300.689 1065.28 227.331 1130.33 206.973C1172.77 193.674 1202.17 205.61 1234.13 217.546C1254.02 224.967 1273.15 233.455 1293.47 242.289C1351.57 267.556 1392.16 280.806 1471.54 273.171C1490.68 271.131 1509.7 268.111 1528.53 264.125C1635.03 242.502 1747.86 189.192 1790.14 235.885" stroke="white" stroke-miterlimit="10"/>
<path d="M868.506 504.227C984.357 314.907 1070.4 239.891 1136.06 217.135C1178.63 202.359 1209.18 211.931 1241.11 222.603C1261.46 229.416 1280.62 237.691 1300.59 246.656C1357.76 272.268 1398.22 290.082 1477.86 283.367C1496.99 281.575 1515.97 278.553 1534.71 274.321C1641.64 250.99 1752.93 189.75 1797.35 232.93" stroke="white" stroke-miterlimit="10"/>
<path d="M875.268 514.932C989.379 329.109 1075.52 252.567 1141.9 227.299C1184.58 211.078 1216.29 218.22 1248.05 227.644C1268.86 233.834 1288.05 241.944 1307.7 251.024C1363.9 276.981 1404.26 299.343 1484.25 293.564C1503.35 291.999 1522.31 288.958 1540.94 284.468C1648.24 259.594 1758.05 190.325 1804.54 230.107" stroke="white" stroke-miterlimit="10"/>
<path d="M882.047 525.636C994.418 343.393 1080.51 265.192 1147.68 237.478C1190.53 219.779 1223.35 224.475 1254.99 232.7C1276.33 238.233 1295.5 246.18 1314.82 255.39C1370.07 281.66 1410.3 308.619 1490.6 303.775C1509.69 302.427 1528.61 299.366 1547.15 294.63C1654.84 268.131 1763.17 190.883 1811.73 227.217" stroke="white" stroke-miterlimit="10"/>
<path d="M888.809 536.341C999.374 357.529 1085.6 277.851 1153.47 247.707C1196.48 228.563 1230.39 230.779 1261.95 237.856C1283.7 242.781 1302.99 250.531 1321.94 259.856C1376.24 286.503 1416.36 317.993 1496.95 314.037C1516.02 312.906 1534.91 309.825 1553.35 304.842C1661.44 276.701 1768.38 191.556 1818.92 224.393" stroke="white" stroke-miterlimit="10"/>
<path d="M895.572 547.045C1004.48 371.747 1090.7 290.509 1159.25 257.82C1202.43 237.215 1237.43 236.919 1268.91 242.814C1291.12 246.984 1310.42 254.684 1329.07 264.157C1382.4 291.149 1422.4 327.187 1503.31 324.199C1522.35 323.294 1541.22 320.192 1559.56 314.956C1668.02 285.124 1773.42 192.015 1826.11 221.437" stroke="white" stroke-miterlimit="10"/>
<path d="M902.35 557.732C1009.52 385.947 1095.81 303.248 1164.98 267.982C1208.33 245.948 1244.39 243.108 1275.79 247.869C1298.46 251.301 1317.81 258.919 1336.11 268.474C1388.5 295.827 1428.39 336.43 1509.59 334.361C1528.62 333.664 1547.48 330.541 1565.71 325.068C1674.47 293.414 1778.47 192.589 1833.26 218.53" stroke="white" stroke-miterlimit="10"/>
<path d="M909.098 568.438C1080.2 295.319 1201.14 243.404 1282.81 252.927C1371.98 263.32 1406 346.085 1516.01 344.574C1645.06 342.785 1774.02 189.339 1840.48 215.641" stroke="white" stroke-miterlimit="10"/>
</g>
</svg>
