<svg width="62" height="62" viewBox="0 0 62 62" fill="none" xmlns="http://www.w3.org/2000/svg">
<rect width="62" height="62" rx="31" fill="white"/>
<path d="M24.6875 36.1914H18.6328C18.2984 36.1914 18.0273 36.4625 18.0273 36.7969V44.668C18.0273 45.0023 18.2984 45.2734 18.6328 45.2734H24.6875C25.0219 45.2734 25.293 45.0023 25.293 44.668V36.7969C25.293 36.4625 25.0219 36.1914 24.6875 36.1914ZM24.082 44.0625H19.2383V37.4023H24.082V44.0625Z" fill="#004FDF"/>
<path d="M33.7695 31.9531H27.7148C27.3804 31.9531 27.1094 32.2243 27.1094 32.5586V44.668C27.1094 45.0023 27.3804 45.2734 27.7148 45.2734H33.7695C34.1039 45.2734 34.375 45.0023 34.375 44.668V32.5586C34.375 32.2243 34.1039 31.9531 33.7695 31.9531ZM33.1641 44.0625H28.3203V33.1641H33.1641V44.0625Z" fill="#004FDF"/>
<path d="M42.8516 25.293H36.7969C36.4625 25.293 36.1914 25.564 36.1914 25.8984V44.668C36.1914 45.0023 36.4625 45.2734 36.7969 45.2734H42.8516C43.1859 45.2734 43.457 45.0023 43.457 44.668V25.8984C43.457 25.564 43.1859 25.293 42.8516 25.293ZM42.2461 44.0625H37.4023V26.5039H42.2461V44.0625Z" fill="#004FDF"/>
<path d="M18.4155 30.2892L19.8073 31.3443L19.3016 33.016C19.2269 33.2627 19.3166 33.5296 19.5252 33.6811C19.7337 33.8327 20.0153 33.8355 20.2269 33.6883L21.6605 32.6908L23.094 33.6884C23.3038 33.8343 23.5853 33.8342 23.7958 33.6813C24.0043 33.5298 24.094 33.2628 24.0194 33.0161L23.5136 31.3444L24.9054 30.2893C25.1109 30.1336 25.1951 29.8649 25.1155 29.6197C25.0358 29.3746 24.8096 29.2067 24.552 29.2015L22.8058 29.1659L22.2323 27.5162C22.1478 27.2725 21.9182 27.1094 21.6605 27.1094C21.4027 27.1094 21.1732 27.2725 21.0886 27.5161L20.5151 29.1658L18.7689 29.2013C18.5113 29.2066 18.2851 29.3744 18.2054 29.6196C18.1258 29.8647 18.2101 30.1334 18.4155 30.2892ZM20.961 30.3679C21.2142 30.3627 21.4375 30.2005 21.5206 29.9613L21.6605 29.5589L21.8003 29.9613C21.8835 30.2005 22.1068 30.3627 22.3599 30.3679L22.7858 30.3765L22.4463 30.6339C22.2445 30.7869 22.1593 31.0493 22.2326 31.2917L22.3559 31.6994L22.0063 31.4561C21.7986 31.3117 21.5229 31.3111 21.3146 31.4561L20.9649 31.6994L21.0883 31.2917C21.1616 31.0493 21.0763 30.7869 20.8745 30.6339L20.535 30.3765L20.961 30.3679Z" fill="#004FDF"/>
<path d="M27.4976 26.0509L28.8894 27.106L28.3836 28.7777C28.3089 29.0245 28.3987 29.2914 28.6072 29.4429C28.8157 29.5945 29.0974 29.5973 29.3089 29.4501L30.7425 28.4525L32.1761 29.4501C32.3862 29.5963 32.6678 29.5956 32.8779 29.443C33.0864 29.2915 33.1762 29.0245 33.1015 28.7778L32.5957 27.1061L33.9874 26.051C34.1928 25.8952 34.2771 25.6265 34.1975 25.3814C34.1179 25.1362 33.8917 24.9684 33.634 24.9631L31.8878 24.9276L31.3143 23.2778C31.2298 23.0343 31.0003 22.8711 30.7425 22.8711C30.4848 22.8711 30.2552 23.0343 30.1706 23.2778L29.5971 24.9275L27.851 24.963C27.5933 24.9683 27.3671 25.1362 27.2875 25.3813C27.2078 25.6265 27.2921 25.8952 27.4976 26.0509ZM30.0431 26.1296C30.2963 26.1245 30.5195 25.9623 30.6026 25.723L30.7426 25.3206L30.8825 25.723C30.9656 25.9623 31.1889 26.1244 31.442 26.1296L31.8679 26.1383L31.5285 26.3956C31.3267 26.5486 31.2415 26.811 31.3148 27.0534L31.4381 27.4612L31.0885 27.2178C30.8806 27.0732 30.6047 27.0732 30.3968 27.2178L30.0471 27.4612L30.1705 27.0534C30.2438 26.8111 30.1585 26.5486 29.9567 26.3956L29.6173 26.1383L30.0431 26.1296Z" fill="#004FDF"/>
<path d="M36.5796 19.3907L37.9713 20.4459L37.4655 22.1176C37.3909 22.3643 37.4806 22.6312 37.6891 22.7828C37.8977 22.9342 38.1793 22.9371 38.3909 22.7899L39.8246 21.7923L41.2582 22.79C41.3622 22.8623 41.4832 22.8985 41.604 22.8985C42.0097 22.8985 42.301 22.5058 42.1835 22.1176L41.6778 20.4459L43.0694 19.3908C43.2749 19.2351 43.3592 18.9664 43.2795 18.7212C43.1999 18.4761 42.9737 18.3082 42.716 18.303L40.9699 18.2674L40.3964 16.6177C40.3118 16.3741 40.0823 16.2109 39.8246 16.2109C39.5668 16.2109 39.3373 16.3741 39.2527 16.6176L38.6792 18.2674L36.933 18.3029C36.6753 18.3082 36.4492 18.476 36.3695 18.7212C36.2898 18.9663 36.3742 19.235 36.5796 19.3907ZM39.1251 19.4694C39.3783 19.4643 39.6015 19.3021 39.6846 19.0629L39.8246 18.6605L39.9645 19.0629C40.0476 19.3021 40.2708 19.4642 40.524 19.4694L40.9499 19.4781L40.6105 19.7354C40.4087 19.8884 40.3235 20.1508 40.3968 20.3933L40.5201 20.801L40.1705 20.5577C39.9625 20.413 39.6867 20.413 39.4788 20.5577L39.1291 20.801L39.2525 20.3933C39.3258 20.1509 39.2405 19.8884 39.0387 19.7354L38.6994 19.4781L39.1251 19.4694Z" fill="#004FDF"/>
</svg>
