<svg width="1096" height="233" viewBox="0 0 1096 233" fill="none" xmlns="http://www.w3.org/2000/svg">
<g opacity="0.4">
<ellipse cx="673.443" cy="116.5" rx="298.5" ry="296.587" transform="rotate(90 673.443 116.5)" fill="url(#paint0_linear_2154_612)"/>
<ellipse cx="988.372" cy="116.5" rx="298.5" ry="296.587" transform="rotate(90 988.372 116.5)" fill="url(#paint1_linear_2154_612)"/>
<ellipse cx="390.515" cy="116.5" rx="298.5" ry="296.587" transform="rotate(90 390.515 116.5)" fill="url(#paint2_linear_2154_612)"/>
<ellipse cx="107.586" cy="116.5" rx="298.5" ry="296.587" transform="rotate(90 107.586 116.5)" fill="url(#paint3_linear_2154_612)"/>
</g>
<path d="M702 274L836.22 108.051C836.565 107.625 837.188 107.556 837.618 107.896L970.559 213.188C971.002 213.539 971.649 213.452 971.985 212.996L1189 -82" stroke="#F2F5FC" stroke-width="44"/>
<defs>
<linearGradient id="paint0_linear_2154_612" x1="676.225" y1="-127.894" x2="703.693" y2="449.894" gradientUnits="userSpaceOnUse">
<stop stop-color="#3461FF"/>
<stop offset="1" stop-color="#8399E9"/>
</linearGradient>
<linearGradient id="paint1_linear_2154_612" x1="991.155" y1="-127.894" x2="1018.62" y2="449.894" gradientUnits="userSpaceOnUse">
<stop stop-color="#3461FF"/>
<stop offset="1" stop-color="#8399E9"/>
</linearGradient>
<linearGradient id="paint2_linear_2154_612" x1="393.297" y1="-127.894" x2="420.766" y2="449.894" gradientUnits="userSpaceOnUse">
<stop stop-color="#3461FF"/>
<stop offset="1" stop-color="#8399E9"/>
</linearGradient>
<linearGradient id="paint3_linear_2154_612" x1="110.368" y1="-127.894" x2="137.837" y2="449.894" gradientUnits="userSpaceOnUse">
<stop stop-color="#3461FF"/>
<stop offset="1" stop-color="#8399E9"/>
</linearGradient>
</defs>
</svg>
