<svg width="1096" height="40" viewBox="0 0 1096 40" fill="none" xmlns="http://www.w3.org/2000/svg">
<rect opacity="0.1" x="40" y="20" width="1056" height="1" fill="#00171F"/>
<path d="M18.6531 26.2613C18.6531 24.7947 18.2697 23.563 17.5031 22.5663C16.9597 21.8797 16.2225 21.4286 15.2914 21.213C14.3747 20.9997 13.5081 20.9847 12.7247 21.1663C12.4581 19.583 12.8914 17.9063 13.9914 16.1297C15.0936 14.3541 16.5147 13.0191 18.2547 12.1247L15.6197 8.33301C14.2864 8.99301 13.0197 9.82967 11.8531 10.8413C10.6697 11.853 9.61974 13.0163 8.6864 14.3313C7.75307 15.6463 7.05307 17.1313 6.60307 18.8147C6.15307 20.498 6.02807 22.2147 6.24307 23.9813C6.52307 26.3147 7.2764 28.1813 8.50307 29.5647C9.72863 30.9658 11.2553 31.6663 13.0831 31.6663C14.6914 31.6663 16.0264 31.183 17.0831 30.203C18.1286 29.243 18.6508 27.9275 18.6497 26.2563L18.6531 26.2613ZM33.8597 26.2613C33.8597 24.7947 33.4764 23.563 32.7097 22.5663C32.1653 21.8663 31.4281 21.4125 30.4981 21.2047C29.5647 20.9991 28.7092 20.9869 27.9314 21.168C27.6647 19.6013 28.0814 17.918 29.1847 16.1347C30.2847 14.368 31.7047 13.0347 33.4447 12.1347L30.8164 8.33301C29.482 8.99301 28.2264 9.82912 27.0497 10.8413C25.8557 11.8681 24.7952 13.0406 23.8931 14.3313C22.9664 15.648 22.2764 17.1313 21.8264 18.8147C21.3693 20.4967 21.2464 22.252 21.4647 23.9813C21.7414 26.3147 22.4914 28.1813 23.7147 29.5647C24.937 30.9558 26.4608 31.6513 28.2864 31.6513C29.8975 31.6536 31.232 31.1663 32.2897 30.1897C33.3353 29.2297 33.8586 27.9141 33.8597 26.243V26.2613Z" fill="#004FDF"/>
</svg>
