<svg width="1096" height="40" viewBox="0 0 1096 40" fill="none" xmlns="http://www.w3.org/2000/svg">
<rect opacity="0.1" y="19" width="1056" height="1" fill="#00171F"/>
<path d="M1077.35 13.7387C1077.35 15.2053 1077.73 16.437 1078.5 17.4337C1079.04 18.1203 1079.78 18.5714 1080.71 18.787C1081.63 19.0003 1082.49 19.0153 1083.28 18.8337C1083.54 20.417 1083.11 22.0937 1082.01 23.8703C1080.91 25.6459 1079.49 26.9809 1077.75 27.8753L1080.38 31.667C1081.71 31.007 1082.98 30.1703 1084.15 29.1587C1085.33 28.147 1086.38 26.9837 1087.31 25.6687C1088.25 24.3537 1088.95 22.8687 1089.4 21.1853C1089.85 19.502 1089.97 17.7853 1089.76 16.0187C1089.48 13.6853 1088.72 11.8187 1087.5 10.4353C1086.27 9.03421 1084.74 8.33366 1082.92 8.33366C1081.31 8.33366 1079.97 8.81699 1078.92 9.79699C1077.87 10.757 1077.35 12.0725 1077.35 13.7437L1077.35 13.7387ZM1062.14 13.7387C1062.14 15.2053 1062.52 16.437 1063.29 17.4337C1063.83 18.1337 1064.57 18.5875 1065.5 18.7953C1066.44 19.0009 1067.29 19.0131 1068.07 18.832C1068.34 20.3987 1067.92 22.082 1066.82 23.8653C1065.72 25.632 1064.3 26.9653 1062.56 27.8653L1065.18 31.667C1066.52 31.007 1067.77 30.1709 1068.95 29.1587C1070.14 28.1319 1071.2 26.9594 1072.11 25.6687C1073.03 24.352 1073.72 22.8687 1074.17 21.1853C1074.63 19.5033 1074.75 17.748 1074.54 16.0187C1074.26 13.6853 1073.51 11.8187 1072.29 10.4353C1071.06 9.04421 1069.54 8.34866 1067.71 8.34866C1066.1 8.34644 1064.77 8.83366 1063.71 9.81032C1062.66 10.7703 1062.14 12.0859 1062.14 13.757V13.7387Z" fill="#004FDF"/>
</svg>
