<svg width="67" height="67" viewBox="0 0 67 67" fill="none" xmlns="http://www.w3.org/2000/svg">
<rect width="66.6667" height="66.6667" rx="33.3333" fill="#F2F5FC"/>
<mask id="mask0_348_1356" style="mask-type:alpha" maskUnits="userSpaceOnUse" x="19" y="14" width="29" height="39">
<path d="M19.4443 16.8405C19.4443 15.4023 20.6103 14.2363 22.0485 14.2363H36.8054L47.2221 24.653V49.8266C47.2221 51.2648 46.0562 52.4308 44.6179 52.4308H22.0485C20.6103 52.4308 19.4443 51.2648 19.4443 49.8266V16.8405Z" fill="black"/>
</mask>
<g mask="url(#mask0_348_1356)">
<path d="M19.4443 16.8405C19.4443 15.4023 20.6103 14.2363 22.0485 14.2363H44.6179C46.0562 14.2363 47.2221 15.4023 47.2221 16.8405V49.8266C47.2221 51.2648 46.0562 52.4308 44.6179 52.4308H22.0485C20.6103 52.4308 19.4443 51.2648 19.4443 49.8266V16.8405Z" fill="#4E8DF5"/>
<path fill-rule="evenodd" clip-rule="evenodd" d="M22.0485 52.4316C20.6103 52.4316 19.4443 51.2657 19.4443 49.8275V49.3919C19.4443 50.8302 20.6103 51.9961 22.0485 51.9961H44.6179C46.0562 51.9961 47.2221 50.8302 47.2221 49.3919V49.8275C47.2221 51.2657 46.0562 52.4316 44.6179 52.4316H22.0485Z" fill="#417EE9"/>
<path fill-rule="evenodd" clip-rule="evenodd" d="M22.0485 14.2363C20.6103 14.2363 19.4443 15.4023 19.4443 16.8405V17.276C19.4443 15.8378 20.6103 14.6719 22.0485 14.6719H44.6179C46.0562 14.6719 47.2221 15.8378 47.2221 17.276V16.8405C47.2221 15.4023 46.0562 14.2363 44.6179 14.2363H22.0485Z" fill="#639AF6"/>
<path d="M47.2223 33.5495L37.9171 24.2442C37.5069 23.8341 37.7974 23.1328 38.3774 23.1328H47.2223V33.5495Z" fill="url(#paint0_linear_348_1356)"/>
<path d="M36.8057 14.2363L47.2223 24.653H39.4098C37.9716 24.653 36.8057 23.4871 36.8057 22.0488V14.2363Z" fill="#A6C5FA"/>
<path fill-rule="evenodd" clip-rule="evenodd" d="M40.2776 33.332H26.3887V35.0681H40.2776V33.332ZM40.2776 36.8027H26.3887V38.5388H40.2776V36.8027ZM26.3887 40.2773H40.2776V42.0135H26.3887V40.2773ZM36.8053 43.748H26.3887V45.4842H36.8053V43.748Z" fill="white"/>
</g>
<defs>
<linearGradient id="paint0_linear_348_1356" x1="42.014" y1="33.5495" x2="42.014" y2="22.9158" gradientUnits="userSpaceOnUse">
<stop stop-color="#4E8DF5"/>
<stop offset="1" stop-color="#3D6ACD"/>
</linearGradient>
</defs>
</svg>
