<svg width="67" height="67" viewBox="0 0 67 67" fill="none" xmlns="http://www.w3.org/2000/svg">
<rect x="0.333008" width="66.6667" height="66.6667" rx="33.3333" fill="#F2F5FC"/>
<mask id="mask0_348_1392" style="mask-type:alpha" maskUnits="userSpaceOnUse" x="19" y="14" width="29" height="39">
<path d="M19.7773 16.8405C19.7773 15.4023 20.9433 14.2363 22.3815 14.2363H37.1385L47.5551 24.653V49.8266C47.5551 51.2648 46.3892 52.4308 44.951 52.4308H22.3815C20.9433 52.4308 19.7773 51.2648 19.7773 49.8266V16.8405Z" fill="black"/>
</mask>
<g mask="url(#mask0_348_1392)">
<path d="M19.7773 16.8405C19.7773 15.4023 20.9433 14.2363 22.3815 14.2363H44.951C46.3892 14.2363 47.5551 15.4023 47.5551 16.8405V49.8266C47.5551 51.2648 46.3892 52.4308 44.951 52.4308H22.3815C20.9433 52.4308 19.7773 51.2648 19.7773 49.8266V16.8405Z" fill="#20A464"/>
<path fill-rule="evenodd" clip-rule="evenodd" d="M22.3815 52.4316C20.9433 52.4316 19.7773 51.2657 19.7773 49.8275V49.3919C19.7773 50.8302 20.9433 51.9961 22.3815 51.9961H44.951C46.3892 51.9961 47.5551 50.8302 47.5551 49.3919V49.8275C47.5551 51.2657 46.3892 52.4316 44.951 52.4316H22.3815Z" fill="#149456"/>
<path fill-rule="evenodd" clip-rule="evenodd" d="M22.3815 14.2363C20.9433 14.2363 19.7773 15.4023 19.7773 16.8405V17.276C19.7773 15.8378 20.9433 14.6719 22.3815 14.6719H44.951C46.3892 14.6719 47.5551 15.8378 47.5551 17.276V16.8405C47.5551 15.4023 46.3892 14.2363 44.951 14.2363H22.3815Z" fill="#38AE74"/>
<path d="M47.5553 33.5495L38.2501 24.2442C37.8399 23.8341 38.1304 23.1328 38.7104 23.1328H47.5553V33.5495Z" fill="url(#paint0_linear_348_1392)"/>
<path d="M37.1387 14.2363L47.5553 24.653H39.7428C38.3046 24.653 37.1387 23.4871 37.1387 22.0488V14.2363Z" fill="#8ED1B1"/>
<path fill-rule="evenodd" clip-rule="evenodd" d="M34.5342 32.9004H38.8745H40.6106L40.6106 45.4872L40.6106 45.4881H26.7217V45.4872V43.752V41.5794V40.2773V38.1087V36.8066V34.6365V32.9004H28.4578H32.7981H34.5342ZM32.7981 34.6365H28.4578V36.8066H32.7981V34.6365ZM34.5342 36.8066V34.6365H38.8745V36.8066H34.5342ZM32.7981 38.1087H28.4578V40.2773H32.7981V38.1087ZM34.5342 40.2773V38.1087H38.8745V40.2773H34.5342ZM32.7981 41.5794H28.4578V43.752H32.7981V41.5794ZM34.5342 43.752V41.5794H38.8745V43.752H34.5342Z" fill="white"/>
</g>
<defs>
<linearGradient id="paint0_linear_348_1392" x1="42.347" y1="33.5495" x2="42.347" y2="22.9158" gradientUnits="userSpaceOnUse">
<stop stop-color="#20A464"/>
<stop offset="1" stop-color="#207E55"/>
</linearGradient>
</defs>
</svg>
