<svg width="68" height="68" viewBox="0 0 68 68" fill="none" xmlns="http://www.w3.org/2000/svg">
<rect x="0.666992" y="0.666016" width="66.6667" height="66.6667" rx="33.3333" fill="#F2F5FC"/>
<mask id="mask0_348_1373" style="mask-type:alpha" maskUnits="userSpaceOnUse" x="20" y="14" width="28" height="40">
<path d="M20.1113 17.5065C20.1113 16.0683 21.2773 14.9023 22.7155 14.9023H37.4724L47.8891 25.319V50.4926C47.8891 51.9309 46.7232 53.0968 45.2849 53.0968H22.7155C21.2773 53.0968 20.1113 51.9309 20.1113 50.4926V17.5065Z" fill="black"/>
</mask>
<g mask="url(#mask0_348_1373)">
<path d="M20.1113 17.5065C20.1113 16.0683 21.2773 14.9023 22.7155 14.9023H45.2849C46.7232 14.9023 47.8891 16.0683 47.8891 17.5065V50.4926C47.8891 51.9309 46.7232 53.0968 45.2849 53.0968H22.7155C21.2773 53.0968 20.1113 51.9309 20.1113 50.4926V17.5065Z" fill="#6B3FB9"/>
<path fill-rule="evenodd" clip-rule="evenodd" d="M22.7155 53.0996C21.2773 53.0996 20.1113 51.9337 20.1113 50.4954V50.0599C20.1113 51.4981 21.2773 52.6641 22.7155 52.6641H45.2849C46.7232 52.6641 47.8891 51.4981 47.8891 50.0599V50.4954C47.8891 51.9337 46.7232 53.0996 45.2849 53.0996H22.7155Z" fill="#6439B5"/>
<path fill-rule="evenodd" clip-rule="evenodd" d="M22.7155 14.9004C21.2773 14.9004 20.1113 16.0663 20.1113 17.5046V17.9401C20.1113 16.5019 21.2773 15.3359 22.7155 15.3359H45.2849C46.7232 15.3359 47.8891 16.5019 47.8891 17.9401V17.5046C47.8891 16.0663 46.7232 14.9004 45.2849 14.9004H22.7155Z" fill="#815BC3"/>
<path d="M47.8893 34.2174L38.5841 24.9122C38.1739 24.502 38.4644 23.8008 39.0444 23.8008H47.8893V34.2174Z" fill="url(#paint0_linear_348_1373)"/>
<path d="M37.4727 14.9023L47.8893 25.319H40.0768C38.6386 25.319 37.4727 24.1531 37.4727 22.7148V14.9023Z" fill="#B7A2DD"/>
<path fill-rule="evenodd" clip-rule="evenodd" d="M28.3577 36.1725C29.0769 36.1725 29.6598 35.5896 29.6598 34.8704C29.6598 34.1513 29.0769 33.5684 28.3577 33.5684C27.6386 33.5684 27.0557 34.1513 27.0557 34.8704C27.0557 35.5896 27.6386 36.1725 28.3577 36.1725ZM41.3786 34.0039H31.83V35.74H41.3786V34.0039ZM41.3786 38.3418H31.83V40.0779H41.3786V38.3418ZM31.83 42.6836H41.3786V44.4197H31.83V42.6836ZM29.6598 39.2122C29.6598 39.9314 29.0769 40.5143 28.3577 40.5143C27.6386 40.5143 27.0557 39.9314 27.0557 39.2122C27.0557 38.4931 27.6386 37.9102 28.3577 37.9102C29.0769 37.9102 29.6598 38.4931 29.6598 39.2122ZM28.3577 44.8522C29.0769 44.8522 29.6598 44.2693 29.6598 43.5501C29.6598 42.831 29.0769 42.248 28.3577 42.248C27.6386 42.248 27.0557 42.831 27.0557 43.5501C27.0557 44.2693 27.6386 44.8522 28.3577 44.8522Z" fill="white"/>
</g>
<defs>
<linearGradient id="paint0_linear_348_1373" x1="42.681" y1="34.2174" x2="42.681" y2="23.5838" gradientUnits="userSpaceOnUse">
<stop stop-color="#6B3FB9"/>
<stop offset="1" stop-color="#5B3DA3"/>
</linearGradient>
</defs>
</svg>
