<svg width="67" height="67" viewBox="0 0 67 67" fill="none" xmlns="http://www.w3.org/2000/svg">
<rect x="0.333008" y="0.333984" width="66.6667" height="66.6667" rx="33.3333" fill="#F2F5FC"/>
<mask id="mask0_348_1341" style="mask-type:alpha" maskUnits="userSpaceOnUse" x="19" y="14" width="29" height="39">
<path d="M19.7773 17.1745C19.7773 15.7362 20.9433 14.5703 22.3815 14.5703H37.1385L47.5551 24.987V50.1606C47.5551 51.5988 46.3892 52.7648 44.951 52.7648H22.3815C20.9433 52.7648 19.7773 51.5988 19.7773 50.1606V17.1745Z" fill="black"/>
</mask>
<g mask="url(#mask0_348_1341)">
<path d="M19.7773 17.1745C19.7773 15.7362 20.9433 14.5703 22.3815 14.5703H44.951C46.3892 14.5703 47.5551 15.7362 47.5551 17.1745V50.1606C47.5551 51.5988 46.3892 52.7648 44.951 52.7648H22.3815C20.9433 52.7648 19.7773 51.5988 19.7773 50.1606V17.1745Z" fill="#F4B70A"/>
<path fill-rule="evenodd" clip-rule="evenodd" d="M22.3815 52.7637C20.9433 52.7637 19.7773 51.5977 19.7773 50.1595V49.7259C19.7773 51.1642 20.9433 52.3301 22.3815 52.3301H44.951C46.3892 52.3301 47.5551 51.1642 47.5551 49.7259V50.1595C47.5551 51.5977 46.3892 52.7637 44.951 52.7637H22.3815Z" fill="#EFA904"/>
<path fill-rule="evenodd" clip-rule="evenodd" d="M22.3815 14.5684C20.9433 14.5684 19.7773 15.7343 19.7773 17.1725V17.6081C19.7773 16.1698 20.9433 15.0039 22.3815 15.0039H44.951C46.3892 15.0039 47.5551 16.1698 47.5551 17.6081V17.1725C47.5551 15.7343 46.3892 14.5684 44.951 14.5684H22.3815Z" fill="#F6C028"/>
<path d="M47.5553 33.8835L38.2501 24.5782C37.8399 24.1681 38.1304 23.4668 38.7104 23.4668H47.5553V33.8835Z" fill="url(#paint0_linear_348_1341)"/>
<path d="M37.1387 14.5703L47.5553 24.987H39.7428C38.3046 24.987 37.1387 23.8211 37.1387 22.3828V14.5703Z" fill="#FADC87"/>
<path fill-rule="evenodd" clip-rule="evenodd" d="M27.5897 31.9316C27.1103 31.9316 26.7217 32.3203 26.7217 32.7997V44.9525C26.7217 45.4319 27.1103 45.8205 27.5897 45.8205H39.7425C40.2219 45.8205 40.6106 45.4319 40.6106 44.9525V32.7997C40.6106 32.3203 40.2219 31.9316 39.7425 31.9316H27.5897ZM38.8745 35.8379H28.4578V41.9143H38.8745V35.8379Z" fill="white"/>
</g>
<defs>
<linearGradient id="paint0_linear_348_1341" x1="42.347" y1="33.8835" x2="42.347" y2="23.2498" gradientUnits="userSpaceOnUse">
<stop stop-color="#F4B70A"/>
<stop offset="1" stop-color="#E2930A"/>
</linearGradient>
</defs>
</svg>
