<svg width="803" height="615" viewBox="0 0 803 615" fill="none" xmlns="http://www.w3.org/2000/svg">
<rect x="3.08467" y="612.775" width="609.691" height="798.237" rx="32.1586" transform="rotate(-90 3.08467 612.775)" stroke="url(#paint0_linear_348_474)" stroke-width="2.64317"/>
<rect y="72.2461" width="34.8017" height="1.76211" transform="rotate(-90 0 72.2461)" fill="url(#paint1_linear_348_474)"/>
<rect x="85.4619" y="1.76172" width="27.7533" height="1.76211" transform="rotate(180 85.4619 1.76172)" fill="url(#paint2_linear_348_474)"/>
<rect x="120.704" y="1.76172" width="27.7533" height="1.76211" transform="rotate(180 120.704 1.76172)" fill="url(#paint3_linear_348_474)"/>
<circle cx="14.3141" cy="308.15" r="3.74449" transform="rotate(90 14.3141 308.15)" fill="url(#paint4_linear_348_474)"/>
<circle cx="14.3145" cy="308.15" r="2.42291" transform="rotate(-90 14.3145 308.15)" fill="url(#paint5_radial_348_474)"/>
<g filter="url(#filter0_f_348_474)">
<path d="M12.3331 308.371C12.3331 308.838 12.542 309.286 12.9137 309.617C13.2855 309.947 13.7897 310.133 14.3155 310.133C14.8412 310.133 15.3455 309.947 15.7172 309.617C16.089 309.286 16.2979 308.838 16.2979 308.371L14.3155 308.371L12.3331 308.371Z" fill="url(#paint6_linear_348_474)"/>
</g>
<g filter="url(#filter1_f_348_474)">
<circle cx="13.4323" cy="308.59" r="0.660792" transform="rotate(-90 13.4323 308.59)" fill="#50326D"/>
</g>
<g filter="url(#filter2_f_348_474)">
<path d="M16.2978 307.93C16.2978 307.463 16.0889 307.015 15.7171 306.684C15.3454 306.354 14.8411 306.168 14.3154 306.168C13.7896 306.168 13.2854 306.354 12.9136 306.684C12.5419 307.015 12.333 307.463 12.333 307.93L14.3154 307.93L16.2978 307.93Z" fill="url(#paint7_linear_348_474)"/>
</g>
<g filter="url(#filter3_f_348_474)">
<circle cx="15.1959" cy="307.709" r="0.660792" transform="rotate(-90 15.1959 307.709)" fill="url(#paint8_linear_348_474)"/>
</g>
<circle cx="14.095" cy="326.872" r="5.72687" transform="rotate(-90 14.095 326.872)" fill="black"/>
<circle cx="14.095" cy="347.577" r="5.72687" transform="rotate(-90 14.095 347.577)" fill="black"/>
<circle cx="14.095" cy="270.925" r="5.72687" transform="rotate(-90 14.095 270.925)" fill="black"/>
<circle cx="14.3163" cy="287.885" r="1.54185" transform="rotate(-90 14.3163 287.885)" fill="black"/>
<defs>
<filter id="filter0_f_348_474" x="11.452" y="307.49" width="5.72696" height="3.52383" filterUnits="userSpaceOnUse" color-interpolation-filters="sRGB">
<feFlood flood-opacity="0" result="BackgroundImageFix"/>
<feBlend mode="normal" in="SourceGraphic" in2="BackgroundImageFix" result="shape"/>
<feGaussianBlur stdDeviation="0.440528" result="effect1_foregroundBlur_348_474"/>
</filter>
<filter id="filter1_f_348_474" x="11.4499" y="306.608" width="3.96446" height="3.96446" filterUnits="userSpaceOnUse" color-interpolation-filters="sRGB">
<feFlood flood-opacity="0" result="BackgroundImageFix"/>
<feBlend mode="normal" in="SourceGraphic" in2="BackgroundImageFix" result="shape"/>
<feGaussianBlur stdDeviation="0.660792" result="effect1_foregroundBlur_348_474"/>
</filter>
<filter id="filter2_f_348_474" x="11.452" y="305.287" width="5.72696" height="3.52383" filterUnits="userSpaceOnUse" color-interpolation-filters="sRGB">
<feFlood flood-opacity="0" result="BackgroundImageFix"/>
<feBlend mode="normal" in="SourceGraphic" in2="BackgroundImageFix" result="shape"/>
<feGaussianBlur stdDeviation="0.440528" result="effect1_foregroundBlur_348_474"/>
</filter>
<filter id="filter3_f_348_474" x="14.0946" y="306.608" width="2.20235" height="2.20235" filterUnits="userSpaceOnUse" color-interpolation-filters="sRGB">
<feFlood flood-opacity="0" result="BackgroundImageFix"/>
<feBlend mode="normal" in="SourceGraphic" in2="BackgroundImageFix" result="shape"/>
<feGaussianBlur stdDeviation="0.220264" result="effect1_foregroundBlur_348_474"/>
</filter>
<linearGradient id="paint0_linear_348_474" x1="27.534" y1="683.502" x2="304.912" y2="1034.56" gradientUnits="userSpaceOnUse">
<stop stop-color="#B3B3B3"/>
<stop offset="1" stop-color="#6C6C6C"/>
</linearGradient>
<linearGradient id="paint1_linear_348_474" x1="-4.82261e-07" y1="73.0293" x2="34.8017" y2="73.0293" gradientUnits="userSpaceOnUse">
<stop stop-color="#B0B0B0"/>
<stop offset="0.0885417" stop-color="#636363"/>
<stop offset="0.177083" stop-color="#C2C2C2"/>
<stop offset="0.75" stop-color="#C2C2C2"/>
<stop offset="0.864583" stop-color="#EFEEEE"/>
<stop offset="1" stop-color="#6C6C6C"/>
</linearGradient>
<linearGradient id="paint2_linear_348_474" x1="85.4619" y1="2.54488" x2="113.215" y2="2.54488" gradientUnits="userSpaceOnUse">
<stop stop-color="#B0B0B0"/>
<stop offset="0.0885417" stop-color="#636363"/>
<stop offset="0.177083" stop-color="#C2C2C2"/>
<stop offset="0.75" stop-color="#C2C2C2"/>
<stop offset="0.864583" stop-color="#EFEEEE"/>
<stop offset="1" stop-color="#6C6C6C"/>
</linearGradient>
<linearGradient id="paint3_linear_348_474" x1="120.704" y1="2.54488" x2="148.457" y2="2.54488" gradientUnits="userSpaceOnUse">
<stop stop-color="#B0B0B0"/>
<stop offset="0.0885417" stop-color="#636363"/>
<stop offset="0.177083" stop-color="#C2C2C2"/>
<stop offset="0.75" stop-color="#C2C2C2"/>
<stop offset="0.864583" stop-color="#EFEEEE"/>
<stop offset="1" stop-color="#6C6C6C"/>
</linearGradient>
<linearGradient id="paint4_linear_348_474" x1="11.2304" y1="306.167" x2="17.1775" y2="309.692" gradientUnits="userSpaceOnUse">
<stop stop-color="#222222"/>
<stop offset="1" stop-color="#0B0B0B"/>
</linearGradient>
<radialGradient id="paint5_radial_348_474" cx="0" cy="0" r="1" gradientUnits="userSpaceOnUse" gradientTransform="translate(14.3145 307.93) rotate(37.875) scale(2.5114 2.52996)">
<stop stop-color="#152457"/>
<stop offset="1"/>
</radialGradient>
<linearGradient id="paint6_linear_348_474" x1="12.7736" y1="309.692" x2="16.2979" y2="308.591" gradientUnits="userSpaceOnUse">
<stop stop-color="#20569B"/>
<stop offset="1" stop-color="#061127"/>
</linearGradient>
<linearGradient id="paint7_linear_348_474" x1="15.8572" y1="306.608" x2="12.333" y2="307.71" gradientUnits="userSpaceOnUse">
<stop stop-color="#3D6495"/>
<stop offset="1" stop-color="#061127"/>
</linearGradient>
<linearGradient id="paint8_linear_348_474" x1="16.077" y1="308.15" x2="15.1959" y2="307.049" gradientUnits="userSpaceOnUse">
<stop stop-color="#3291AF"/>
<stop offset="1" stop-color="#3291AF" stop-opacity="0"/>
</linearGradient>
</defs>
</svg>
