<svg width="29" height="29" viewBox="0 0 29 29" fill="none" xmlns="http://www.w3.org/2000/svg">
<path d="M13.292 20.5391H15.7087V13.2891H13.292V20.5391ZM14.5003 10.8724C14.8427 10.8724 15.1299 10.7564 15.3619 10.5244C15.5939 10.2924 15.7095 10.0056 15.7087 9.66406C15.7079 9.32251 15.5919 9.03573 15.3607 8.80373C15.1295 8.57173 14.8427 8.45573 14.5003 8.45573C14.158 8.45573 13.8712 8.57173 13.64 8.80373C13.4088 9.03573 13.2928 9.32251 13.292 9.66406C13.2912 10.0056 13.4072 10.2928 13.64 10.5256C13.8728 10.7584 14.1596 10.874 14.5003 10.8724ZM14.5003 26.5807C12.8288 26.5807 11.258 26.2633 9.78783 25.6286C8.31769 24.9938 7.03887 24.1331 5.95137 23.0464C4.86387 21.9597 4.00313 20.6808 3.36916 19.2099C2.73519 17.739 2.4178 16.1681 2.41699 14.4974C2.41619 12.8267 2.73358 11.2558 3.36916 9.7849C4.00474 8.31395 4.86548 7.03513 5.95137 5.94844C7.03726 4.86174 8.31608 4.00101 9.78783 3.36623C11.2596 2.73145 12.8304 2.41406 14.5003 2.41406C16.1702 2.41406 17.7411 2.73145 19.2128 3.36623C20.6846 4.00101 21.9634 4.86174 23.0493 5.94844C24.1352 7.03513 24.9963 8.31395 25.6327 9.7849C26.2691 11.2558 26.5861 12.8267 26.5837 14.4974C26.5812 16.1681 26.2639 17.739 25.6315 19.2099C24.9991 20.6808 24.1384 21.9597 23.0493 23.0464C21.9602 24.1331 20.6814 24.9942 19.2128 25.6298C17.7443 26.2654 16.1735 26.5823 14.5003 26.5807Z" fill="#004FDF"/>
</svg>
