<svg width="28" height="28" viewBox="0 0 28 28" fill="none" xmlns="http://www.w3.org/2000/svg">
<rect y="-0.00195312" width="28" height="28" rx="4" fill="#00171F"/>
<path d="M19.3691 17.4749C19.393 17.3828 19.4405 17.2986 19.5069 17.2305C19.5734 17.1624 19.6564 17.1129 19.7479 17.0868L22.6931 16.2456L12.1436 12.1426L16.2466 22.6922L17.0876 19.7469C17.1138 19.6554 17.1633 19.5724 17.2314 19.506C17.2995 19.4395 17.3838 19.392 17.4759 19.3682C17.5679 19.3443 17.6646 19.3449 17.7564 19.3699C17.8482 19.3949 17.9319 19.4435 17.9991 19.5107L21.4867 22.9986L22.9989 21.4862L19.5112 17.9981C19.4439 17.9309 19.3954 17.8472 19.3705 17.7554C19.3456 17.6636 19.3451 17.5669 19.3691 17.4749Z" fill="white"/>
<path d="M7.955 7.18067C7.85198 7.08117 7.714 7.02612 7.57078 7.02736C7.42756 7.02861 7.29056 7.08605 7.18928 7.18733C7.08801 7.2886 7.03056 7.42561 7.02932 7.56882C7.02807 7.71204 7.08313 7.85002 7.18263 7.95304L8.95414 9.72428C9.05716 9.82378 9.19514 9.87883 9.33836 9.87759C9.48158 9.87634 9.61857 9.8189 9.71985 9.71762C9.82113 9.61635 9.87857 9.47935 9.87982 9.33613C9.88106 9.19291 9.826 9.05493 9.7265 8.95191L7.955 7.18067Z" fill="white"/>
<path d="M8.59746 12.4525C8.59746 12.3076 8.53991 12.1687 8.43747 12.0662C8.33503 11.9638 8.1961 11.9062 8.05123 11.9062H5.54623C5.40136 11.9062 5.26242 11.9638 5.15999 12.0662C5.05755 12.1687 5 12.3076 5 12.4525C5 12.5973 5.05755 12.7363 5.15999 12.8387C5.26242 12.9412 5.40136 12.9987 5.54623 12.9987H8.05159C8.1964 12.9986 8.33524 12.941 8.4376 12.8386C8.53996 12.7362 8.59746 12.5973 8.59746 12.4525Z" fill="white"/>
<path d="M8.95487 15.1787L7.18336 16.9502C7.13119 17.0006 7.08958 17.0609 7.06095 17.1275C7.03232 17.1942 7.01725 17.2659 7.01662 17.3384C7.01599 17.4109 7.02981 17.4828 7.05728 17.55C7.08474 17.6171 7.1253 17.6781 7.17659 17.7294C7.22788 17.7807 7.28886 17.8212 7.35599 17.8487C7.42312 17.8761 7.49505 17.89 7.56758 17.8893C7.6401 17.8887 7.71178 17.8736 7.77842 17.845C7.84507 17.8164 7.90534 17.7748 7.95573 17.7226L9.72723 15.9511C9.82673 15.8481 9.88179 15.7101 9.88055 15.5669C9.8793 15.4237 9.82185 15.2867 9.72058 15.1854C9.6193 15.0841 9.4823 15.0267 9.33909 15.0254C9.19587 15.0242 9.05789 15.0792 8.95487 15.1787Z" fill="white"/>
<path d="M16.9514 7.18019L15.1799 8.9517C15.128 9.00217 15.0867 9.06244 15.0584 9.129C15.03 9.19556 15.0151 9.2671 15.0147 9.33945C15.0142 9.41181 15.0281 9.48354 15.0555 9.55048C15.083 9.61742 15.1235 9.67823 15.1747 9.72939C15.2258 9.78055 15.2866 9.82104 15.3536 9.84849C15.4205 9.87595 15.4923 9.88984 15.5646 9.88934C15.637 9.88885 15.7085 9.87398 15.7751 9.84561C15.8416 9.81724 15.9019 9.77593 15.9523 9.72407L17.7239 7.95256C17.824 7.84966 17.8796 7.71146 17.8786 7.56788C17.8776 7.4243 17.8201 7.28688 17.7186 7.18536C17.6171 7.08383 17.4796 7.02637 17.3361 7.0254C17.1925 7.02444 17.0543 7.08005 16.9514 7.18019Z" fill="white"/>
<path d="M12.9997 8.04964V5.54427C12.9997 5.39941 12.9421 5.26047 12.8397 5.15803C12.7373 5.0556 12.5983 4.99805 12.4535 4.99805C12.3086 4.99805 12.1697 5.0556 12.0672 5.15803C11.9648 5.26047 11.9072 5.39941 11.9072 5.54427V8.04964C11.9072 8.19451 11.9648 8.33344 12.0672 8.43588C12.1697 8.53832 12.3086 8.59587 12.4535 8.59587C12.5983 8.59587 12.7373 8.53832 12.8397 8.43588C12.9421 8.33344 12.9997 8.19451 12.9997 8.04964Z" fill="white"/>
</svg>
