<svg width="28" height="28" viewBox="0 0 28 28" fill="none" xmlns="http://www.w3.org/2000/svg">
<rect y="-0.00195312" width="28" height="28" rx="4" fill="#00171F"/>
<g clip-path="url(#clip0_348_1165)">
<path d="M15.1299 10.5723H12.833V14.0363H15.1299C16.085 14.0363 16.8619 13.2593 16.8619 12.3043C16.8619 11.3354 16.0766 10.5723 15.1299 10.5723Z" fill="white"/>
<path d="M14 4.99805C9.03738 4.99805 5 9.03543 5 13.998C5 18.9607 9.03738 22.998 14 22.998C18.9626 22.998 23 18.9607 23 13.998C23 9.03543 18.9626 4.99805 14 4.99805ZM15.1297 15.0902H12.8328V16.2949H15.1297C15.4209 16.2949 15.6571 16.531 15.6571 16.8223C15.6571 17.1135 15.4209 17.3496 15.1297 17.3496H12.8328V18.5168C12.8328 18.808 12.5967 19.0441 12.3055 19.0441C12.0142 19.0441 11.7781 18.808 11.7781 18.5168V17.3496H11.1758C10.8846 17.3496 10.6484 17.1135 10.6484 16.8223C10.6484 16.531 10.8846 16.2949 11.1758 16.2949H11.7781V15.0902H11.1758C10.8846 15.0902 10.6484 14.8541 10.6484 14.5629C10.6484 14.2716 10.8846 14.0355 11.1758 14.0355H11.7781V10.0441C11.7781 9.75289 12.0142 9.51679 12.3055 9.51679H15.1297C16.6339 9.51679 17.9164 10.7289 17.9164 12.3035C17.9164 13.8401 16.6663 15.0902 15.1297 15.0902Z" fill="white"/>
</g>
<defs>
<clipPath id="clip0_348_1165">
<rect width="18" height="18" fill="white" transform="translate(5 4.99805)"/>
</clipPath>
</defs>
</svg>
