<svg width="22" height="22" viewBox="0 0 22 22" fill="none" xmlns="http://www.w3.org/2000/svg">
<rect y="-0.00195312" width="22" height="22" rx="11" fill="#00171F"/>
<path d="M9.24963 13.4475L7.20796 11.4059C7.15457 11.3518 7.09099 11.3089 7.02089 11.2796C6.9508 11.2504 6.87559 11.2353 6.79963 11.2353C6.72366 11.2353 6.64845 11.2504 6.57836 11.2796C6.50827 11.3089 6.44468 11.3518 6.39129 11.4059C6.33725 11.4593 6.29435 11.5228 6.26506 11.5929C6.23578 11.663 6.2207 11.7382 6.2207 11.8142C6.2207 11.8902 6.23578 11.9654 6.26506 12.0355C6.29435 12.1056 6.33725 12.1692 6.39129 12.2225L8.83546 14.6667C9.06296 14.8942 9.43046 14.8942 9.65796 14.6667L15.8413 8.48921C15.8953 8.43582 15.9382 8.37224 15.9675 8.30214C15.9968 8.23205 16.0119 8.15684 16.0119 8.08088C16.0119 8.00491 15.9968 7.9297 15.9675 7.85961C15.9382 7.78952 15.8953 7.72593 15.8413 7.67254C15.7879 7.6185 15.7243 7.5756 15.6542 7.54631C15.5841 7.51703 15.5089 7.50195 15.433 7.50195C15.357 7.50195 15.2818 7.51703 15.2117 7.54631C15.1416 7.5756 15.078 7.6185 15.0246 7.67254L9.24963 13.4475Z" fill="white"/>
</svg>
