<svg width="205" height="41" viewBox="0 0 205 41" fill="none" xmlns="http://www.w3.org/2000/svg">
<path fill-rule="evenodd" clip-rule="evenodd" d="M44.3184 5.23797C42.386 5.54608 41.0719 6.77851 40.6854 8.70418C40.5308 9.70553 40.3762 10.7839 40.2216 11.7853C39.7578 14.6353 39.294 18.2555 38.9075 21.1055C38.7529 22.1839 38.5983 23.1853 38.4437 24.1866C38.2891 25.5731 38.4437 25.342 40.6854 25.342C41.2265 25.342 41.8449 25.342 42.386 25.342C43.0044 25.342 43.6228 25.4961 43.7774 24.9569C43.8547 24.7258 45.0141 15.9447 45.0914 15.6366L45.7098 11.015C45.9417 9.16635 47.1012 9.62851 49.7294 9.62851C50.7343 9.62851 51.7392 9.62851 51.5073 11.2461C51.1981 13.2488 50.9662 15.4055 50.657 17.4853C50.3478 19.565 50.0386 21.6447 49.8067 23.7244C49.5748 25.5731 49.6521 25.265 51.5846 25.265C55.6042 25.265 55.2177 25.6501 55.4496 23.7244L56.068 19.1028C56.3772 17.0231 56.6863 15.0204 56.9182 12.8636C57.2274 10.6299 57.7685 8.78121 56.5318 7.00959C55.0631 5.00689 53.4398 5.16094 51.2754 5.16094C50.2705 5.23797 45.0141 5.16094 44.3184 5.23797Z" fill="#002B4E"/>
<path fill-rule="evenodd" clip-rule="evenodd" d="M192.888 13.0946C192.888 12.7865 193.12 12.1703 193.197 11.7852C193.506 10.0136 193.738 8.01087 194.047 6.16222C194.125 5.54601 193.893 5.31493 193.274 5.31493C191.574 5.31493 189.564 5.00682 188.559 7.08655C188.25 7.77979 188.173 9.01222 188.018 9.85952C187.786 11.7082 187.477 13.7109 187.245 15.5595L186.086 24.1095C185.931 25.573 186.008 25.3419 188.018 25.3419C191.651 25.3419 191.342 25.65 191.574 24.1095C191.651 23.5703 191.728 23.1852 191.806 22.646C191.96 21.6446 192.038 20.7973 192.192 19.796C192.27 19.3338 192.347 18.7946 192.424 18.4095C192.579 16.7919 192.115 16.7919 192.965 16.7919C193.12 16.7919 193.274 16.7919 193.506 16.7919C194.434 16.7919 195.284 16.869 195.825 17.7163C196.289 18.4095 196.598 20.1041 196.753 21.1825C196.907 22.4919 197.139 23.7244 197.294 25.0338C197.371 25.7271 197.99 25.573 198.995 25.573C199.69 25.573 200.463 25.573 201.159 25.573C203.169 25.573 203.091 25.7271 202.628 23.1852C202.318 21.2595 202.009 17.8703 200.695 16.3298C200.309 15.8676 200.077 15.7136 199.381 15.4825C199.072 15.4055 198.84 15.3284 198.531 15.2514C198.299 15.1744 197.835 15.1744 197.758 14.9433C197.99 14.7892 199.304 14.9433 201.004 13.6338C202.241 12.7095 203.633 9.2433 204.251 7.70276C205.179 5.46898 205.565 5.31493 203.478 5.31493C201.7 5.31493 200.772 5.16087 199.613 6.08519C198.84 6.77844 198.453 7.93384 198.067 9.08925C197.68 10.0906 196.985 11.323 196.444 12.0933C195.593 12.9406 194.588 13.1717 192.888 13.0946Z" fill="#002B4E"/>
<path fill-rule="evenodd" clip-rule="evenodd" d="M178.124 13.249C177.274 13.3261 172.172 13.172 171.94 13.3261C171.476 13.5571 171.554 14.3274 171.476 14.9436C171.167 17.8707 170.703 16.7923 177.506 17.0234C177.506 17.3315 176.965 18.795 176.81 19.1031C176.501 19.7963 176.114 20.1815 175.496 20.4896C174.8 20.8747 174.105 20.9517 173.177 20.9517C171.863 20.9517 170.317 20.9517 169.08 20.8747C168.771 20.8747 168.153 20.7207 167.843 20.7207C167.38 20.7207 167.38 21.1058 167.302 21.568C167.148 22.7234 167.148 23.7247 168.075 24.7261C168.539 25.1882 169.08 25.4963 169.93 25.6504C171.245 25.8815 173.873 25.9585 175.264 25.8044C180.443 25.2653 182.221 22.6463 183.226 17.1004C183.767 14.0963 184.153 10.0139 182.608 7.62607C181.835 6.47067 180.984 5.77742 179.361 5.31526C178.047 4.93013 175.728 4.77607 174.259 4.93013C172.249 5.08418 171.09 4.93013 170.085 6.23959C169.699 6.70175 169.389 7.47202 169.389 8.24229C169.389 8.47337 169.389 9.47472 169.389 9.62877C169.467 10.0139 170.008 10.0139 170.472 10.0139C171.476 10.0139 175.341 9.93688 176.037 10.0139C176.887 10.0909 177.506 10.4761 177.815 10.9382C178.201 11.4004 178.356 12.5558 178.124 13.249Z" fill="#002B4E"/>
<path fill-rule="evenodd" clip-rule="evenodd" d="M28.0856 0H27.7765C27.39 0.385135 27.4673 0.462162 27.39 1.07838L21.0514 36.9729C20.9741 37.4351 20.5876 39.1297 20.7422 39.4378C21.1287 39.5148 21.2833 39.3608 21.5152 39.2067L26.3078 36.3567C26.8489 36.0486 26.7716 35.8946 26.9262 34.8162C27.0035 34.2 27.1581 33.5838 27.2354 32.9675C27.3127 32.5824 27.6992 30.4257 27.6219 30.1175C27.4673 29.7324 27.1581 29.8865 26.8489 29.8094C26.7716 29.4243 27.3127 26.6513 27.39 26.3432C27.6219 25.8811 27.6992 25.9581 28.2402 25.804C28.8586 25.65 28.9359 24.5716 29.0132 23.8784C29.477 21.6446 28.9359 22.5689 28.3175 22.1067C28.0083 21.8757 28.163 21.4135 28.163 21.0284C28.2402 20.6432 28.3175 20.2581 28.3948 19.873C28.5494 19.1027 28.5494 18.1013 29.0905 17.7932C29.7862 17.4851 29.9408 18.1013 30.25 16.2527C30.3273 15.8676 30.4046 15.4824 30.4819 15.0973C30.8684 13.5567 29.3997 14.7122 29.477 13.4797C29.477 13.0176 29.9408 10.2446 30.0954 9.93648C30.5592 9.24324 31.2549 10.0905 31.4868 8.54999C31.7187 7.00946 32.0279 5.39189 32.2598 3.85135C32.3371 3.23513 32.1052 3.23513 31.796 3.00405L28.6267 0.616216C28.6267 0.462162 28.2402 0.231081 28.0856 0Z" fill="#002B4E"/>
<path fill-rule="evenodd" clip-rule="evenodd" d="M1.88139 25.3418C2.65439 25.958 3.04088 25.0337 2.73169 27.1134L2.34519 29.5783C2.03599 30.4256 1.0311 29.6553 0.8765 30.8877C0.567303 32.5053 0.335405 34.2769 0.0262071 35.8175C-0.128392 36.5107 0.412704 36.5877 1.3403 37.281C1.95869 37.7431 2.42249 38.1283 2.96358 38.5134C4.89607 39.8999 4.89607 40.5161 5.28257 37.5891C5.35986 36.8188 5.59176 36.0485 5.66906 35.2783C5.90096 33.7377 6.21016 32.1972 6.44206 30.7337C6.75125 29.2702 6.98315 27.7296 7.21505 26.1891C7.52425 24.7256 7.75615 23.108 7.98804 21.6445C8.21994 20.104 8.52914 18.5634 8.76104 17.0999C8.99294 15.5594 9.30213 14.0188 9.53403 12.4783C10.1524 9.47424 10.5389 6.39316 11.1573 3.38911C11.4665 2.69586 11.5438 1.92559 11.6984 1.15532C11.9303 -0.154135 11.6984 -8.07643e-05 10.6162 0.616135C10.0751 0.924243 5.82366 3.31208 5.66906 3.69721C5.51446 3.9283 4.97337 7.70262 4.89607 8.31883C4.81877 8.54991 4.66417 9.24316 4.74147 9.39721C4.81877 9.9364 5.35986 9.70532 5.59176 9.9364C5.90096 10.2445 5.51446 11.631 5.43716 12.1702C5.28257 12.9405 5.28257 13.8648 4.58687 14.0188C3.73658 14.1729 3.81388 14.404 3.58198 15.7134C3.50468 16.0986 3.42738 16.4067 3.35008 16.7918C3.04088 18.1783 4.50957 17.0999 4.35497 18.3323C4.35497 18.6404 4.20037 19.1796 4.20037 19.4877C4.12307 19.9499 3.96848 21.4134 3.73658 21.7215C3.35008 22.5688 2.65439 21.5675 2.34519 23.031C2.19059 23.4161 1.88139 24.9567 1.88139 25.3418Z" fill="#002B4E"/>
<path fill-rule="evenodd" clip-rule="evenodd" d="M70.2907 14.0957L69.9042 16.8686C69.8269 17.3308 69.7496 17.793 69.7496 18.2551C69.595 19.1024 69.7496 18.8713 69.2858 19.4105C68.5128 20.2578 68.5901 20.2578 67.7398 20.9511C67.276 21.3362 66.0392 21.9524 65.3435 21.3362C64.7251 20.797 65.4981 16.6376 65.8073 15.8673C66.0392 15.174 66.503 14.3267 67.276 14.1727C68.049 14.0186 69.3631 14.0957 70.2907 14.0957ZM69.9815 22.4146C70.0588 23.0308 69.9815 23.8781 69.9815 24.4943C69.9815 25.4957 70.4453 25.3416 71.2956 25.3416C71.9913 25.3416 72.687 25.3416 73.46 25.3416C74.3103 25.3416 74.233 24.8024 74.3103 24.0321C74.6967 21.4903 74.9286 18.9484 75.3151 16.4065L75.9335 11.7078C75.9335 11.2457 75.8562 11.1686 75.4697 11.0916C74.8513 10.9376 74.233 10.8605 73.6146 10.7835C70.9864 10.3984 68.3582 10.1673 65.5754 10.5524C63.0245 10.8605 61.5559 12.324 60.7056 14.3267C59.9326 16.2524 59.4688 19.4105 59.6234 21.8754C59.8553 24.5713 61.4786 25.9578 64.4159 25.5727C68.5128 25.1105 69.595 22.5686 69.9815 22.4146Z" fill="#002B4E"/>
<path fill-rule="evenodd" clip-rule="evenodd" d="M103.685 16.7919C103.53 16.946 103.376 16.8689 103.144 16.946C103.066 16.946 102.834 17.023 102.603 16.946C102.603 16.7149 102.68 16.5608 102.68 16.4068C102.757 16.0987 102.68 16.0987 102.834 15.9446C102.834 15.7135 103.144 15.0203 103.298 14.8662C103.453 14.5581 103.762 14.3271 104.226 14.173C104.922 13.9419 106.39 13.8649 106.931 14.25C107.163 14.4041 107.163 15.1744 107.086 15.5595C106.931 15.9446 106.622 16.2527 106.313 16.4068C106.004 16.6379 104.226 16.8689 103.685 16.7919ZM110.951 24.5716C110.951 24.2635 110.642 21.6446 110.564 21.4906C110.333 21.1054 109.637 21.3365 109.096 21.3365C107.627 21.4135 105.308 21.5676 103.917 21.4135C102.834 21.2595 102.216 20.7973 102.293 19.5649L106.004 19.1798C108.014 19.0257 110.874 18.7176 111.878 16.8689C112.42 15.8676 112.806 13.2487 111.647 12.0162C110.487 10.8608 109.018 10.3987 107.241 10.3217C104.844 10.0906 101.907 10.3217 100.206 11.4C98.583 12.4784 97.6554 14.0189 97.1916 16.5608C96.8051 18.8716 96.6505 21.7987 97.8873 23.4933C99.7425 25.9581 104.535 25.9581 107.704 25.496C109.791 25.1879 109.328 25.1108 110.951 24.5716Z" fill="#002B4E"/>
<path fill-rule="evenodd" clip-rule="evenodd" d="M125.02 14.481C125.02 14.9432 123.783 23.4932 123.706 24.2634C123.551 25.6499 123.938 25.4188 125.252 25.4188C126.179 25.4188 127.107 25.4188 128.035 25.4188C129.117 25.4188 128.885 25.1107 129.117 23.6472L130.122 16.3297C130.199 15.6364 130.817 11.708 130.817 11.3999C130.817 10.9378 130.431 10.8607 129.967 10.8607H125.716C125.329 10.8607 125.329 10.7837 124.402 10.7837C121.31 10.7837 118.604 10.3216 117.445 13.6337C117.058 14.7121 116.904 16.4067 116.285 18.1013C115.744 19.6418 115.744 21.1053 113.966 21.4134C112.961 21.5675 113.116 21.4905 113.193 23.3391C113.193 23.8013 113.27 24.1864 113.27 24.5716C113.27 25.1878 113.193 25.4959 113.812 25.4959C115.667 25.6499 117.213 25.5729 118.527 24.7256C119.764 23.9553 120.305 22.954 120.769 21.3364C121.232 19.8729 121.619 18.4094 122.005 16.9459C122.701 14.558 122.778 14.2499 125.02 14.481Z" fill="#002B4E"/>
<path fill-rule="evenodd" clip-rule="evenodd" d="M88.3801 15.9441H84.3605C84.2832 15.7131 84.8243 12.4009 84.9016 11.7077C84.9789 11.0914 84.9016 10.8604 84.2059 10.8604H80.4182C79.5679 10.8604 79.6452 11.3996 79.5679 12.1698L77.9446 23.8779C77.8673 24.5712 77.5582 25.3414 78.4084 25.3414H82.3507C83.0464 25.3414 83.0464 24.8793 83.1237 24.2631L83.8967 19.4874H88.1482C88.1482 19.8725 87.6844 23.2617 87.5298 24.186C87.4525 24.8793 87.2979 25.2644 88.1482 25.2644H92.0904C92.8634 25.2644 92.7861 24.5712 92.8634 23.8779L93.7137 18.1009C93.9456 16.7914 94.0229 15.482 94.2548 14.2496C94.3321 13.6333 94.4094 12.9401 94.4867 12.3239C94.7186 10.5523 95.0278 10.8604 90.0806 10.8604C89.385 10.8604 89.385 11.1685 89.3077 11.7847L88.7666 15.559C88.6893 15.8671 88.7666 15.9441 88.3801 15.9441Z" fill="#002B4E"/>
<path fill-rule="evenodd" clip-rule="evenodd" d="M152.615 5.23779C151.379 5.46887 150.374 6.31617 150.065 7.5486C149.987 7.93373 149.755 9.47427 150.142 9.70535C150.451 9.85941 154.161 9.70535 154.934 9.78238C155.862 9.85941 155.475 10.8608 155.398 11.554L154.239 20.104C154.007 21.4905 153.852 22.954 153.62 24.3405C153.466 25.3418 154.161 25.1878 155.012 25.1878C155.862 25.1878 156.635 25.1878 157.485 25.1878C159.263 25.1878 158.954 25.5729 159.418 22.1837L160.886 11.554C160.964 11.2459 160.964 10.8608 161.041 10.4756C161.118 10.0905 161.041 9.70535 161.428 9.62833C161.659 9.5513 165.834 9.5513 166.297 9.62833C166.839 9.70535 166.916 9.85941 166.916 9.16616C166.916 8.704 166.993 8.47292 166.839 8.01076C166.607 6.85536 165.756 5.69995 164.674 5.31482C164.056 5.08373 163.051 5.16076 162.278 5.16076C161.582 5.23779 153.234 5.16076 152.615 5.23779Z" fill="#002B4E"/>
<path fill-rule="evenodd" clip-rule="evenodd" d="M139.397 18.7943C139.784 18.7172 140.712 18.6402 141.021 18.7943C141.485 18.9483 141.562 19.4875 141.485 20.0267C141.33 21.1051 141.098 21.8753 140.17 22.1064C139.707 22.2605 139.088 22.1834 138.624 22.0294C137.697 21.6442 138.083 20.4888 138.238 19.4105C138.393 18.7943 138.393 18.9483 139.397 18.7943ZM132.904 21.3361C132.904 22.2605 132.982 23.0307 133.445 23.801C134.528 25.4956 137.774 25.6497 139.784 25.6497C141.871 25.6497 143.881 25.2645 145.04 24.2632C146.509 22.9537 147.668 17.5618 145.427 16.3294C144.19 15.6361 141.562 15.5591 140.016 15.7902C139.629 15.8672 139.166 16.0213 138.779 16.0213C138.779 15.4051 139.166 12.7861 139.32 11.8618C139.397 11.2456 139.397 10.9375 138.702 10.9375H134.991C134.141 10.9375 134.218 11.5537 134.064 13.0943C133.909 14.0186 133.832 14.9429 133.677 15.8672C133.445 16.6375 132.904 20.5659 132.904 21.3361Z" fill="#002B4E"/>
<path fill-rule="evenodd" clip-rule="evenodd" d="M82.8137 33.9692C82.891 33.7381 83.0456 33.584 83.1229 33.353C83.3548 32.8138 83.4321 31.8894 83.5867 31.1962H84.9008C84.9008 31.5813 84.7462 32.1976 84.6689 32.5827L84.5143 33.6611C84.437 34.1232 84.5143 33.9692 82.8137 33.9692ZM81.0358 34.0462C80.8812 34.5084 80.6493 35.6638 80.8039 36.1259C81.0358 36.203 81.345 36.203 81.5769 36.1259C81.6542 36.0489 81.8088 35.1246 81.8088 35.0476H84.9008C84.9008 35.8948 84.437 36.357 85.6738 36.203C85.8284 35.8948 85.8284 35.3557 85.9057 34.9705C86.0603 34.2773 86.1376 34.1232 85.3646 34.1232C85.3646 33.8151 85.7511 31.8894 85.8284 31.3503C85.9057 30.9651 85.983 30.734 85.8284 30.4259C85.5192 30.3489 82.9683 30.3489 82.6591 30.4259C82.5045 30.8881 82.3499 32.1205 82.1953 32.6597C82.118 33.0449 82.0407 33.353 81.8088 33.584C81.4996 34.1232 81.4996 33.9692 81.0358 34.0462Z" fill="#002B4E"/>
<path fill-rule="evenodd" clip-rule="evenodd" d="M133.446 33.9691H131.9C132.054 33.5839 132.209 33.5839 132.363 32.6596C132.441 32.1975 132.518 31.6583 132.595 31.1961H133.909C133.909 31.5812 133.755 32.1975 133.678 32.5826C133.6 32.8137 133.6 33.0448 133.523 33.2758C133.523 33.4299 133.523 33.5069 133.446 33.5839C133.6 33.9691 133.523 33.9691 133.446 33.9691ZM130.199 34.1231C130.122 34.3542 130.044 34.8164 129.967 35.1245C129.89 35.5866 129.813 35.7407 129.967 36.1258C130.199 36.2029 130.508 36.2029 130.74 36.1258C130.817 36.0488 130.817 35.8177 130.895 35.5866C130.895 35.4326 130.972 35.2015 130.972 35.0475H134.064C133.987 35.9718 133.6 36.3569 134.837 36.2029C134.914 35.9718 135.224 34.5853 135.146 34.2772C134.914 34.0461 134.992 34.1231 134.528 34.0461L134.992 31.2731C135.069 30.7339 135.146 30.811 134.914 30.4258C134.219 30.3488 132.905 30.4258 132.132 30.4258C131.822 30.4258 131.822 30.4258 131.745 30.7339C131.513 31.9664 131.513 33.3529 130.663 34.0461C130.508 34.2002 130.508 34.1231 130.276 34.2002L130.199 34.1231Z" fill="#002B4E"/>
<path fill-rule="evenodd" clip-rule="evenodd" d="M47.7964 31.1956C48.6467 30.9645 49.2651 31.5807 49.1878 32.428C49.1105 33.1212 48.5694 33.8145 47.951 33.9685C46.0958 34.5077 45.8639 31.8118 47.7964 31.1956ZM46.7915 30.6564C46.7142 30.5793 46.7142 30.4253 46.6369 30.2712C46.405 30.1942 46.1731 30.1942 45.9412 30.2712C45.7866 30.3483 45.0909 34.6618 45.0136 35.355C44.9363 35.5861 44.859 36.0483 44.9363 36.2023C45.0136 36.4334 45.5547 36.4334 45.7093 36.3564L45.7866 36.2023C45.8639 35.9712 45.9412 34.8929 46.0958 34.4307C46.2504 34.6618 46.7142 34.8929 47.178 34.9699C48.4921 35.1239 49.7289 34.1226 50.0381 32.8131C50.7338 30.5793 48.4148 29.501 46.7915 30.6564Z" fill="#002B4E"/>
<path fill-rule="evenodd" clip-rule="evenodd" d="M38.4441 34.9698C39.0625 34.9698 38.9079 35.0469 39.0625 33.8915L39.7582 29.809H42.5409C42.5409 30.3482 41.9998 32.736 41.9225 33.6604C41.9225 33.8915 41.8452 34.0455 41.8452 34.2766C41.7679 34.7387 41.7679 34.5847 41.9225 34.8928C42.9274 35.0469 42.7728 34.9698 43.0047 33.5833L43.6231 30.1942C43.7004 29.5779 44.0869 28.8077 43.3139 28.8077C42.309 28.8077 39.9127 28.7306 39.0625 28.8077C38.9852 28.9617 38.1349 33.5833 37.9803 34.4306C37.903 34.8158 38.0576 34.9698 38.4441 34.9698Z" fill="#002B4E"/>
<path fill-rule="evenodd" clip-rule="evenodd" d="M9.3795 35.7407C6.21023 36.4339 6.82862 40.5934 9.4568 39.9772C10.4617 39.7461 11.4666 38.8218 11.5439 37.7434C11.6985 36.5109 10.6936 35.4326 9.3795 35.7407Z" fill="#FAB93D"/>
<path fill-rule="evenodd" clip-rule="evenodd" d="M22.1342 0.693677C19.0423 1.38692 19.3515 5.3153 22.1342 4.85313C23.1391 4.69908 24.144 3.69773 24.2986 2.69638C24.4532 1.38692 23.371 0.462596 22.1342 0.693677Z" fill="#FAB93D"/>
<path fill-rule="evenodd" clip-rule="evenodd" d="M137.928 33.9693C137.928 33.7383 137.928 33.045 138.237 33.045C138.778 33.045 139.628 32.968 139.86 33.2761C140.324 34.1234 138.237 33.9693 137.928 33.9693ZM138.469 31.2734C139.01 31.1964 139.706 31.1964 140.092 31.4274C140.247 32.3518 139.087 32.1207 138.314 32.1207L138.469 31.2734ZM137.232 34.9707C138.314 34.9707 139.937 35.1247 140.556 34.3545C141.02 33.7383 140.942 33.122 140.556 32.6599C141.097 32.2747 141.329 31.1193 140.633 30.6572C140.092 30.3491 138.546 30.272 137.85 30.3491C137.541 30.3491 137.618 30.5031 137.541 30.8112C137.541 31.0423 137.464 31.2734 137.464 31.4274L137 33.9693C136.845 34.4315 136.614 34.9707 137.232 34.9707Z" fill="#002B4E"/>
<path fill-rule="evenodd" clip-rule="evenodd" d="M99.7428 33.1216C100.207 33.0446 101.675 32.8905 101.521 33.5838C101.366 34.2 100.207 34.0459 99.5882 34.0459L99.7428 33.1216ZM100.052 31.273C100.593 31.273 101.211 31.1959 101.675 31.427C101.83 32.2743 100.67 32.1973 99.8974 32.1973L100.052 31.273ZM98.8925 34.9703C100.052 34.9703 101.598 35.1243 102.216 34.354C102.68 33.7378 102.526 33.1216 102.216 32.6594C102.757 32.1973 102.989 31.1189 102.294 30.6567C101.753 30.3486 100.207 30.3486 99.5109 30.3486C99.2017 30.3486 99.279 30.4257 99.2017 30.8108L98.8925 32.7365C98.8152 33.1986 98.7379 33.5838 98.6606 33.9689C98.506 34.4311 98.1968 34.9703 98.8925 34.9703Z" fill="#002B4E"/>
<path fill-rule="evenodd" clip-rule="evenodd" d="M179.979 32.1204C180.211 31.7353 180.598 31.2731 181.216 31.1961C181.989 31.042 182.376 31.4272 182.453 32.1204H179.979ZM182.762 34.2772C182.762 34.0461 182.53 33.5069 182.221 33.5839C182.066 33.5839 181.68 33.892 181.371 33.969C180.52 34.2001 179.825 33.815 179.747 33.0447H182.994C183.226 33.0447 183.226 32.9677 183.303 32.7366C183.767 30.1947 181.525 29.5785 179.979 30.6569C177.197 32.6596 179.361 36.742 182.762 34.2772Z" fill="#002B4E"/>
<path fill-rule="evenodd" clip-rule="evenodd" d="M192.115 32.1204C192.502 31.1961 194.434 30.4258 194.512 32.1204H192.115ZM194.976 34.3542C194.976 34.0461 194.821 33.815 194.666 33.6609C194.048 33.5839 193.893 34.1231 193.043 34.1231C192.425 34.1231 191.961 33.738 191.884 33.1988C192.888 33.1217 194.203 33.1988 195.053 33.1988C195.362 33.1988 195.362 33.1988 195.362 32.8907C195.826 30.5798 193.816 29.5785 192.115 30.7339C190.106 32.1204 190.415 35.2015 192.966 35.1244C194.048 34.9704 194.357 34.5852 194.976 34.3542Z" fill="#002B4E"/>
<path fill-rule="evenodd" clip-rule="evenodd" d="M70.7554 33.1215C71.2192 33.0445 72.2241 32.9674 72.456 33.2755C72.8425 34.1999 71.2192 34.0458 70.5235 34.0458L70.7554 33.1215ZM71.0646 31.2728C71.6057 31.2728 72.2241 31.1958 72.6879 31.4269C72.8425 32.2742 71.8376 32.1972 70.91 32.1201L71.0646 31.2728ZM69.6733 34.8931H71.5284C72.6106 34.8931 73.4609 34.4309 73.5382 33.4296C73.5382 32.9674 73.3836 32.8134 73.229 32.5823C73.9247 31.9661 74.2339 30.2715 72.0695 30.2715H70.2917C70.1371 30.5796 69.7506 33.1215 69.596 33.8147C69.5187 34.4309 69.3641 34.585 69.6733 34.8931Z" fill="#002B4E"/>
<path fill-rule="evenodd" clip-rule="evenodd" d="M169.699 32.9678C169.622 33.43 169.313 33.7381 169.003 33.8921C167.689 34.5083 166.994 33.2759 168.23 32.8908C168.694 32.8137 169.235 32.8908 169.699 32.9678ZM167.457 30.5029C167.38 31.3502 167.535 31.4273 168.308 31.2732C168.772 31.1962 169.545 31.1191 169.854 31.4273L169.931 32.1205C169.081 32.1205 168.694 31.8124 167.844 32.1975C167.226 32.4286 166.839 32.7367 166.684 33.43C166.53 34.2773 166.916 34.7394 167.535 34.9705C168.462 35.3556 168.926 34.8935 169.622 34.7394C169.776 35.1245 169.931 35.1245 170.472 35.0475C170.704 34.5854 171.168 31.7354 170.936 31.1191C170.472 29.7327 167.921 30.2718 167.457 30.5029Z" fill="#002B4E"/>
<path fill-rule="evenodd" clip-rule="evenodd" d="M200.386 32.2741C200.309 33.3525 199.768 34.5079 200.154 34.9701H200.85C201.004 34.739 201.236 33.1984 201.314 32.7363C201.623 31.0417 202.087 30.1944 201.004 30.2714C200.773 30.2714 200.695 30.5025 200.541 30.5795C200.309 30.8876 200.077 31.1187 199.768 31.3498L198.222 32.9674L198.608 30.8876C198.685 30.5025 198.608 30.5025 198.531 30.2714H197.758C197.603 30.5025 197.217 33.2755 197.062 33.8917C196.985 34.2768 196.753 34.816 197.217 34.893C197.835 35.0471 197.912 34.662 198.144 34.4309C198.454 34.1228 198.608 33.9687 198.84 33.7376C199.304 33.4295 200.077 32.4282 200.386 32.2741Z" fill="#002B4E"/>
<path fill-rule="evenodd" clip-rule="evenodd" d="M58.0001 34.8931C58.9277 35.0472 58.7731 34.8161 59.2369 34.3539C59.3915 34.1999 59.4688 34.1228 59.5461 33.9688C59.6234 33.8147 59.778 33.7377 59.9326 33.6607C60.3964 33.1985 60.7829 32.6593 61.2467 32.1972C61.2467 32.8134 60.9375 33.8918 60.8602 34.508C60.7829 34.9701 61.0148 34.9701 61.4786 34.9701C61.9424 34.9701 61.8651 34.8931 62.0197 33.8918L62.4835 31.2728C62.6381 30.5796 62.7927 30.2715 62.0197 30.2715C61.7105 30.2715 61.7105 30.3485 61.5559 30.5026L60.551 31.5809C60.3191 31.8891 59.4688 32.8904 59.2369 33.0445C59.4688 30.7336 60.2418 30.1945 58.6958 30.3485C58.5412 30.8107 58.232 33.0445 58.0774 33.8147C57.9228 34.2769 57.7682 34.585 58.0001 34.8931Z" fill="#002B4E"/>
<path fill-rule="evenodd" clip-rule="evenodd" d="M143.031 34.9703C143.726 34.9703 143.649 34.6621 144.345 33.9689C144.963 33.3527 145.581 32.6594 146.045 32.1973C146.045 32.8135 145.736 33.8919 145.659 34.5081C145.581 35.0473 145.968 34.9703 146.509 34.9703C146.664 34.7392 147.127 31.9662 147.205 31.273C147.359 30.5797 147.514 30.3486 146.741 30.3486C146.277 30.3486 146.2 30.7338 145.968 30.9648L144.654 32.4284C144.499 32.6594 144.113 33.0446 143.958 33.1216C144.19 30.8108 144.963 30.2716 143.417 30.4257C143.262 30.8878 142.876 33.2757 142.721 34.0459C142.644 34.4311 142.412 34.9703 143.031 34.9703Z" fill="#002B4E"/>
<path fill-rule="evenodd" clip-rule="evenodd" d="M53.9039 31.1959C54.7542 30.9648 55.4499 31.504 55.3726 32.4283C55.2953 33.1216 54.6769 33.8148 54.0585 33.9689C52.126 34.508 51.9714 31.7351 53.9039 31.1959ZM53.9039 30.2716C50.6574 30.8878 50.812 35.5864 54.0585 35.0472C55.218 34.8162 56.2229 33.8148 56.3775 32.5053C56.5321 31.0418 55.3726 29.9635 53.9039 30.2716Z" fill="#002B4E"/>
<path fill-rule="evenodd" clip-rule="evenodd" d="M77.5568 31.1957C78.4071 30.9646 79.1028 31.5038 79.0255 32.4281C78.9482 33.1214 78.3298 33.8146 77.7114 33.9687C75.7789 34.5079 75.6243 31.7349 77.5568 31.1957ZM77.6341 30.1943C74.3876 30.6565 74.3876 35.3552 77.5568 34.97C78.7936 34.816 79.7985 33.8146 80.0304 32.5822C80.2623 31.1187 79.1028 30.0403 77.6341 30.1943Z" fill="#002B4E"/>
<path fill-rule="evenodd" clip-rule="evenodd" d="M107.936 32.7363C107.395 34.585 104.69 34.4309 105.231 32.4282C105.385 31.812 106.004 31.1958 106.777 31.1188C107.627 31.1188 108.168 31.8891 107.936 32.7363ZM106.622 30.2715C105.308 30.5026 104.381 31.4269 104.226 32.7363C103.994 34.1999 105.154 35.2782 106.622 35.0472C107.859 34.8931 108.864 33.8918 109.018 32.5823C109.173 31.1188 108.091 30.0404 106.622 30.2715Z" fill="#002B4E"/>
<path fill-rule="evenodd" clip-rule="evenodd" d="M122.005 32.1207C120.536 32.2747 119.84 31.8126 119.686 32.5058C119.531 33.3531 120.382 33.045 121.773 33.045C121.618 33.5072 120.923 34.0464 120.15 33.9693C119.531 33.8923 119.531 33.6612 119.299 33.5072C118.99 33.3531 118.604 33.7383 118.526 33.8923C118.604 34.6626 120.382 35.5869 122.005 34.2774C123.783 32.8139 123.164 29.7329 120.691 30.118C120.072 30.195 119.067 30.7342 119.067 30.9653C119.067 31.1193 119.377 31.5815 119.686 31.5045C119.84 31.5045 120.15 31.1964 120.536 31.0423C121.309 31.0423 121.928 31.4274 122.005 32.1207Z" fill="#002B4E"/>
<path fill-rule="evenodd" clip-rule="evenodd" d="M10.3072 29.9632C9.37963 30.1172 8.52934 30.8875 8.45204 31.9659C8.22014 34.4308 11.8532 34.2767 12.317 31.7348C12.5489 30.4254 11.544 29.6551 10.3072 29.9632Z" fill="#FAB93D"/>
<path fill-rule="evenodd" clip-rule="evenodd" d="M188.25 31.2731C188.25 32.0434 187.555 34.4312 187.709 34.8934C187.709 34.8934 188.482 35.2785 188.637 34.6623L189.178 31.4272C189.255 30.965 189.41 30.5799 189.178 30.3488C188.869 30.2718 186.473 30.2718 186.009 30.3488C185.854 30.5799 185.545 32.8907 185.39 33.4299C185.081 34.4312 184.849 33.9691 184.308 33.9691C184.076 33.9691 183.535 34.8164 184.463 34.9704C186.241 35.3555 186.473 32.9677 186.627 31.5812C186.859 31.1961 186.704 31.1961 188.25 31.2731Z" fill="#002B4E"/>
<path fill-rule="evenodd" clip-rule="evenodd" d="M21.0517 6.93278C18.3462 7.549 18.6554 11.0922 21.129 10.6301C22.0566 10.476 22.8296 9.62873 22.9842 8.62738C23.1388 7.549 22.2112 6.7017 21.0517 6.93278Z" fill="#FAB93D"/>
<path fill-rule="evenodd" clip-rule="evenodd" d="M64.4164 30.9648C64.4937 31.1959 64.7256 31.427 64.8029 31.581C65.1121 31.581 66.0397 30.8878 66.7354 31.1959C67.2765 31.427 66.89 32.0432 66.3489 32.0432C65.9624 32.0432 65.2667 31.9661 64.9575 32.1202C64.8029 32.3513 64.8029 32.7364 64.8802 32.9675C65.4213 33.1986 66.2716 32.8134 66.7354 33.2756C66.89 34.0459 65.9624 34.1999 65.1894 34.0459C64.7256 33.9688 64.4164 33.1986 63.7207 34.1999C63.9526 35.2013 66.89 35.5864 67.5084 34.1229C67.7403 33.5067 67.7403 33.0445 67.3538 32.6594C67.8176 32.4283 68.3587 30.8878 67.0446 30.4256C66.117 29.9634 64.6483 30.5026 64.4164 30.9648Z" fill="#002B4E"/>
<path fill-rule="evenodd" clip-rule="evenodd" d="M173.099 34.9699H173.563C173.718 34.6618 173.872 33.5834 173.949 33.1212H175.805C175.805 33.5064 175.65 33.8915 175.65 34.2766C175.495 35.0469 175.805 35.0469 176.5 34.9699C176.655 34.7388 176.887 33.1212 176.964 32.6591C177.041 32.2739 177.119 31.8888 177.196 31.5037C177.273 30.9645 177.428 30.7334 177.196 30.4253H176.423L176.037 32.2739H174.181C174.336 30.7334 174.877 30.3482 173.563 30.4253C173.408 30.8104 173.176 32.2739 173.099 32.8131C173.022 33.1982 172.945 33.5834 172.867 34.0455C172.713 34.5077 172.481 34.9699 173.099 34.9699Z" fill="#002B4E"/>
<path fill-rule="evenodd" clip-rule="evenodd" d="M161.117 34.9701C161.736 34.9701 161.581 35.0472 161.736 34.1999L162.122 32.1201C162.277 31.1188 161.89 31.1958 164.132 31.1958C164.132 31.5809 163.746 33.3526 163.668 33.9688C163.591 34.508 163.514 34.4309 163.668 34.8931C164.673 35.0472 164.519 34.9701 164.673 33.8918L165.137 31.2728C165.214 30.7336 165.446 30.2715 164.75 30.2715H161.504C161.349 30.6566 161.117 32.1972 161.04 32.7363C160.963 33.1215 160.886 33.5836 160.808 33.9688C160.654 34.508 160.499 34.9701 161.117 34.9701Z" fill="#002B4E"/>
<path fill-rule="evenodd" clip-rule="evenodd" d="M124.942 34.9704C125.406 34.9704 125.406 35.0474 125.483 34.7393L125.792 33.1217H127.647C127.493 34.5852 127.029 34.9704 128.034 34.9704C128.343 34.9704 128.343 34.8933 128.42 34.5852C128.497 34.3541 128.497 34.1231 128.497 33.892L128.961 31.2731C129.116 30.4258 129.27 30.1947 128.188 30.2717L127.802 32.1204H125.947C125.947 31.8122 126.024 31.4271 126.101 31.119C126.256 30.3487 126.256 30.2717 125.56 30.2717C125.174 30.2717 125.251 30.4258 125.096 31.2731L124.633 33.892C124.555 34.4312 124.323 34.9704 124.942 34.9704Z" fill="#002B4E"/>
<path fill-rule="evenodd" clip-rule="evenodd" d="M117.211 34.1227C117.134 33.8916 116.825 33.4294 116.439 33.5835C116.129 33.7375 116.052 33.9686 115.434 34.0456C114.506 34.1227 113.965 33.4294 114.197 32.5051C114.351 31.8889 114.97 31.1956 115.666 31.1956C116.361 31.1186 116.361 31.3497 116.67 31.5808C117.057 31.8119 117.443 31.4267 117.598 31.1956C117.366 29.8862 113.888 29.5781 113.192 32.4281C112.728 34.2767 114.274 35.5092 115.897 34.97C116.438 34.8159 117.057 34.4308 117.211 34.1227Z" fill="#002B4E"/>
<path fill-rule="evenodd" clip-rule="evenodd" d="M91.5487 31.6582C93.0174 30.965 91.1622 30.2717 90.7757 30.1947C89.6935 30.0406 88.8432 30.5798 88.3794 31.119C87.1427 32.4285 87.3746 34.9704 89.5389 35.0474C90.2346 35.0474 91.9352 34.5082 91.3941 33.892C90.9303 33.3528 90.853 33.6609 90.3892 33.892C88.8432 34.6622 87.8384 32.8906 89.1524 31.6582C89.3843 31.4271 89.7708 31.119 90.3119 31.196C91.1622 31.196 91.0076 31.6582 91.5487 31.6582Z" fill="#002B4E"/>
<path fill-rule="evenodd" clip-rule="evenodd" d="M11.4661 24.1861C9.06981 24.7253 9.45631 28.0374 11.6207 27.4982C13.7851 26.959 13.7851 23.6469 11.4661 24.1861Z" fill="#FAB93D"/>
<path fill-rule="evenodd" clip-rule="evenodd" d="M19.9698 13.2485C19.1195 13.4026 18.4238 14.0958 18.2692 15.0202C18.1146 16.0985 18.9649 16.8688 19.9698 16.6377C22.2888 16.0985 22.2115 12.8634 19.9698 13.2485Z" fill="#FAB93D"/>
<path fill-rule="evenodd" clip-rule="evenodd" d="M151.688 33.4297C151.611 34.354 151.147 34.9703 152.075 34.9703C152.461 34.9703 152.384 34.9703 152.538 34.0459L153.002 31.504C153.079 30.9648 153.234 30.7338 153.002 30.3486H152.229L151.843 32.5054C149.91 32.7365 149.987 32.5054 150.219 31.1959C150.297 30.6567 150.374 30.7338 150.142 30.3486H149.369C149.137 30.8878 148.905 32.3513 149.214 32.8905C149.678 33.5838 150.76 33.5067 151.688 33.4297Z" fill="#002B4E"/>
<path fill-rule="evenodd" clip-rule="evenodd" d="M94.8729 31.273L94.3318 34.2C94.1772 34.8933 94.2545 34.9703 94.9502 34.9703C95.3367 34.9703 95.2594 34.6622 95.3367 34.2C95.414 33.8919 95.414 33.5838 95.4913 33.1987C95.5686 32.5824 95.7232 31.8122 95.8778 31.196C96.3416 31.1189 96.8827 31.273 97.2692 31.1189C97.3465 31.0419 97.5011 30.6568 97.2692 30.2716C96.7281 30.1946 94.3318 30.1946 93.6361 30.2716C93.1723 31.5041 93.868 31.196 94.8729 31.273Z" fill="#002B4E"/>
<path fill-rule="evenodd" clip-rule="evenodd" d="M12.3947 18.3321C10.3076 19.0253 10.926 21.7212 12.7812 21.1821C14.7137 20.5658 14.3272 17.6388 12.3947 18.3321Z" fill="#FAB93D"/>
<path fill-rule="evenodd" clip-rule="evenodd" d="M18.8094 19.5653C16.7996 20.1815 17.1861 22.8774 19.1959 22.3382C21.0511 21.799 20.8192 18.9491 18.8094 19.5653Z" fill="#FAB93D"/>
<path fill-rule="evenodd" clip-rule="evenodd" d="M17.7279 25.8036C15.9501 26.3428 16.4138 28.6536 18.0371 28.1914C19.6604 27.8063 19.3512 25.3414 17.7279 25.8036Z" fill="#FAB93D"/>
<path fill-rule="evenodd" clip-rule="evenodd" d="M13.5527 12.4008C12.857 12.6319 12.4705 12.94 12.3932 13.7873C12.3159 14.5576 12.9343 15.0198 13.7846 14.8657C15.4852 14.4035 15.176 11.8617 13.5527 12.4008Z" fill="#FAB93D"/>
<path fill-rule="evenodd" clip-rule="evenodd" d="M14.5581 6.70104C13.1668 7.1632 13.5533 9.01185 14.8673 8.54969C16.1814 8.16455 15.9495 6.23888 14.5581 6.70104Z" fill="#FAB93D"/>
<path fill-rule="evenodd" clip-rule="evenodd" d="M16.8001 32.1199C15.3314 32.505 15.5633 34.3537 16.8774 34.0456C17.3412 33.9686 17.7277 33.5064 17.805 32.9672C17.8823 32.351 17.3412 31.9659 16.8001 32.1199Z" fill="#FAB93D"/>
<path fill-rule="evenodd" clip-rule="evenodd" d="M199.304 28.4226C199.072 28.3456 198.84 28.4996 198.608 28.5767C198.531 29.501 199.149 30.1172 200.077 29.9631C200.772 29.8861 201.468 29.1929 201.545 28.6537C201.391 28.4996 201.082 28.2686 200.85 28.2686C200.618 28.4996 200.541 28.9618 200.154 29.0388C199.381 29.2699 199.768 28.6537 199.304 28.4226Z" fill="#002B4E"/>
<path fill-rule="evenodd" clip-rule="evenodd" d="M155.862 32.3511C156.557 32.3511 157.949 32.3511 158.567 32.3511C158.722 31.8889 158.799 31.4268 158.258 31.4268H155.939C155.552 31.4268 155.552 31.5038 155.475 31.8889C155.398 32.197 155.475 32.3511 155.862 32.3511Z" fill="#002B4E"/>
<path fill-rule="evenodd" clip-rule="evenodd" d="M15.7182 38.3597C14.5588 38.8219 14.9453 40.2083 15.8728 39.9002C16.8777 39.5921 16.6458 37.9746 15.7182 38.3597Z" fill="#FAB93D"/>
<path fill-rule="evenodd" clip-rule="evenodd" d="M15.7181 0.769777C14.7132 1.07788 14.7905 2.5414 15.7954 2.31032C16.8003 2.15626 16.8003 0.461669 15.7181 0.769777Z" fill="#FAB93D"/>
<path fill-rule="evenodd" clip-rule="evenodd" d="M103.685 16.7916C103.453 16.7916 103.375 16.7916 103.143 16.8687C102.989 16.8687 102.834 16.8687 102.68 16.9457C102.757 16.5606 102.834 16.3295 102.912 15.9443C102.757 16.0984 102.834 16.0984 102.757 16.4065C102.68 16.6376 102.68 16.7916 102.68 16.9457C102.834 17.0227 103.066 16.9457 103.221 16.9457C103.375 16.9457 103.53 16.9457 103.685 16.7916Z" fill="#9CADBA"/>
</svg>
