<svg width="42" height="42" viewBox="0 0 42 42" fill="none" xmlns="http://www.w3.org/2000/svg">
<circle cx="20.8004" cy="20.7979" r="16.9" fill="white"/>
<path d="M20.8001 3.4668C11.2495 3.4668 3.4668 11.2495 3.4668 20.8001C3.4668 30.3508 11.2495 38.1335 20.8001 38.1335C30.3508 38.1335 38.1335 30.3508 38.1335 20.8001C38.1335 11.2495 30.3508 3.4668 20.8001 3.4668ZM29.0855 16.8135L19.2575 26.6415C19.0148 26.8841 18.6855 27.0228 18.3388 27.0228C17.9921 27.0228 17.6628 26.8841 17.4201 26.6415L12.5148 21.7361C12.0121 21.2335 12.0121 20.4015 12.5148 19.8988C13.0175 19.3961 13.8495 19.3961 14.3521 19.8988L18.3388 23.8855L27.2481 14.9761C27.7508 14.4735 28.5828 14.4735 29.0855 14.9761C29.5881 15.4788 29.5881 16.2935 29.0855 16.8135Z" fill="#0CB46D"/>
</svg>
