<svg width="600" height="600" viewBox="0 0 600 600" fill="none" xmlns="http://www.w3.org/2000/svg">
<g clip-path="url(#clip0_348_347)">
<rect width="600" height="600" rx="300" fill="white"/>
<rect x="80.7578" y="417.126" width="10.8932" height="170.66" rx="5.4466" fill="#004FDF" fill-opacity="0.15"/>
<rect x="309.515" y="355.398" width="10.8932" height="232.388" rx="5.4466" fill="#004FDF" fill-opacity="0.15"/>
<rect x="106.175" y="355.398" width="10.8932" height="232.388" rx="5.4466" fill="#004FDF" fill-opacity="0.15"/>
<rect x="334.932" y="268.253" width="10.8932" height="319.534" rx="5.4466" fill="#004FDF" fill-opacity="0.15"/>
<rect x="131.593" y="384.446" width="10.8932" height="203.34" rx="5.4466" fill="#004FDF" fill-opacity="0.15"/>
<rect x="360.35" y="308.194" width="10.8932" height="279.592" rx="5.4466" fill="#004FDF" fill-opacity="0.15"/>
<rect x="157.01" y="300.932" width="10.8932" height="286.854" rx="5.4466" fill="#004FDF" fill-opacity="0.15"/>
<rect x="385.767" y="192" width="10.8932" height="395.786" rx="5.4466" fill="#004FDF"/>
<rect x="182.428" y="453.437" width="10.8932" height="134.35" rx="5.4466" fill="#004FDF" fill-opacity="0.15"/>
<rect x="411.185" y="406.233" width="10.8932" height="181.553" rx="5.4466" fill="#004FDF" fill-opacity="0.15"/>
<rect x="207.845" y="384.446" width="10.8932" height="203.34" rx="5.4466" fill="#004FDF" fill-opacity="0.15"/>
<rect x="436.602" y="308.194" width="10.8932" height="279.592" rx="5.4466" fill="#004FDF" fill-opacity="0.15"/>
<rect x="4.50488" y="195.631" width="10.8932" height="392.155" rx="5.4466" fill="#004FDF" fill-opacity="0.15"/>
<rect x="233.263" y="300.932" width="10.8932" height="286.854" rx="5.4466" fill="#004FDF" fill-opacity="0.15"/>
<rect x="462.02" y="192" width="10.8932" height="395.786" rx="5.4466" fill="#004FDF" fill-opacity="0.15"/>
<rect x="538.271" y="192" width="10.8932" height="395.786" rx="5.4466" fill="#004FDF" fill-opacity="0.15"/>
<rect x="29.9229" y="402.602" width="10.8932" height="185.184" rx="5.4466" fill="#004FDF" fill-opacity="0.15"/>
<rect x="258.68" y="446.175" width="10.8932" height="141.612" rx="5.4466" fill="#004FDF" fill-opacity="0.15"/>
<rect x="487.437" y="395.34" width="10.8932" height="192.447" rx="5.4466" fill="#004FDF" fill-opacity="0.15"/>
<rect x="563.689" y="395.34" width="10.8932" height="192.447" rx="5.4466" fill="#004FDF" fill-opacity="0.15"/>
<rect x="55.3398" y="300.932" width="10.8932" height="286.854" rx="5.4466" fill="#004FDF" fill-opacity="0.15"/>
<rect x="284.097" y="373.554" width="10.8932" height="214.233" rx="5.4466" fill="#004FDF" fill-opacity="0.15"/>
<rect x="512.854" y="293.67" width="10.8932" height="294.116" rx="5.4466" fill="#004FDF" fill-opacity="0.15"/>
<rect x="589.106" y="293.67" width="10.8932" height="294.116" rx="5.4466" fill="#004FDF" fill-opacity="0.15"/>
</g>
<defs>
<clipPath id="clip0_348_347">
<rect width="600" height="600" rx="300" fill="white"/>
</clipPath>
</defs>
</svg>
