<svg width="672" height="327" viewBox="0 0 672 327" fill="none" xmlns="http://www.w3.org/2000/svg">
<path fill-rule="evenodd" clip-rule="evenodd" d="M672 0.437148C672.001 0.435458 672.002 0.43419 671.638 0.216175C671.274 -0.00184126 671.274 -0.00141961 671.273 0.000270444L671.269 0.0070336L671.252 0.0344978C671.237 0.059426 671.214 0.0966008 671.184 0.145612C671.124 0.244482 671.033 0.391521 670.912 0.586299C670.669 0.975856 670.306 1.55427 669.823 2.30972C668.856 3.81978 667.41 6.03585 665.495 8.85739C661.663 14.5 655.95 22.5633 648.431 32.2405C633.394 51.595 611.133 77.4008 582.242 103.206C524.456 154.82 440.18 206.402 334.147 206.402V207.247C440.468 207.247 524.938 155.525 582.809 103.835C611.746 77.9881 634.042 52.1421 649.103 32.7572C656.634 23.0648 662.357 14.9868 666.198 9.3306C668.118 6.50231 669.568 4.27989 670.539 2.76351C671.024 2.00552 671.389 1.42371 671.633 1.0312C671.755 0.835155 671.847 0.686435 671.909 0.586299C671.939 0.53602 671.962 0.498412 671.978 0.473062L671.995 0.444331L672 0.437148ZM671.959 62.6014C671.961 62.6002 671.961 62.5998 671.638 62.3255C671.315 62.0518 671.314 62.0522 671.314 62.053L671.31 62.0577L671.293 62.0771L671.263 62.1113L671.225 62.1553C671.199 62.1853 671.168 62.2212 671.131 62.2634L671.072 62.331C671.036 62.372 670.997 62.4172 670.953 62.4667C670.711 62.7417 670.348 63.1507 669.865 63.6848C668.9 64.7525 667.455 66.32 665.539 68.3155C661.709 72.3066 655.998 78.0105 648.481 84.856C633.446 98.5475 611.187 116.806 582.298 135.064C524.518 171.58 440.223 208.092 334.147 208.092V208.937C440.425 208.937 524.876 172.355 582.753 135.777C611.691 117.488 633.989 99.1982 649.054 85.4792C656.586 78.6197 662.311 72.9027 666.153 68.899C668.074 66.8971 669.525 65.3237 670.496 64.2501C670.982 63.7131 671.347 63.3011 671.592 63.0231C671.714 62.8841 671.806 62.7785 671.868 62.7075C671.899 62.672 671.922 62.6454 671.937 62.6272L671.955 62.6069L671.959 62.6014ZM671.638 105.422C671.911 105.745 671.911 105.746 671.91 105.747L671.905 105.751L671.887 105.765L671.841 105.803L671.818 105.823C671.756 105.874 671.664 105.95 671.541 106.049C671.297 106.249 670.931 106.544 670.445 106.929C669.474 107.699 668.023 108.827 666.101 110.262C662.258 113.132 656.533 117.231 649 122.147C633.935 131.981 611.637 145.09 582.701 158.198C524.828 184.414 440.395 210.627 334.147 210.627V209.782C440.253 209.782 524.566 183.604 582.349 157.429C611.241 144.341 633.501 131.254 648.534 121.441C656.051 116.534 661.762 112.447 665.591 109.587C667.506 108.156 668.951 107.033 669.916 106.268C670.399 105.886 670.762 105.593 671.004 105.396C671.055 105.353 671.102 105.315 671.142 105.282C671.197 105.238 671.241 105.201 671.275 105.173C671.305 105.148 671.328 105.129 671.343 105.117L671.359 105.103L671.363 105.099C671.363 105.099 671.364 105.099 671.372 105.109C671.376 105.113 671.382 105.12 671.391 105.13C671.407 105.149 671.432 105.178 671.472 105.226L671.638 105.422ZM671.819 152.703C671.819 152.703 671.82 152.703 671.819 152.702C671.819 152.701 671.819 152.699 671.817 152.695C671.814 152.688 671.807 152.674 671.793 152.644C671.769 152.594 671.723 152.499 671.638 152.321C671.555 152.148 671.51 152.054 671.485 152.003C671.473 151.978 671.466 151.964 671.461 151.954C671.457 151.946 671.455 151.942 671.454 151.941C671.454 151.94 671.454 151.94 671.454 151.94L671.45 151.942L671.433 151.95L671.365 151.982C671.305 152.01 671.214 152.052 671.093 152.109C670.851 152.221 670.488 152.387 670.006 152.605C669.04 153.04 667.595 153.679 665.68 154.492C661.849 156.119 656.137 158.443 648.619 161.233C633.582 166.814 611.318 174.256 582.419 181.699C524.621 196.584 440.284 211.472 334.147 211.472V212.317C440.364 212.317 524.773 197.418 582.631 182.517C611.561 175.066 633.853 167.615 648.916 162.025C656.447 159.23 662.171 156.901 666.013 155.269C667.934 154.454 669.385 153.812 670.356 153.375C670.841 153.156 671.207 152.988 671.452 152.875C671.574 152.818 671.666 152.775 671.728 152.746L671.797 152.713L671.815 152.705L671.819 152.703ZM671.638 189.924C671.696 190.226 671.711 190.309 671.715 190.331C671.716 190.34 671.716 190.34 671.716 190.34L671.711 190.34L671.694 190.344L671.625 190.357C671.563 190.368 671.472 190.385 671.35 190.408L671.235 190.429L671.095 190.455C671.017 190.469 670.932 190.484 670.84 190.501C670.67 190.531 670.475 190.567 670.256 190.606C669.286 190.779 667.837 191.034 665.917 191.357C662.078 192.005 656.357 192.93 648.829 194.039C633.774 196.258 611.489 199.217 582.569 202.175C524.727 208.092 440.34 214.008 334.147 214.008V213.163C440.308 213.163 524.666 207.248 582.482 201.334C611.39 198.378 633.661 195.421 648.705 193.203C656.227 192.095 661.942 191.171 665.775 190.524C667.692 190.201 669.139 189.947 670.106 189.774C670.589 189.688 670.953 189.621 671.195 189.577C671.317 189.555 671.408 189.538 671.468 189.526L671.536 189.514L671.553 189.51L671.557 189.509C671.557 189.509 671.558 189.509 671.56 189.517C671.561 189.525 671.564 189.541 671.57 189.571L671.583 189.637C671.595 189.699 671.612 189.79 671.638 189.924ZM671.633 212.74C671.634 212.74 671.635 212.74 671.638 213.163C671.641 213.585 671.641 213.585 671.64 213.585H671.635H671.628L671.618 213.585H671.605H671.59H671.571L671.55 213.586H671.525L671.498 213.586H671.468L671.435 213.587H671.4L671.361 213.587L671.32 213.588L671.276 213.588H671.229L671.179 213.588L671.126 213.589L671.071 213.589L671.012 213.59L670.951 213.59L670.887 213.591L670.82 213.591L670.751 213.592L670.678 213.592L670.603 213.593L670.525 213.593L670.444 213.594L670.36 213.595L670.273 213.595L670.184 213.596L670.092 213.597L669.997 213.597L669.899 213.598L669.798 213.599L669.695 213.6L669.589 213.601L669.48 213.601L669.368 213.602L669.253 213.603L669.136 213.604L669.016 213.605L668.893 213.606L668.767 213.607L668.638 213.607L668.507 213.609L668.373 213.61L668.236 213.611L668.096 213.612L667.954 213.613L667.809 213.614L667.661 213.615L667.51 213.616L667.356 213.617L667.2 213.618L667.041 213.62L666.879 213.621L666.714 213.622L666.547 213.623L666.377 213.625L666.204 213.626L666.028 213.627L665.849 213.629L665.668 213.63L665.484 213.631L665.298 213.633L665.108 213.634L664.916 213.636L664.721 213.637L664.523 213.639L664.323 213.64L664.12 213.642L663.914 213.643L663.705 213.645L663.494 213.646L663.279 213.648L663.062 213.65L662.843 213.651L662.621 213.653L662.395 213.654L662.168 213.656L661.937 213.658L661.704 213.66L661.468 213.661L661.229 213.663L660.988 213.665L660.744 213.667L660.497 213.669L660.247 213.671L659.995 213.672L659.74 213.675L659.482 213.676L659.222 213.678L658.959 213.681L658.693 213.682L658.425 213.684L658.153 213.686L657.879 213.689L657.603 213.691L657.324 213.693L657.042 213.695L656.757 213.697L656.47 213.699L656.18 213.701L655.887 213.703L655.591 213.705L655.293 213.708L654.993 213.71L654.689 213.713L654.383 213.715L654.074 213.717L653.763 213.719L653.448 213.722L653.132 213.724L652.812 213.727L652.49 213.729L652.165 213.731L651.838 213.734L651.507 213.736L651.175 213.739L650.839 213.741L650.501 213.744L650.16 213.746L649.817 213.749L649.471 213.751L649.122 213.754L648.77 213.757L648.416 213.76L648.06 213.762L647.7 213.765L647.338 213.768L646.974 213.771L646.607 213.773L646.237 213.776L645.864 213.779L645.489 213.781L645.111 213.784L644.731 213.787L644.348 213.79L643.962 213.793L643.574 213.796L643.183 213.799L642.789 213.802L642.393 213.805L641.994 213.808L641.593 213.811L641.189 213.814L640.782 213.817L640.373 213.82L639.961 213.823L639.547 213.826L639.13 213.829L638.71 213.833L638.288 213.836L637.863 213.839L637.435 213.842L637.005 213.845L636.572 213.849L636.137 213.852L635.699 213.855L635.259 213.858L634.816 213.862L634.37 213.865L633.922 213.869L633.471 213.872L633.018 213.875L632.562 213.879L632.103 213.882L631.642 213.885L631.178 213.889L630.712 213.893L630.243 213.896L629.772 213.899L629.298 213.903L628.821 213.907L628.342 213.91L627.86 213.914L627.376 213.918L626.89 213.921L626.4 213.925L625.908 213.929L625.414 213.932L624.917 213.936L624.417 213.94L623.915 213.944L623.41 213.948L622.903 213.951L622.393 213.955L621.881 213.959L621.366 213.963L620.849 213.967L620.329 213.97L619.806 213.975L619.281 213.978L618.754 213.982L618.223 213.986L617.691 213.99L617.156 213.994L616.618 213.998L616.078 214.002L615.535 214.007L614.99 214.01L614.442 214.015L613.892 214.019L613.339 214.023L612.784 214.027L612.226 214.031L611.666 214.035L611.103 214.04L610.538 214.044L609.97 214.049L609.399 214.053L608.827 214.057L608.251 214.061L607.673 214.065L607.093 214.07L606.51 214.074L605.925 214.079L605.337 214.083L604.747 214.087L604.154 214.092L603.558 214.097L602.961 214.101L602.36 214.106L601.758 214.11L601.152 214.114L600.544 214.119L599.934 214.124L599.322 214.128L598.707 214.133L598.089 214.138L597.469 214.142L596.846 214.147L596.221 214.152L595.594 214.156L594.964 214.161L594.331 214.166L593.697 214.171L593.059 214.175L592.419 214.18L591.777 214.185L591.132 214.19L590.485 214.195L589.836 214.199L589.183 214.204L588.529 214.209L587.872 214.214L587.212 214.219L586.551 214.224L585.886 214.229L585.22 214.234L584.551 214.239L583.879 214.244L583.205 214.249L582.528 214.254L581.849 214.259L581.168 214.265L580.484 214.27L579.798 214.275L579.11 214.28L578.419 214.285L577.725 214.291L577.03 214.296L576.331 214.301L575.63 214.306L574.927 214.312L574.222 214.317L573.514 214.322L572.803 214.327L572.091 214.333L571.376 214.338L570.658 214.343L569.938 214.349L569.216 214.354L568.491 214.36L567.764 214.365L567.034 214.371L566.302 214.376L565.568 214.382L564.831 214.387L564.092 214.393L563.351 214.398L562.607 214.404L561.861 214.41L561.112 214.415L560.361 214.421L559.608 214.427L558.852 214.432L558.094 214.438L557.333 214.444L556.57 214.449L555.805 214.455L555.037 214.461L554.268 214.467L553.495 214.473L552.72 214.478L551.944 214.484L551.164 214.49L550.382 214.496L549.598 214.502L548.811 214.508L548.023 214.514L547.231 214.52L546.438 214.526L545.642 214.531L544.844 214.537L544.043 214.544L543.24 214.55L542.435 214.556L541.627 214.562L540.817 214.568L540.005 214.574L539.191 214.58L538.374 214.586L537.555 214.592L536.733 214.599L535.909 214.605L535.083 214.611L534.254 214.617L533.423 214.623L532.59 214.629L531.754 214.636L530.916 214.642L530.076 214.648L529.234 214.655L528.389 214.661L527.542 214.668L526.692 214.674L525.841 214.68L524.987 214.687L524.13 214.693L523.272 214.7L522.411 214.706L521.548 214.713L520.682 214.719L519.814 214.725L518.944 214.732L518.072 214.738L517.197 214.745L516.32 214.752L515.441 214.758L514.559 214.765L513.675 214.771L512.789 214.778L511.901 214.785L511.01 214.792L510.118 214.798L509.222 214.805L508.325 214.812L507.425 214.819L506.523 214.826L505.618 214.832L504.712 214.839L503.803 214.846L502.892 214.853L501.979 214.859L501.063 214.866L500.145 214.873L499.225 214.88L498.303 214.887L497.378 214.894L496.451 214.901L495.522 214.908L494.591 214.915L493.657 214.922L492.721 214.929L491.783 214.936L490.843 214.943L489.9 214.95L488.955 214.957L488.008 214.965L487.059 214.972L486.108 214.979L485.154 214.986L484.198 214.993L483.24 215L482.279 215.008L481.317 215.015L480.352 215.022L479.385 215.029L478.415 215.036L477.444 215.044L476.47 215.051L475.494 215.058L474.516 215.066L473.535 215.073L472.553 215.081L471.568 215.088L470.581 215.096L469.592 215.103L468.6 215.11L467.607 215.118L466.611 215.125L465.613 215.133L464.613 215.14L463.61 215.148L462.606 215.155L461.599 215.163L460.59 215.17L459.579 215.178L458.565 215.185L457.55 215.193L456.532 215.201L455.513 215.208L454.49 215.216L453.466 215.224L452.44 215.232L451.411 215.239L450.38 215.247L449.347 215.255L448.312 215.263L447.275 215.27L446.236 215.278L445.194 215.286L444.151 215.294L443.105 215.302L442.057 215.31L441.007 215.317L439.954 215.325L438.9 215.333L437.843 215.341L436.784 215.349L435.723 215.357L434.66 215.365L433.595 215.373L432.527 215.381L431.458 215.389L430.386 215.397L429.312 215.405L428.237 215.413L427.158 215.422L426.078 215.43L424.996 215.438L423.911 215.446L422.825 215.454L421.736 215.462L420.645 215.47L419.552 215.479L418.457 215.487L417.36 215.495L416.261 215.503L415.159 215.512L414.056 215.52L412.95 215.528L411.842 215.537L410.733 215.545L409.62 215.553L408.506 215.562L407.39 215.57L406.272 215.578L405.151 215.587L404.029 215.595L402.904 215.604L401.778 215.612L400.649 215.621L399.518 215.629L398.385 215.638L397.25 215.646L396.113 215.655L394.974 215.663L393.832 215.672L392.689 215.68L391.543 215.689L390.396 215.698L389.246 215.706L388.095 215.715L386.941 215.724L385.785 215.732L384.627 215.741L383.467 215.75L382.306 215.758L381.141 215.767L379.975 215.776L378.807 215.785L377.637 215.793L376.464 215.802L375.29 215.811L374.114 215.82L372.935 215.829L371.755 215.838L370.572 215.847L369.387 215.856L368.201 215.864L367.012 215.873L365.821 215.882L364.628 215.891L363.433 215.9L362.237 215.909L361.038 215.918L359.837 215.927L358.634 215.936L357.429 215.945L356.222 215.954L355.012 215.963L353.801 215.973L352.589 215.982L351.373 215.991L350.156 216L348.937 216.009L347.716 216.018L346.492 216.028L345.267 216.036L344.04 216.046L342.811 216.055L341.58 216.064L340.346 216.074L339.111 216.083L337.874 216.092L336.634 216.102L335.393 216.111L334.15 216.12L334.144 215.275L335.387 215.266L336.628 215.256L337.868 215.247L339.105 215.238L340.34 215.229L341.573 215.219L342.804 215.21L344.034 215.201L345.261 215.192L346.486 215.183L347.709 215.173L348.93 215.164L350.15 215.155L351.367 215.146L352.582 215.136L353.795 215.128L355.006 215.118L356.215 215.109L357.422 215.1L358.627 215.091L359.83 215.082L361.031 215.073L362.23 215.064L363.427 215.055L364.622 215.046L365.815 215.037L367.006 215.028L368.194 215.019L369.381 215.011L370.566 215.002L371.748 214.993L372.929 214.984L374.107 214.975L375.284 214.966L376.458 214.957L377.63 214.948L378.801 214.94L379.969 214.931L381.135 214.922L382.299 214.913L383.461 214.905L384.621 214.896L385.779 214.887L386.935 214.879L388.088 214.87L389.24 214.861L390.39 214.853L391.537 214.844L392.683 214.835L393.826 214.827L394.967 214.818L396.107 214.81L397.244 214.801L398.379 214.793L399.512 214.784L400.643 214.776L401.771 214.767L402.898 214.759L404.023 214.75L405.145 214.742L406.265 214.733L407.384 214.725L408.5 214.717L409.614 214.708L410.726 214.7L411.836 214.692L412.944 214.683L414.049 214.675L415.153 214.667L416.254 214.658L417.354 214.65L418.451 214.642L419.546 214.634L420.639 214.625L421.73 214.617L422.819 214.609L423.905 214.601L424.99 214.593L426.072 214.585L427.152 214.577L428.23 214.568L429.306 214.56L430.38 214.552L431.452 214.544L432.521 214.536L433.589 214.528L434.654 214.52L435.717 214.512L436.778 214.504L437.837 214.496L438.893 214.488L439.948 214.48L441 214.472L442.05 214.465L443.098 214.457L444.144 214.449L445.188 214.441L446.229 214.433L447.269 214.425L448.306 214.418L449.341 214.41L450.374 214.402L451.405 214.394L452.433 214.387L453.46 214.379L454.484 214.371L455.506 214.364L456.526 214.356L457.544 214.348L458.559 214.34L459.572 214.333L460.584 214.325L461.593 214.318L462.599 214.31L463.604 214.303L464.606 214.295L465.606 214.288L466.605 214.28L467.6 214.273L468.594 214.265L469.585 214.258L470.575 214.25L471.562 214.243L472.546 214.236L473.529 214.228L474.509 214.221L475.488 214.213L476.464 214.206L477.437 214.199L478.409 214.191L479.378 214.184L480.345 214.177L481.31 214.17L482.273 214.163L483.233 214.155L484.191 214.148L485.147 214.141L486.101 214.134L487.053 214.127L488.002 214.12L488.949 214.112L489.894 214.105L490.836 214.098L491.777 214.091L492.715 214.084L493.651 214.077L494.584 214.07L495.516 214.063L496.445 214.056L497.372 214.049L498.296 214.042L499.219 214.035L500.139 214.028L501.057 214.021L501.972 214.014L502.886 214.008L503.797 214.001L504.706 213.994L505.612 213.987L506.516 213.98L507.418 213.974L508.318 213.967L509.216 213.96L510.111 213.953L511.004 213.947L511.895 213.94L512.783 213.933L513.669 213.927L514.553 213.92L515.435 213.913L516.314 213.907L517.191 213.9L518.065 213.893L518.938 213.887L519.808 213.88L520.676 213.874L521.541 213.868L522.404 213.861L523.265 213.855L524.124 213.848L524.98 213.841L525.834 213.835L526.686 213.829L527.535 213.822L528.383 213.816L529.228 213.81L530.07 213.803L530.91 213.797L531.748 213.791L532.583 213.784L533.417 213.778L534.248 213.772L535.076 213.766L535.902 213.76L536.726 213.754L537.548 213.747L538.367 213.741L539.184 213.735L539.999 213.729L540.811 213.723L541.621 213.717L542.429 213.711L543.234 213.705L544.037 213.699L544.838 213.692L545.636 213.686L546.432 213.681L547.225 213.675L548.016 213.669L548.805 213.663L549.592 213.657L550.376 213.651L551.158 213.645L551.937 213.639L552.714 213.633L553.489 213.628L554.261 213.622L555.031 213.616L555.799 213.61L556.564 213.604L557.327 213.599L558.088 213.593L558.846 213.587L559.601 213.582L560.354 213.576L561.106 213.57L561.854 213.565L562.601 213.559L563.344 213.553L564.086 213.548L564.825 213.542L565.562 213.537L566.296 213.531L567.028 213.526L567.758 213.52L568.485 213.515L569.209 213.509L569.932 213.504L570.652 213.498L571.369 213.493L572.084 213.488L572.797 213.482L573.507 213.477L574.215 213.472L574.921 213.467L575.624 213.461L576.325 213.456L577.023 213.451L577.719 213.446L578.412 213.441L579.103 213.435L579.792 213.43L580.478 213.425L581.162 213.42L581.843 213.415L582.522 213.409L583.199 213.404L583.872 213.399L584.544 213.394L585.213 213.389L585.88 213.384L586.544 213.379L587.206 213.374L587.865 213.369L588.522 213.364L589.177 213.359L589.829 213.355L590.479 213.35L591.126 213.345L591.77 213.34L592.413 213.335L593.053 213.33L593.69 213.326L594.325 213.321L594.957 213.316L595.587 213.311L596.215 213.307L596.84 213.302L597.462 213.297L598.083 213.293L598.7 213.288L599.315 213.283L599.928 213.279L600.538 213.274L601.146 213.269L601.751 213.265L602.354 213.261L602.954 213.256L603.552 213.252L604.147 213.247L604.74 213.242L605.33 213.238L605.918 213.234L606.504 213.229L607.087 213.225L607.667 213.22L608.245 213.216L608.82 213.212L609.393 213.208L609.963 213.203L610.531 213.199L611.097 213.195L611.66 213.19L612.22 213.186L612.778 213.182L613.333 213.178L613.886 213.174L614.436 213.17L614.983 213.165L615.529 213.162L616.072 213.157L616.612 213.153L617.149 213.149L617.685 213.145L618.217 213.141L618.747 213.137L619.275 213.133L619.8 213.13L620.322 213.125L620.842 213.122L621.36 213.118L621.875 213.114L622.387 213.11L622.896 213.106L623.404 213.103L623.909 213.099L624.411 213.095L624.91 213.091L625.408 213.087L625.902 213.083L626.394 213.08L626.883 213.076L627.37 213.073L627.854 213.069L628.336 213.065L628.815 213.062L629.291 213.058L629.765 213.055L630.237 213.051L630.706 213.048L631.172 213.044L631.636 213.04L632.097 213.037L632.555 213.034L633.011 213.03L633.465 213.027L633.916 213.023L634.364 213.02L634.809 213.017L635.252 213.013L635.693 213.01L636.131 213.007L636.566 213.004L636.999 213L637.429 212.997L637.856 212.994L638.281 212.991L638.703 212.988L639.123 212.984L639.54 212.981L639.955 212.978L640.367 212.975L640.776 212.972L641.182 212.969L641.586 212.966L641.988 212.963L642.387 212.96L642.783 212.957L643.176 212.954L643.567 212.951L643.956 212.948L644.341 212.945L644.724 212.942L645.105 212.939L645.483 212.936L645.858 212.934L646.23 212.931L646.6 212.928L646.967 212.925L647.332 212.923L647.694 212.92L648.053 212.917L648.41 212.914L648.764 212.912L649.115 212.909L649.464 212.906L649.81 212.904L650.154 212.901L650.495 212.899L650.833 212.896L651.168 212.894L651.501 212.891L651.831 212.889L652.159 212.886L652.484 212.884L652.806 212.882L653.125 212.879L653.442 212.877L653.756 212.874L654.068 212.872L654.376 212.87L654.683 212.868L654.986 212.865L655.287 212.863L655.585 212.861L655.88 212.858L656.173 212.856L656.463 212.854L656.751 212.852L657.035 212.85L657.317 212.848L657.597 212.846L657.873 212.844L658.147 212.841L658.418 212.839L658.687 212.837L658.952 212.835L659.216 212.833L659.476 212.831L659.734 212.83L659.989 212.827L660.241 212.826L660.49 212.824L660.737 212.822L660.981 212.82L661.223 212.818L661.462 212.816L661.697 212.815L661.931 212.813L662.161 212.811L662.389 212.81L662.614 212.808L662.836 212.806L663.056 212.805L663.273 212.803L663.487 212.801L663.699 212.8L663.907 212.798L664.113 212.797L664.316 212.795L664.517 212.794L664.715 212.792L664.909 212.791L665.102 212.789L665.291 212.788L665.478 212.786L665.662 212.785L665.843 212.784L666.022 212.782L666.197 212.781L666.37 212.78L666.54 212.778L666.708 212.777L666.872 212.776L667.034 212.775L667.193 212.773L667.35 212.772L667.503 212.771L667.654 212.77L667.802 212.769L667.947 212.768L668.09 212.767L668.23 212.766L668.366 212.765L668.501 212.764L668.632 212.763L668.761 212.762L668.886 212.761L669.009 212.76L669.129 212.759L669.247 212.758L669.362 212.757L669.473 212.756L669.582 212.756L669.689 212.755L669.792 212.754L669.893 212.753L669.99 212.752L670.085 212.752L670.178 212.751L670.267 212.751L670.354 212.75L670.437 212.749L670.518 212.748L670.596 212.748L670.672 212.747L670.744 212.747L670.814 212.746L670.881 212.746L670.945 212.745L671.006 212.745L671.064 212.744L671.12 212.744L671.172 212.743H671.222L671.269 212.743L671.313 212.743L671.355 212.742L671.393 212.742H671.429L671.462 212.741H671.492L671.519 212.741H671.543L671.565 212.74H671.583H671.599H671.612L671.622 212.74H671.629H671.633ZM671.638 326.396C671.911 326.073 671.911 326.072 671.91 326.071L671.905 326.068L671.887 326.053L671.883 326.049L671.846 326.018L671.818 325.995L671.766 325.952L671.706 325.903C671.66 325.865 671.604 325.82 671.541 325.768C671.297 325.569 670.931 325.274 670.445 324.889C669.474 324.119 668.023 322.991 666.101 321.556C662.258 318.685 656.533 314.587 649 309.67C633.935 299.836 611.637 286.728 582.701 273.62C524.828 247.404 440.395 221.19 334.147 221.19V222.035C440.253 222.035 524.566 248.213 582.349 274.389C611.241 287.477 633.501 300.564 648.534 310.377C656.051 315.283 661.762 319.371 665.591 322.232C667.506 323.661 668.951 324.785 669.916 325.55C670.399 325.932 670.762 326.225 671.004 326.422C671.124 326.521 671.215 326.595 671.275 326.645C671.299 326.665 671.319 326.681 671.333 326.693L671.343 326.701L671.359 326.715L671.363 326.718C671.363 326.718 671.364 326.719 671.384 326.695C671.413 326.662 671.479 326.583 671.638 326.396ZM671.819 278.693C671.821 278.693 671.821 278.693 671.638 279.074C671.455 279.456 671.454 279.456 671.454 279.455L671.45 279.453L671.433 279.445L671.365 279.413C671.305 279.385 671.214 279.343 671.093 279.287C670.994 279.241 670.874 279.186 670.734 279.121C670.649 279.082 670.556 279.039 670.455 278.994C670.319 278.932 670.169 278.864 670.006 278.791C669.04 278.355 667.595 277.717 665.68 276.903C661.849 275.277 656.137 272.952 648.619 270.162C633.582 264.581 611.318 257.139 582.419 249.696C524.621 234.811 440.284 219.923 334.147 219.923V219.078C440.364 219.078 524.773 233.977 582.631 248.878C611.561 256.329 633.853 263.78 648.916 269.37C656.447 272.165 662.171 274.494 666.013 276.126C667.934 276.942 669.385 277.583 670.356 278.021C670.841 278.239 671.207 278.407 671.452 278.521C671.521 278.553 671.58 278.58 671.629 278.603C671.668 278.621 671.701 278.637 671.728 278.649L671.797 278.682L671.815 278.69L671.819 278.693ZM671.638 241.048C671.717 240.633 671.717 240.633 671.716 240.633L671.711 240.632L671.694 240.629L671.625 240.616C671.563 240.605 671.472 240.587 671.35 240.565C671.106 240.52 670.741 240.453 670.256 240.367C669.286 240.193 667.837 239.939 665.917 239.615C662.078 238.968 656.357 238.043 648.829 236.933C633.774 234.714 611.489 231.756 582.569 228.798C524.727 222.881 440.34 216.965 334.147 216.965V217.81C440.308 217.81 524.666 223.724 582.482 229.638C611.39 232.595 633.661 235.552 648.705 237.769C656.227 238.878 661.942 239.802 665.775 240.448C667.692 240.772 669.139 241.026 670.106 241.198C670.398 241.251 670.646 241.295 670.85 241.333C670.984 241.357 671.099 241.378 671.195 241.396C671.317 241.418 671.408 241.435 671.468 241.446L671.536 241.459L671.553 241.462L671.557 241.463C671.558 241.463 671.559 241.464 671.638 241.048Z" fill="url(#paint0_linear_2048_613)"/>
<path fill-rule="evenodd" clip-rule="evenodd" d="M1.24812e-07 0.436878C1.24812e-07 0.436878 -0.00161302 0.433921 0.361944 0.215906C0.725544 -0.00211094 0.726813 7.62635e-07 0.726813 7.62635e-07L0.730931 0.00676392L0.747742 0.0342281C0.762813 0.0591563 0.785439 0.0963311 0.815707 0.145343C0.876244 0.244213 0.967133 0.391251 1.08833 0.586029C1.33065 0.975586 1.694 1.554 2.17722 2.30945C3.14364 3.81951 4.5894 6.03558 6.50537 8.85712C10.3374 14.4998 16.0498 22.563 23.5685 32.2402C38.6063 51.5947 60.8672 77.4005 89.7581 103.206C147.544 154.82 231.82 206.402 337.853 206.402V207.247C231.532 207.247 147.062 155.525 89.191 103.835C60.2538 77.9878 37.9582 52.1419 22.8968 32.757C15.3659 23.0645 9.6429 14.9865 5.80195 9.33033C3.88149 6.50204 2.43142 4.27962 1.46106 2.76324C0.975882 2.00525 0.610666 1.42344 0.366484 1.03093C0.244436 0.834885 0.152613 0.686165 0.0911854 0.586029C0.0604928 0.53575 0.0373987 0.498143 0.0219463 0.472792L0.00445673 0.444061L1.24812e-07 0.436878ZM0.040414 62.6012C0.040414 62.6012 0.0387586 62.5995 0.361944 62.3253C0.685088 62.0515 0.686276 62.0528 0.686276 62.0528L0.690347 62.0574L0.707031 62.0768L0.736535 62.1111L0.774741 62.155C0.800552 62.185 0.831881 62.2209 0.868772 62.2632L0.927737 62.3308C0.963524 62.3718 1.00322 62.417 1.04681 62.4664C1.28879 62.7414 1.65179 63.1504 2.13464 63.6845C3.10033 64.7522 4.54538 66.3197 6.46063 68.3152C10.2911 72.3063 16.002 78.0102 23.5192 84.8558C38.5538 98.5473 60.8124 116.805 89.7021 135.063C147.482 171.58 231.777 208.092 337.853 208.092V208.937C231.575 208.937 147.124 172.355 89.247 135.777C60.3085 117.488 38.0106 99.1979 22.946 85.479C15.4136 78.6195 9.68913 72.9025 5.84665 68.8987C3.92543 66.8969 2.47468 65.3234 1.5036 64.2498C1.01807 63.7128 0.652438 63.3009 0.407961 63.0228C0.285657 62.8838 0.193707 62.7782 0.13211 62.7072C0.101332 62.6717 0.0781536 62.6451 0.0625738 62.6269L0.0449563 62.6067L0.040414 62.6012ZM0.361944 105.422C0.0886396 105.745 0.0903372 105.746 0.0903372 105.746L0.0948796 105.75L0.112581 105.765L0.158472 105.803L0.182287 105.823C0.243969 105.874 0.336047 105.949 0.458438 106.049C0.70313 106.248 1.06894 106.544 1.55471 106.929C2.52613 107.699 3.9773 108.827 5.89886 110.262C9.74202 113.132 15.467 117.23 22.9998 122.147C38.0652 131.981 60.3624 145.09 89.2988 158.198C147.172 184.414 231.605 210.627 337.853 210.627V209.782C231.747 209.782 147.434 183.604 89.6507 157.429C60.7585 144.341 38.4992 131.254 23.4654 121.441C15.9485 116.534 10.2382 112.446 6.40841 109.586C4.49354 108.156 3.04884 107.033 2.08353 106.268C1.60089 105.885 1.23811 105.592 0.996344 105.395C0.944468 105.353 0.898149 105.315 0.857437 105.282C0.803269 105.237 0.758992 105.201 0.724606 105.172C0.694465 105.148 0.671923 105.129 0.657065 105.117L0.640424 105.103L0.636396 105.099C0.636396 105.099 0.635929 105.099 0.627523 105.108C0.623533 105.113 0.617674 105.12 0.609057 105.13C0.593137 105.149 0.567878 105.178 0.527549 105.226L0.361944 105.422ZM0.18042 152.702C0.18042 152.702 0.181352 152.699 0.182923 152.695C0.186065 152.688 0.192816 152.674 0.20691 152.644C0.230938 152.593 0.276404 152.498 0.361944 152.32C0.444726 152.148 0.490149 152.054 0.515196 152.002C0.52687 151.978 0.534087 151.963 0.538629 151.954C0.543002 151.945 0.545587 151.941 0.545587 151.941L0.546313 151.94L0.550342 151.942L0.567025 151.95L0.634655 151.982C0.694936 152.01 0.785609 152.052 0.906554 152.108C1.14844 152.22 1.51141 152.387 1.99421 152.605C2.95982 153.04 4.4049 153.678 6.32024 154.492C10.1509 156.118 15.8625 158.443 23.3809 161.233C38.4178 166.813 60.6821 174.256 89.5811 181.699C147.379 196.584 231.716 211.472 337.853 211.472V212.317C231.636 212.317 147.227 197.418 89.3684 182.517C60.4389 175.066 38.1466 167.615 23.0843 162.025C15.5531 159.23 9.82934 156.9 5.98704 155.269C4.06594 154.453 2.6152 153.812 1.64403 153.375C1.15847 153.156 0.792783 152.988 0.548177 152.874C0.425916 152.818 0.333883 152.775 0.272243 152.746L0.202622 152.713L0.184962 152.704L0.18042 152.702ZM0.361944 189.924C0.304294 190.226 0.288842 190.309 0.285148 190.331C0.283747 190.339 0.284256 190.339 0.284256 190.339L0.28867 190.34L0.306076 190.344L0.375231 190.357C0.436533 190.368 0.528224 190.385 0.650188 190.407L0.764468 190.429L0.905153 190.454C0.982797 190.468 1.06775 190.484 1.15991 190.5C1.33006 190.531 1.52478 190.566 1.744 190.606C2.71373 190.779 4.16311 191.034 6.08272 191.357C9.92201 192.005 15.6426 192.929 23.1704 194.039C38.226 196.258 60.5106 199.216 89.4313 202.175C147.273 208.091 231.66 214.007 337.853 214.007V213.162C231.692 213.162 147.334 207.248 89.5183 201.334C60.6104 198.377 38.3385 195.421 23.2948 193.203C15.773 192.094 10.0582 191.171 6.22455 190.524C4.30773 190.201 2.8612 189.947 1.89424 189.774C1.41075 189.687 1.04711 189.621 0.804585 189.576C0.6833 189.554 0.592288 189.537 0.531625 189.526L0.463532 189.513L0.446632 189.51L0.442472 189.509C0.442472 189.509 0.442005 189.509 0.440264 189.517C0.438609 189.525 0.435556 189.54 0.429741 189.57L0.416833 189.637C0.405032 189.698 0.387585 189.79 0.361944 189.924ZM0.36657 212.74C0.36657 212.74 0.365128 212.74 0.361944 213.162C0.358717 213.585 0.360161 213.585 0.360161 213.585H0.364447H0.371579L0.381599 213.585H0.394503H0.41021H0.428802L0.45024 213.586H0.474523L0.501649 213.586H0.531625L0.564436 213.586H0.600142L0.638641 213.587L0.679993 213.587L0.724181 213.588H0.771222L0.821056 213.588L0.873739 213.589L0.92927 213.589L0.987684 213.589L1.04886 213.59L1.11287 213.591L1.17969 213.591L1.24935 213.592L1.32182 213.592L1.39717 213.593L1.47528 213.593L1.55624 213.594L1.63995 213.594L1.72651 213.595L1.81592 213.596L1.90812 213.597L2.00308 213.597L2.10089 213.598L2.2015 213.599L2.30491 213.6L2.41113 213.6L2.52014 213.601L2.63196 213.602L2.74658 213.603L2.86397 213.604L2.98418 213.605L3.10717 213.605L3.23296 213.606L3.3615 213.607L3.49285 213.608L3.62699 213.609L3.7639 213.611L3.90361 213.611L4.04608 213.613L4.19134 213.613L4.33936 213.615L4.49015 213.616L4.64374 213.617L4.80009 213.618L4.9592 213.619L5.12111 213.621L5.28578 213.622L5.45316 213.623L5.62335 213.624L5.7963 213.626L5.97201 213.627L6.15043 213.628L6.33166 213.63L6.5156 213.631L6.70235 213.632L6.89181 213.634L7.08403 213.635L7.27901 213.637L7.47671 213.638L7.67717 213.64L7.88034 213.641L8.08628 213.643L8.29497 213.644L8.50638 213.646L8.72055 213.648L8.93739 213.649L9.15703 213.651L9.37935 213.652L9.60443 213.654L9.83223 213.656L10.0627 213.658L10.296 213.66L10.532 213.661L10.7707 213.663L11.0121 213.665L11.2562 213.667L11.503 213.668L11.7526 213.671L12.0049 213.672L12.2598 213.674L12.5175 213.676L12.7779 213.678L13.041 213.68L13.3068 213.682L13.5753 213.684L13.8465 213.686L14.1204 213.688L14.397 213.69L14.6763 213.692L14.9583 213.695L15.2429 213.697L15.5303 213.699L15.8203 213.701L16.113 213.703L16.4085 213.705L16.7066 213.708L17.0074 213.71L17.3108 213.712L17.617 213.714L17.9258 213.717L18.2373 213.719L18.5514 213.722L18.8683 213.724L19.1878 213.726L19.51 213.729L19.8348 213.731L20.1623 213.733L20.4925 213.736L20.8253 213.739L21.1607 213.741L21.4989 213.744L21.8397 213.746L22.1831 213.749L22.5292 213.751L22.878 213.754L23.2294 213.757L23.5834 213.759L23.9401 213.762L24.2995 213.765L24.6615 213.767L25.0261 213.77L25.3933 213.773L25.7632 213.776L26.1358 213.778L26.5109 213.781L26.8887 213.784L27.2691 213.787L27.6522 213.79L28.0379 213.793L28.4262 213.796L28.8172 213.799L29.2107 213.801L29.6069 213.804L30.0056 213.807L30.4071 213.81L30.8111 213.814L31.2177 213.817L31.627 213.82L32.0388 213.823L32.4533 213.826L32.8704 213.829L33.29 213.832L33.7123 213.835L34.1372 213.839L34.5647 213.842L34.9948 213.845L35.4274 213.848L35.8627 213.851L36.3006 213.855L36.741 213.858L37.1841 213.861L37.6297 213.865L38.0779 213.868L38.5287 213.872L38.9821 213.875L39.4381 213.878L39.8966 213.882L40.3577 213.885L40.8214 213.889L41.2877 213.892L41.7566 213.896L42.228 213.899L42.7021 213.903L43.1784 213.906L43.6577 213.91L44.1395 213.913L44.6235 213.917L45.1104 213.921L45.5998 213.924L46.0919 213.928L46.586 213.932L47.0831 213.936L47.5828 213.94L48.085 213.943L48.5897 213.947L49.097 213.951L49.6064 213.955L50.1188 213.959L50.6338 213.962L51.1513 213.966L51.6713 213.97L52.1935 213.974L52.7186 213.978L53.2463 213.982L53.7765 213.986L54.3088 213.99L54.8441 213.994L55.3816 213.998L55.922 214.002L56.4645 214.006L57.01 214.01L57.5577 214.014L58.1078 214.019L58.6605 214.023L59.2158 214.027L59.7736 214.031L60.334 214.035L60.8969 214.039L61.4624 214.044L62.0299 214.048L62.6005 214.052L63.1732 214.057L63.7488 214.061L64.3266 214.065L64.9069 214.07L65.4898 214.074L66.0752 214.078L66.6631 214.083L67.2532 214.087L67.8463 214.092L68.4414 214.096L69.0392 214.101L69.6394 214.105L70.2422 214.11L70.8476 214.114L71.4555 214.119L72.0655 214.123L72.6781 214.128L73.2932 214.133L73.9109 214.137L74.5311 214.142L75.1535 214.147L75.7788 214.151L76.4062 214.156L77.0362 214.161L77.6687 214.166L78.3034 214.17L78.941 214.175L79.5808 214.18L80.2231 214.185L80.8675 214.189L81.5149 214.194L82.1644 214.199L82.8164 214.204L83.471 214.209L84.1278 214.214L84.7875 214.219L85.4493 214.224L86.1137 214.229L86.7802 214.234L87.4492 214.239L88.1208 214.244L88.7949 214.249L89.4716 214.254L90.1504 214.259L90.8317 214.265L91.5156 214.27L92.2017 214.275L92.8902 214.28L93.5813 214.285L94.2746 214.29L94.9704 214.295L95.6687 214.301L96.3696 214.306L97.0726 214.311L97.7781 214.317L98.4862 214.322L99.1964 214.327L99.9092 214.333L100.624 214.338L101.342 214.343L102.062 214.349L102.784 214.354L103.509 214.36L104.236 214.365L104.966 214.371L105.697 214.376L106.432 214.382L107.168 214.387L107.908 214.393L108.649 214.398L109.393 214.404L110.139 214.409L110.888 214.415L111.639 214.42L112.392 214.426L113.148 214.432L113.906 214.438L114.667 214.443L115.43 214.449L116.195 214.455L116.962 214.461L117.732 214.467L118.505 214.472L119.28 214.478L120.056 214.484L120.836 214.49L121.618 214.496L122.402 214.502L123.188 214.508L123.977 214.513L124.769 214.519L125.562 214.525L126.358 214.531L127.156 214.537L127.957 214.543L128.759 214.549L129.565 214.555L130.373 214.562L131.183 214.568L131.995 214.573L132.809 214.58L133.626 214.586L134.445 214.592L135.267 214.598L136.091 214.604L136.917 214.611L137.746 214.617L138.577 214.623L139.41 214.629L140.246 214.636L141.084 214.642L141.924 214.648L142.766 214.655L143.611 214.661L144.458 214.667L145.308 214.674L146.159 214.68L147.013 214.686L147.869 214.693L148.728 214.699L149.589 214.706L150.452 214.712L151.318 214.719L152.186 214.725L153.056 214.732L153.928 214.738L154.803 214.745L155.68 214.751L156.559 214.758L157.441 214.765L158.324 214.771L159.21 214.778L160.099 214.785L160.99 214.791L161.882 214.798L162.778 214.805L163.675 214.812L164.575 214.818L165.477 214.825L166.381 214.832L167.288 214.839L168.197 214.846L169.108 214.852L170.021 214.859L170.937 214.866L171.855 214.873L172.775 214.88L173.697 214.887L174.622 214.894L175.548 214.901L176.478 214.908L177.409 214.915L178.343 214.922L179.279 214.929L180.217 214.936L181.157 214.943L182.1 214.95L183.045 214.957L183.992 214.964L184.941 214.971L185.892 214.979L186.846 214.986L187.802 214.993L188.76 215L189.721 215.007L190.683 215.015L191.648 215.022L192.615 215.029L193.585 215.036L194.556 215.044L195.53 215.051L196.506 215.058L197.484 215.066L198.465 215.073L199.447 215.08L200.432 215.088L201.419 215.095L202.408 215.102L203.4 215.11L204.393 215.118L205.389 215.125L206.387 215.132L207.387 215.14L208.389 215.148L209.394 215.155L210.401 215.162L211.41 215.17L212.421 215.178L213.434 215.185L214.45 215.193L215.467 215.2L216.487 215.208L217.509 215.216L218.534 215.224L219.56 215.231L220.588 215.239L221.62 215.247L222.652 215.255L223.687 215.263L224.725 215.27L225.764 215.278L226.805 215.286L227.849 215.293L228.895 215.301L229.943 215.309L230.993 215.317L232.046 215.325L233.1 215.333L234.157 215.341L235.216 215.349L236.277 215.357L237.34 215.365L238.405 215.373L239.473 215.381L240.542 215.389L241.614 215.397L242.688 215.405L243.763 215.413L244.842 215.421L245.922 215.429L247.004 215.437L248.089 215.445L249.175 215.454L250.264 215.462L251.354 215.47L252.448 215.478L253.543 215.486L254.64 215.495L255.739 215.503L256.84 215.511L257.944 215.52L259.05 215.528L260.158 215.536L261.267 215.545L262.38 215.553L263.494 215.561L264.61 215.57L265.728 215.578L266.848 215.587L267.971 215.595L269.095 215.604L270.222 215.612L271.351 215.62L272.482 215.629L273.615 215.637L274.75 215.646L275.887 215.655L277.026 215.663L278.167 215.672L279.311 215.68L280.456 215.689L281.604 215.697L282.753 215.706L283.905 215.715L285.059 215.724L286.215 215.732L287.373 215.741L288.532 215.749L289.694 215.758L290.859 215.767L292.025 215.775L293.193 215.784L294.363 215.793L295.536 215.802L296.71 215.811L297.886 215.82L299.065 215.829L300.245 215.838L301.428 215.846L302.613 215.855L303.799 215.864L304.988 215.873L306.179 215.882L307.372 215.891L308.567 215.9L309.763 215.909L310.962 215.918L312.163 215.927L313.366 215.936L314.571 215.945L315.778 215.954L316.987 215.963L318.199 215.972L319.411 215.981L320.627 215.991L321.844 216L323.063 216.009L324.284 216.018L325.507 216.027L326.733 216.036L327.96 216.045L329.189 216.055L330.42 216.064L331.654 216.073L332.889 216.083L334.126 216.092L335.366 216.101L336.607 216.111L337.85 216.12L337.856 215.275L336.613 215.266L335.372 215.256L334.132 215.247L332.895 215.238L331.66 215.228L330.427 215.219L329.196 215.21L327.966 215.2L326.739 215.192L325.514 215.182L324.291 215.173L323.069 215.164L321.85 215.155L320.633 215.146L319.418 215.136L318.205 215.127L316.994 215.118L315.785 215.109L314.577 215.1L313.373 215.091L312.17 215.082L310.969 215.073L309.77 215.064L308.573 215.055L307.378 215.046L306.185 215.037L304.994 215.028L303.806 215.019L302.619 215.01L301.434 215.001L300.252 214.993L299.071 214.984L297.893 214.975L296.716 214.966L295.542 214.957L294.37 214.948L293.199 214.939L292.031 214.93L290.865 214.922L289.701 214.913L288.539 214.904L287.379 214.896L286.221 214.887L285.065 214.878L283.912 214.87L282.76 214.861L281.61 214.852L280.463 214.844L279.317 214.835L278.174 214.827L277.033 214.818L275.893 214.81L274.756 214.801L273.621 214.792L272.488 214.784L271.357 214.775L270.229 214.767L269.102 214.758L267.977 214.75L266.855 214.742L265.735 214.733L264.616 214.725L263.5 214.716L262.386 214.708L261.274 214.7L260.164 214.691L259.056 214.683L257.951 214.675L256.847 214.666L255.746 214.658L254.646 214.65L253.549 214.641L252.454 214.633L251.361 214.625L250.27 214.617L249.181 214.609L248.095 214.6L247.01 214.592L245.928 214.584L244.848 214.576L243.77 214.568L242.694 214.56L241.62 214.552L240.548 214.544L239.479 214.536L238.411 214.528L237.346 214.52L236.283 214.512L235.222 214.504L234.163 214.496L233.107 214.488L232.052 214.48L231 214.472L229.95 214.464L228.902 214.456L227.856 214.449L226.812 214.441L225.771 214.433L224.731 214.425L223.694 214.418L222.659 214.409L221.626 214.402L220.595 214.394L219.567 214.386L218.54 214.379L217.516 214.371L216.494 214.363L215.474 214.355L214.456 214.348L213.441 214.34L212.428 214.333L211.416 214.325L210.407 214.317L209.401 214.31L208.396 214.303L207.394 214.295L206.393 214.287L205.395 214.28L204.399 214.273L203.406 214.265L202.414 214.257L201.425 214.25L200.438 214.243L199.453 214.235L198.471 214.228L197.49 214.221L196.512 214.213L195.536 214.206L194.563 214.199L193.591 214.191L192.622 214.184L191.655 214.177L190.69 214.17L189.727 214.162L188.767 214.155L187.808 214.148L186.852 214.141L185.899 214.134L184.947 214.126L183.998 214.119L183.051 214.112L182.106 214.105L181.164 214.098L180.223 214.091L179.285 214.084L178.349 214.077L177.415 214.07L176.484 214.063L175.555 214.056L174.628 214.049L173.703 214.042L172.781 214.035L171.861 214.028L170.943 214.021L170.028 214.014L169.114 214.007L168.203 214.001L167.294 213.994L166.388 213.987L165.484 213.98L164.581 213.973L163.681 213.967L162.784 213.96L161.889 213.953L160.996 213.946L160.105 213.94L159.217 213.933L158.331 213.927L157.447 213.92L156.565 213.913L155.686 213.907L154.809 213.9L153.935 213.893L153.062 213.887L152.192 213.88L151.324 213.874L150.459 213.867L149.596 213.861L148.735 213.854L147.876 213.848L147.02 213.841L146.165 213.835L145.314 213.829L144.464 213.822L143.617 213.816L142.772 213.81L141.93 213.803L141.09 213.797L140.252 213.791L139.416 213.784L138.583 213.778L137.752 213.772L136.924 213.766L136.098 213.759L135.274 213.753L134.452 213.747L133.632 213.741L132.816 213.735L132.001 213.728L131.189 213.722L130.379 213.717L129.571 213.71L128.766 213.704L127.963 213.698L127.162 213.692L126.364 213.686L125.568 213.68L124.775 213.674L123.984 213.668L123.195 213.662L122.408 213.657L121.624 213.651L120.842 213.645L120.063 213.639L119.286 213.633L118.511 213.627L117.739 213.622L116.969 213.616L116.201 213.61L115.436 213.604L114.673 213.598L113.912 213.593L113.154 213.587L112.399 213.581L111.645 213.576L110.894 213.57L110.146 213.564L109.399 213.559L108.656 213.553L107.914 213.548L107.175 213.542L106.438 213.537L105.704 213.531L104.972 213.526L104.242 213.52L103.515 213.515L102.79 213.509L102.068 213.504L101.348 213.498L100.63 213.493L99.9156 213.488L99.2028 213.482L98.4926 213.477L97.7845 213.472L97.0789 213.466L96.3759 213.461L95.6751 213.456L94.9767 213.45L94.281 213.445L93.5877 213.44L92.8966 213.435L92.208 213.43L91.522 213.425L90.8381 213.42L90.1568 213.414L89.478 213.409L88.8013 213.404L88.1276 213.399L87.456 213.394L86.7865 213.389L86.12 213.384L85.4557 213.379L84.7938 213.374L84.1346 213.369L83.4774 213.364L82.8228 213.359L82.1707 213.354L81.5212 213.349L80.8738 213.344L80.2294 213.34L79.5871 213.335L78.9474 213.33L78.3098 213.325L77.6751 213.321L77.0426 213.316L76.4126 213.311L75.7852 213.306L75.1603 213.302L74.5375 213.297L73.9173 213.292L73.2996 213.288L72.6845 213.283L72.0719 213.278L71.4619 213.274L70.854 213.269L70.2486 213.265L69.6458 213.26L69.0455 213.256L68.4478 213.251L67.8526 213.247L67.2596 213.242L66.6695 213.238L66.0815 213.234L65.4961 213.229L64.9133 213.225L64.333 213.22L63.7552 213.216L63.18 213.212L62.6069 213.207L62.0367 213.203L61.4687 213.199L60.9033 213.194L60.3404 213.19L59.78 213.186L59.2222 213.182L58.6669 213.178L58.1142 213.174L57.564 213.169L57.0164 213.165L56.4709 213.161L55.9284 213.157L55.3879 213.153L54.8505 213.149L54.3152 213.145L53.7828 213.141L53.2526 213.137L52.7249 213.133L52.2002 213.129L51.6777 213.125L51.1576 213.121L50.6401 213.117L50.1252 213.114L49.6132 213.11L49.1034 213.106L48.5961 213.102L48.0913 213.098L47.5891 213.095L47.0895 213.091L46.5924 213.087L46.0982 213.083L45.6062 213.079L45.1167 213.076L44.6298 213.072L44.1459 213.069L43.6641 213.065L43.1848 213.061L42.7085 213.058L42.2344 213.054L41.763 213.051L41.2941 213.047L40.8279 213.044L40.3642 213.04L39.903 213.037L39.4445 213.033L38.9885 213.03L38.5351 213.027L38.0843 213.023L37.6361 213.02L37.1905 213.016L36.7474 213.013L36.307 213.01L35.8691 213.006L35.4338 213.003L35.0012 213L34.5711 212.997L34.1436 212.994L33.7187 212.99L33.2964 212.987L32.8768 212.984L32.4597 212.981L32.0452 212.978L31.6334 212.975L31.2241 212.972L30.8175 212.969L30.4135 212.965L30.012 212.962L29.6132 212.959L29.2171 212.956L28.8235 212.954L28.4326 212.951L28.0443 212.948L27.6586 212.945L27.2756 212.942L26.8951 212.939L26.5173 212.936L26.1422 212.933L25.7697 212.931L25.3997 212.928L25.0325 212.925L24.6679 212.922L24.3059 212.92L23.9465 212.917L23.5899 212.914L23.2358 212.912L22.8844 212.909L22.5356 212.906L22.1895 212.904L21.8461 212.901L21.5053 212.899L21.1671 212.896L20.8317 212.894L20.4989 212.891L20.1687 212.888L19.8412 212.886L19.5164 212.884L19.1942 212.881L18.8747 212.879L18.5578 212.877L18.2437 212.874L17.9322 212.872L17.6234 212.869L17.3172 212.867L17.0138 212.865L16.713 212.863L16.4149 212.861L16.1195 212.858L15.8268 212.856L15.5367 212.854L15.2493 212.852L14.9646 212.85L14.6827 212.847L14.4034 212.845L14.1268 212.843L13.8529 212.841L13.5817 212.839L13.3132 212.837L13.0474 212.835L12.7843 212.833L12.5239 212.831L12.2662 212.829L12.0113 212.827L11.759 212.825L11.5094 212.823L11.2626 212.822L11.0185 212.82L10.7771 212.818L10.5384 212.816L10.3024 212.815L10.0692 212.813L9.83864 212.811L9.61084 212.809L9.38577 212.808L9.1634 212.806L8.9438 212.804L8.72691 212.803L8.51279 212.801L8.30138 212.799L8.09269 212.798L7.88675 212.796L7.68358 212.795L7.48308 212.793L7.28538 212.792L7.09044 212.79L6.89822 212.789L6.70872 212.787L6.52201 212.786L6.33807 212.785L6.15684 212.783L5.97838 212.782L5.80271 212.781L5.62976 212.779L5.45957 212.778L5.29214 212.777L5.12752 212.776L4.96561 212.774L4.8065 212.773L4.65015 212.772L4.49656 212.771L4.34577 212.77L4.19775 212.768L4.05249 212.768L3.91002 212.766L3.77031 212.766L3.6334 212.764L3.49926 212.763L3.36791 212.763L3.23932 212.761L3.11358 212.76L2.99055 212.76L2.87041 212.759L2.75295 212.758L2.63838 212.757L2.52656 212.756L2.41754 212.755L2.31133 212.755L2.20792 212.754L2.1073 212.753L2.00949 212.752L1.91449 212.752L1.82232 212.751L1.73297 212.75L1.64636 212.749L1.5626 212.749L1.48169 212.748L1.40354 212.748L1.32827 212.747L1.25577 212.746L1.1861 212.746L1.11928 212.746L1.05522 212.745L0.994047 212.744L0.935718 212.744L0.880153 212.744L0.827471 212.743H0.77759L0.730592 212.743L0.686399 212.742L0.645051 212.742L0.60651 212.741H0.57085L0.538035 212.741H0.508064L0.480937 212.741H0.456612L0.435217 212.74H0.416621H0.400913H0.388008L0.378033 212.74H0.370858H0.36657ZM0.361944 326.396C0.0886396 326.072 0.0903372 326.071 0.0903372 326.071L0.0948796 326.067L0.112581 326.052L0.116741 326.049L0.154142 326.018L0.182287 325.995L0.234333 325.952L0.293469 325.903C0.340378 325.864 0.395395 325.82 0.458438 325.768C0.70313 325.569 1.06894 325.273 1.55471 324.888C2.52613 324.118 3.97726 322.991 5.89886 321.555C9.74202 318.685 15.467 314.587 22.9998 309.67C38.0652 299.836 60.3624 286.728 89.2988 273.62C147.172 247.404 231.605 221.19 337.853 221.19V222.035C231.747 222.035 147.434 248.213 89.6507 274.389C60.7585 287.477 38.4992 300.564 23.4654 310.376C15.9485 315.283 10.2382 319.371 6.40841 322.231C4.49354 323.661 3.04884 324.785 2.08353 325.549C1.60089 325.932 1.23811 326.225 0.996344 326.422C0.875441 326.521 0.784803 326.595 0.724606 326.645C0.700408 326.665 0.681135 326.681 0.666787 326.693L0.657065 326.701L0.640424 326.715L0.636396 326.718C0.636396 326.718 0.635801 326.718 0.615424 326.695C0.587236 326.662 0.520545 326.583 0.361944 326.396ZM0.18042 278.692C0.18042 278.692 0.178722 278.693 0.361944 279.074C0.545124 279.455 0.546313 279.455 0.546313 279.455L0.550342 279.453L0.567025 279.445L0.634655 279.413C0.694936 279.385 0.785609 279.342 0.906554 279.286C1.00585 279.24 1.12552 279.185 1.26553 279.121C1.35107 279.082 1.44421 279.039 1.5449 278.993C1.68087 278.932 1.83064 278.864 1.99421 278.79C2.95982 278.355 4.4049 277.716 6.32024 276.903C10.1509 275.277 15.8625 272.952 23.3809 270.162C38.4178 264.581 60.6821 257.139 89.5811 249.696C147.379 234.811 231.716 219.922 337.853 219.922V219.077C231.636 219.077 147.227 233.976 89.3684 248.878C60.4389 256.329 38.1466 263.78 23.0843 269.37C15.5531 272.165 9.82934 274.494 5.98704 276.126C4.06594 276.941 2.6152 277.583 1.64403 278.02C1.15847 278.239 0.792783 278.407 0.548177 278.52C0.479362 278.552 0.420144 278.58 0.370518 278.603C0.33193 278.621 0.2992 278.636 0.272243 278.649L0.202622 278.682L0.184962 278.69L0.18042 278.692ZM0.361944 241.048C0.282686 240.633 0.284256 240.633 0.284256 240.633L0.28867 240.632L0.306076 240.629L0.375231 240.616C0.436533 240.604 0.528224 240.587 0.650188 240.565C0.894116 240.52 1.25912 240.453 1.744 240.367C2.71373 240.193 4.16311 239.939 6.08272 239.615C9.92201 238.968 15.6426 238.043 23.1704 236.933C38.226 234.714 60.5106 231.756 89.4313 228.797C147.273 222.881 231.66 216.965 337.853 216.965V217.81C231.692 217.81 147.334 223.724 89.5183 229.638C60.6104 232.595 38.3385 235.552 23.2948 237.769C15.773 238.878 10.0582 239.802 6.22455 240.448C4.30773 240.771 2.8612 241.025 1.89424 241.198C1.60221 241.25 1.35391 241.295 1.14959 241.332C1.01566 241.357 0.900611 241.378 0.804585 241.396C0.6833 241.418 0.592288 241.435 0.531625 241.446L0.463532 241.459L0.446632 241.462L0.442472 241.463C0.442472 241.463 0.44116 241.463 0.361944 241.048Z" fill="url(#paint1_linear_2048_613)"/>
<defs>
<linearGradient id="paint0_linear_2048_613" x1="339.24" y1="159.075" x2="665.448" y2="159.075" gradientUnits="userSpaceOnUse">
<stop offset="0.0182341" stop-color="white" stop-opacity="0"/>
<stop offset="0.127609" stop-color="white"/>
<stop offset="0.563305" stop-color="white" stop-opacity="0.65"/>
<stop offset="0.943305" stop-color="white" stop-opacity="0"/>
</linearGradient>
<linearGradient id="paint1_linear_2048_613" x1="332.76" y1="159.075" x2="6.55172" y2="159.075" gradientUnits="userSpaceOnUse">
<stop offset="0.0182341" stop-color="white" stop-opacity="0"/>
<stop offset="0.127609" stop-color="white"/>
<stop offset="0.563305" stop-color="white" stop-opacity="0.65"/>
<stop offset="0.943305" stop-color="white" stop-opacity="0"/>
</linearGradient>
</defs>
</svg>
