<svg width="263" height="56" viewBox="0 0 263 56" fill="none" xmlns="http://www.w3.org/2000/svg">
<path d="M0 31.36V0.64H12.2769C12.5658 0.64 12.9372 0.654222 13.3911 0.682667C13.8451 0.696889 14.2646 0.739556 14.6498 0.810668C16.3692 1.08089 17.7861 1.67111 18.9003 2.58134C20.0282 3.49156 20.8605 4.64356 21.3969 6.03734C21.9472 7.4169 22.2223 8.9529 22.2223 10.6453C22.2223 13.1485 21.6101 15.3031 20.3859 17.1094C19.1616 18.9014 17.284 20.0107 14.7529 20.4374L12.6277 20.6294H4.97267V31.36H0ZM17.0639 31.36L11.204 18.8587L16.2592 17.7067L22.6968 31.36H17.0639ZM4.97267 15.8294H12.0706C12.3457 15.8294 12.6552 15.8151 12.9991 15.7867C13.343 15.7582 13.6594 15.7014 13.9482 15.616C14.7736 15.4027 15.4201 15.0258 15.8878 14.4854C16.3692 13.9449 16.7063 13.3334 16.8988 12.6507C17.1052 11.968 17.2083 11.2996 17.2083 10.6453C17.2083 9.99113 17.1052 9.32268 16.8988 8.64001C16.7063 7.94312 16.3692 7.32445 15.8878 6.78401C15.4201 6.24356 14.7736 5.86667 13.9482 5.65334C13.6594 5.56801 13.343 5.51823 12.9991 5.50401C12.6552 5.47556 12.3457 5.46134 12.0706 5.46134H4.97267V15.8294Z" fill="white"/>
<path d="M25.1793 31.36L34.5469 0.64H41.8305L51.1981 31.36H46.081L37.58 3.79734H38.6942L30.2964 31.36H25.1793ZM30.3996 24.704V19.904H45.9985V24.704H30.3996Z" fill="white"/>
<path d="M54.5159 18.0054V13.9734H66.896V18.0054H54.5159Z" fill="white"/>
<path d="M83.2552 32C81.0818 32 79.1216 31.6089 77.3746 30.8267C75.6414 30.0445 74.2108 28.928 73.0829 27.4774C71.9687 26.0125 71.2602 24.2774 70.9576 22.272L76.116 21.4614C76.5562 23.2818 77.4572 24.6898 78.819 25.6854C80.1945 26.6809 81.7764 27.1787 83.5647 27.1787C84.6239 27.1787 85.6212 27.008 86.5565 26.6667C87.4919 26.3254 88.2485 25.8276 88.8262 25.1734C89.4177 24.5191 89.7135 23.7156 89.7135 22.7627C89.7135 22.336 89.6447 21.9449 89.5071 21.5894C89.3696 21.2196 89.1632 20.8925 88.8881 20.608C88.6268 20.3236 88.2829 20.0676 87.8564 19.84C87.4438 19.5983 86.9623 19.392 86.4121 19.2214L78.7364 16.8747C78.0762 16.6756 77.3609 16.4125 76.5906 16.0854C75.834 15.744 75.1118 15.2818 74.424 14.6987C73.75 14.1014 73.1929 13.3476 72.7527 12.4374C72.3263 11.5129 72.1131 10.3751 72.1131 9.02401C72.1131 7.04712 72.5945 5.39023 73.5574 4.05334C74.5341 2.70222 75.8409 1.69245 77.4778 1.024C79.1285 0.355555 80.958 0.0284433 82.9663 0.0426662C85.0022 0.0568874 86.8179 0.419555 88.4135 1.13067C90.0092 1.82756 91.3435 2.84445 92.4165 4.18134C93.4894 5.51823 94.246 7.13245 94.6861 9.02401L89.3421 9.98401C89.122 8.90312 88.6955 7.98579 88.0628 7.23201C87.4438 6.46401 86.6803 5.8809 85.7725 5.48267C84.8783 5.08445 83.9223 4.87112 82.9044 4.84267C81.914 4.82845 80.9924 4.9849 80.1395 5.31201C79.3004 5.6249 78.6195 6.08001 78.0968 6.67734C77.5878 7.27468 77.3334 7.97157 77.3334 8.76801C77.3334 9.52179 77.5535 10.1405 77.9936 10.624C78.4338 11.0933 78.9772 11.4702 79.6237 11.7547C80.284 12.0249 80.9511 12.2525 81.6251 12.4374L86.9486 13.9734C87.6776 14.1725 88.4961 14.4427 89.404 14.784C90.3118 15.1254 91.1853 15.6018 92.0244 16.2134C92.8635 16.8249 93.5513 17.6285 94.0878 18.624C94.638 19.6196 94.9131 20.8854 94.9131 22.4214C94.9131 24.0143 94.5898 25.4151 93.9433 26.624C93.3106 27.8187 92.4508 28.8143 91.3641 29.6107C90.2775 30.4072 89.0326 31.0045 87.6295 31.4027C86.2402 31.8009 84.7821 32 83.2552 32Z" fill="white"/>
<path d="M105.259 31.36L95.8909 0.64H101.008L108.849 26.368L116.793 0.64H121.91L112.542 31.36H105.259Z" fill="white"/>
<path d="M125.01 31.36V0.64H144.199V5.46134H129.983V13.0347H141.723V17.856H129.983V26.5387H144.199V31.36H125.01Z" fill="white"/>
<path d="M156.289 31.36V5.46134H146.674V0.64H170.877V5.46134H161.261V31.36H156.289Z" fill="white"/>
<path d="M170.89 31.36V26.0907H175.987V31.36H170.89Z" fill="white"/>
<path d="M182.598 31.36V0.64H194.875C195.164 0.64 195.536 0.654222 195.989 0.682667C196.443 0.696889 196.863 0.739556 197.248 0.810668C198.968 1.08089 200.384 1.67111 201.499 2.58134C202.627 3.49156 203.459 4.64356 203.995 6.03734C204.546 7.4169 204.821 8.9529 204.821 10.6453C204.821 12.3236 204.546 13.8596 203.995 15.2534C203.445 16.6329 202.606 17.7778 201.478 18.688C200.364 19.5983 198.954 20.1885 197.248 20.4587C196.863 20.5156 196.437 20.5583 195.969 20.5867C195.515 20.6151 195.15 20.6294 194.875 20.6294H187.571V31.36H182.598ZM187.571 15.8294H194.669C194.944 15.8294 195.254 15.8151 195.597 15.7867C195.941 15.7582 196.258 15.7014 196.547 15.616C197.372 15.4027 198.018 15.0258 198.486 14.4854C198.968 13.9449 199.305 13.3334 199.497 12.6507C199.704 11.968 199.807 11.2996 199.807 10.6453C199.807 9.99113 199.704 9.32268 199.497 8.64001C199.305 7.94312 198.968 7.32445 198.486 6.78401C198.018 6.24356 197.372 5.86667 196.547 5.65334C196.258 5.56801 195.941 5.51823 195.597 5.50401C195.254 5.47556 194.944 5.46134 194.669 5.46134H187.571V15.8294Z" fill="white"/>
<path d="M208.954 31.36V0.64H221.231C221.52 0.64 221.892 0.654222 222.346 0.682667C222.799 0.696889 223.219 0.739556 223.604 0.810668C225.324 1.08089 226.74 1.67111 227.855 2.58134C228.983 3.49156 229.815 4.64356 230.351 6.03734C230.902 7.4169 231.177 8.9529 231.177 10.6453C231.177 13.1485 230.565 15.3031 229.34 17.1094C228.116 18.9014 226.238 20.0107 223.707 20.4374L221.582 20.6294H213.927V31.36H208.954ZM226.018 31.36L220.158 18.8587L225.214 17.7067L231.651 31.36H226.018ZM213.927 15.8294H221.025C221.3 15.8294 221.61 15.8151 221.954 15.7867C222.297 15.7582 222.614 15.7014 222.903 15.616C223.728 15.4027 224.375 15.0258 224.842 14.4854C225.324 13.9449 225.661 13.3334 225.853 12.6507C226.06 11.968 226.163 11.2996 226.163 10.6453C226.163 9.99113 226.06 9.32268 225.853 8.64001C225.661 7.94312 225.324 7.32445 224.842 6.78401C224.375 6.24356 223.728 5.86667 222.903 5.65334C222.614 5.56801 222.297 5.51823 221.954 5.50401C221.61 5.47556 221.3 5.46134 221.025 5.46134H213.927V15.8294Z" fill="white"/>
<path d="M248.763 32C245.792 32 243.247 31.3316 241.128 29.9947C239.01 28.6436 237.38 26.7663 236.238 24.3627C235.11 21.9591 234.546 19.1716 234.546 16C234.546 12.8285 235.11 10.0409 236.238 7.63734C237.38 5.23379 239.01 3.36356 241.128 2.02667C243.247 0.675556 245.792 0 248.763 0C251.734 0 254.279 0.675556 256.397 2.02667C258.529 3.36356 260.159 5.23379 261.287 7.63734C262.429 10.0409 263 12.8285 263 16C263 19.1716 262.429 21.9591 261.287 24.3627C260.159 26.7663 258.529 28.6436 256.397 29.9947C254.279 31.3316 251.734 32 248.763 32ZM248.763 27.1574C250.757 27.1716 252.415 26.7165 253.736 25.792C255.07 24.8676 256.067 23.5663 256.727 21.888C257.401 20.2098 257.738 18.2471 257.738 16C257.738 13.7529 257.401 11.8045 256.727 10.1547C256.067 8.49068 255.07 7.19646 253.736 6.27201C252.415 5.34756 250.757 4.87112 248.763 4.84267C246.768 4.82845 245.111 5.28356 243.79 6.20801C242.47 7.13245 241.472 8.43379 240.798 10.112C240.138 11.7902 239.808 13.7529 239.808 16C239.808 18.2471 240.138 20.2027 240.798 21.8667C241.459 23.5165 242.449 24.8036 243.77 25.728C245.104 26.6525 246.768 27.1289 248.763 27.1574Z" fill="white"/>
<g opacity="0.4">
<path d="M0 54.2846V43.994H8.2513V54.2846H6.9446V45.2017H1.3067V54.2846H0Z" fill="white"/>
<path d="M14.6548 54.499C13.6026 54.499 12.7095 54.2727 11.9754 53.8201C11.2413 53.3675 10.6809 52.7386 10.2943 51.9335C9.91255 51.1283 9.72168 50.1969 9.72168 49.1393C9.72168 48.0816 9.91255 47.1502 10.2943 46.3451C10.6809 45.5399 11.2413 44.9111 11.9754 44.4585C12.7095 44.0059 13.6026 43.7796 14.6548 43.7796C15.712 43.7796 16.6076 44.0059 17.3417 44.4585C18.0758 44.9111 18.6337 45.5399 19.0154 46.3451C19.3971 47.1502 19.588 48.0816 19.588 49.1393C19.588 50.1969 19.3971 51.1283 19.0154 51.9335C18.6337 52.7386 18.0758 53.3675 17.3417 53.8201C16.6076 54.2727 15.712 54.499 14.6548 54.499ZM14.6548 53.2842C15.4428 53.2889 16.0986 53.1174 16.6222 52.7696C17.1508 52.4171 17.5448 51.9287 17.8041 51.3046C18.0684 50.6805 18.2006 49.9587 18.2006 49.1393C18.2006 48.3151 18.0684 47.5933 17.8041 46.974C17.5448 46.3546 17.1508 45.8711 16.6222 45.5233C16.0986 45.1755 15.4428 44.9992 14.6548 44.9944C13.8669 44.9897 13.2111 45.1612 12.6875 45.509C12.1687 45.8568 11.7772 46.3427 11.5129 46.9668C11.2486 47.5909 11.114 48.3151 11.1091 49.1393C11.1042 49.9587 11.2339 50.6781 11.4982 51.2975C11.7625 51.9168 12.1565 52.4028 12.6801 52.7553C13.2087 53.1031 13.8669 53.2794 14.6548 53.2842Z" fill="white"/>
<path d="M29.2183 54.2846H27.8969V46.2379L22.3838 54.2846H21.0624V43.994H22.3838V52.0335L27.8969 43.994H29.2183V54.2846Z" fill="white"/>
<path d="M35.6169 54.499C34.5647 54.499 33.6715 54.2727 32.9374 53.8201C32.2033 53.3675 31.6429 52.7386 31.2563 51.9335C30.8746 51.1283 30.6837 50.1969 30.6837 49.1393C30.6837 48.0816 30.8746 47.1502 31.2563 46.3451C31.6429 45.5399 32.2033 44.9111 32.9374 44.4585C33.6715 44.0059 34.5647 43.7796 35.6169 43.7796C36.8404 43.7796 37.8461 44.0821 38.634 44.6871C39.4269 45.2922 39.9725 46.1069 40.2711 47.1312L38.9424 47.4742C38.727 46.7072 38.3428 46.1021 37.7898 45.659C37.2368 45.216 36.5125 44.9944 35.6169 44.9944C34.8289 44.9944 34.1731 45.1683 33.6495 45.5161C33.1258 45.8639 32.7319 46.3499 32.4676 46.974C32.2033 47.5933 32.0687 48.3151 32.0638 49.1393C32.0589 49.9587 32.1886 50.6805 32.4529 51.3046C32.7172 51.924 33.1136 52.4099 33.6421 52.7625C34.1707 53.1103 34.8289 53.2842 35.6169 53.2842C36.5125 53.2842 37.2368 53.0626 37.7898 52.6195C38.3428 52.1717 38.727 51.5667 38.9424 50.8044L40.2711 51.1474C39.9725 52.1669 39.4269 52.9816 38.634 53.5914C37.8461 54.1965 36.8404 54.499 35.6169 54.499Z" fill="white"/>
<path d="M41.8811 54.2846V43.994H43.1878V48.8249L47.8126 43.994H49.457L44.656 48.9892L49.8314 54.2846H48.1429L43.1878 49.2536V54.2846H41.8811Z" fill="white"/>
<path d="M54.6863 54.499C53.6341 54.499 52.7409 54.2727 52.0068 53.8201C51.2727 53.3675 50.7124 52.7386 50.3258 51.9335C49.944 51.1283 49.7532 50.1969 49.7532 49.1393C49.7532 48.0816 49.944 47.1502 50.3258 46.3451C50.7124 45.5399 51.2727 44.9111 52.0068 44.4585C52.7409 44.0059 53.6341 43.7796 54.6863 43.7796C55.7434 43.7796 56.639 44.0059 57.3731 44.4585C58.1072 44.9111 58.6651 45.5399 59.0469 46.3451C59.4286 47.1502 59.6195 48.0816 59.6195 49.1393C59.6195 50.1969 59.4286 51.1283 59.0469 51.9335C58.6651 52.7386 58.1072 53.3675 57.3731 53.8201C56.639 54.2727 55.7434 54.499 54.6863 54.499ZM54.6863 53.2842C55.4742 53.2889 56.13 53.1174 56.6537 52.7696C57.1823 52.4171 57.5762 51.9287 57.8356 51.3046C58.0999 50.6805 58.232 49.9587 58.232 49.1393C58.232 48.3151 58.0999 47.5933 57.8356 46.974C57.5762 46.3546 57.1823 45.8711 56.6537 45.5233C56.13 45.1755 55.4742 44.9992 54.6863 44.9944C53.8984 44.9897 53.2426 45.1612 52.7189 45.509C52.2002 45.8568 51.8086 46.3427 51.5444 46.9668C51.2801 47.5909 51.1455 48.3151 51.1406 49.1393C51.1357 49.9587 51.2654 50.6781 51.5297 51.2975C51.794 51.9168 52.1879 52.4028 52.7116 52.7553C53.2401 53.1031 53.8984 53.2794 54.6863 53.2842Z" fill="white"/>
<path d="M61.0939 54.2846V43.994H65.2122C65.8435 43.994 66.3819 44.1202 66.8272 44.3727C67.2775 44.6252 67.62 44.9587 67.8549 45.3732C68.0948 45.7829 68.2147 46.226 68.2147 46.7024C68.2147 47.2598 68.0678 47.7481 67.7742 48.1674C67.4806 48.5866 67.0841 48.8749 66.585 49.0321L66.5703 48.6819C67.2505 48.8582 67.7791 49.1822 68.1559 49.6538C68.5328 50.1255 68.7212 50.6877 68.7212 51.3404C68.7212 51.9406 68.5939 52.4599 68.3395 52.8982C68.0899 53.3366 67.7277 53.6772 67.253 53.9202C66.7832 54.1631 66.2252 54.2846 65.5792 54.2846H61.0939ZM62.4153 53.0698H65.3296C65.7212 53.0698 66.0711 53.0007 66.3794 52.8625C66.6877 52.7196 66.93 52.5195 67.1062 52.2622C67.2872 52.005 67.3778 51.6953 67.3778 51.3332C67.3778 50.9854 67.297 50.6734 67.1355 50.397C66.9789 50.1207 66.7562 49.9016 66.4675 49.7396C66.1836 49.5728 65.8533 49.4895 65.4765 49.4895H62.4153V53.0698ZM62.4153 48.2889H65.1975C65.5107 48.2889 65.7921 48.2246 66.0417 48.0959C66.2962 47.9625 66.4969 47.7767 66.6437 47.5385C66.7954 47.3003 66.8712 47.0216 66.8712 46.7024C66.8712 46.2593 66.7171 45.8973 66.4088 45.6162C66.1004 45.3351 65.6967 45.1945 65.1975 45.1945H62.4153V48.2889Z" fill="white"/>
<path d="M74.53 54.499C73.4778 54.499 72.5846 54.2727 71.8505 53.8201C71.1164 53.3675 70.5561 52.7386 70.1694 51.9335C69.7877 51.1283 69.5968 50.1969 69.5968 49.1393C69.5968 48.0816 69.7877 47.1502 70.1694 46.3451C70.5561 45.5399 71.1164 44.9111 71.8505 44.4585C72.5846 44.0059 73.4778 43.7796 74.53 43.7796C75.5871 43.7796 76.4827 44.0059 77.2168 44.4585C77.9509 44.9111 78.5088 45.5399 78.8906 46.3451C79.2723 47.1502 79.4632 48.0816 79.4632 49.1393C79.4632 50.1969 79.2723 51.1283 78.8906 51.9335C78.5088 52.7386 77.9509 53.3675 77.2168 53.8201C76.4827 54.2727 75.5871 54.499 74.53 54.499ZM74.53 53.2842C75.3179 53.2889 75.9737 53.1174 76.4974 52.7696C77.0259 52.4171 77.4199 51.9287 77.6793 51.3046C77.9436 50.6805 78.0757 49.9587 78.0757 49.1393C78.0757 48.3151 77.9436 47.5933 77.6793 46.974C77.4199 46.3546 77.0259 45.8711 76.4974 45.5233C75.9737 45.1755 75.3179 44.9992 74.53 44.9944C73.7421 44.9897 73.0863 45.1612 72.5626 45.509C72.0438 45.8568 71.6523 46.3427 71.388 46.9668C71.1238 47.5909 70.9892 48.3151 70.9843 49.1393C70.9794 49.9587 71.1091 50.6781 71.3734 51.2975C71.6376 51.9168 72.0316 52.4028 72.5553 52.7553C73.0838 53.1031 73.7421 53.2794 74.53 53.2842Z" fill="white"/>
<path d="M80.9376 54.2846V43.994H87.6179V45.2017H82.2443V48.4247H86.737V49.6324H82.2443V53.0769H87.6179V54.2846H80.9376Z" fill="white"/>
<path d="M92.3219 54.2846V43.994H100.573V54.2846H99.2665V45.2017H93.6286V54.2846H92.3219Z" fill="white"/>
<path d="M102.631 54.2846V43.994H106.808C106.911 43.994 107.033 43.9987 107.175 44.0082C107.317 44.013 107.454 44.0273 107.586 44.0511C108.159 44.1369 108.638 44.3274 109.025 44.6228C109.416 44.9182 109.71 45.2922 109.906 45.7448C110.102 46.1926 110.199 46.6905 110.199 47.2384C110.199 47.7815 110.099 48.2794 109.898 48.732C109.703 49.1798 109.409 49.5538 109.018 49.8539C108.631 50.1493 108.154 50.3399 107.586 50.4256C107.454 50.4447 107.317 50.459 107.175 50.4685C107.033 50.478 106.911 50.4828 106.808 50.4828H103.938V54.2846H102.631ZM103.938 49.2751H106.764C106.857 49.2751 106.962 49.2703 107.079 49.2608C107.202 49.2513 107.317 49.2346 107.425 49.2108C107.762 49.1345 108.036 48.9964 108.247 48.7963C108.462 48.5914 108.619 48.3532 108.717 48.0816C108.814 47.8053 108.863 47.5242 108.863 47.2384C108.863 46.9525 108.814 46.6738 108.717 46.4023C108.619 46.1259 108.462 45.8853 108.247 45.6805C108.036 45.4756 107.762 45.3375 107.425 45.266C107.317 45.2374 107.202 45.2207 107.079 45.216C106.962 45.2064 106.857 45.2017 106.764 45.2017H103.938V49.2751Z" fill="white"/>
<path d="M116.01 54.499C114.957 54.499 114.064 54.2727 113.33 53.8201C112.596 53.3675 112.036 52.7386 111.649 51.9335C111.267 51.1283 111.076 50.1969 111.076 49.1393C111.076 48.0816 111.267 47.1502 111.649 46.3451C112.036 45.5399 112.596 44.9111 113.33 44.4585C114.064 44.0059 114.957 43.7796 116.01 43.7796C117.067 43.7796 117.962 44.0059 118.696 44.4585C119.431 44.9111 119.988 45.5399 120.37 46.3451C120.752 47.1502 120.943 48.0816 120.943 49.1393C120.943 50.1969 120.752 51.1283 120.37 51.9335C119.988 52.7386 119.431 53.3675 118.696 53.8201C117.962 54.2727 117.067 54.499 116.01 54.499ZM116.01 53.2842C116.798 53.2889 117.453 53.1174 117.977 52.7696C118.506 52.4171 118.9 51.9287 119.159 51.3046C119.423 50.6805 119.555 49.9587 119.555 49.1393C119.555 48.3151 119.423 47.5933 119.159 46.974C118.9 46.3546 118.506 45.8711 117.977 45.5233C117.453 45.1755 116.798 44.9992 116.01 44.9944C115.222 44.9897 114.566 45.1612 114.042 45.509C113.523 45.8568 113.132 46.3427 112.868 46.9668C112.603 47.5909 112.469 48.3151 112.464 49.1393C112.459 49.9587 112.589 50.6781 112.853 51.2975C113.117 51.9168 113.511 52.4028 114.035 52.7553C114.563 53.1031 115.222 53.2794 116.01 53.2842Z" fill="white"/>
<path d="M121.617 55.9997V53.0769C122.003 53.0769 122.316 52.9816 122.556 52.7911C122.801 52.6005 122.992 52.3432 123.129 52.0193C123.266 51.6905 123.369 51.3213 123.437 50.9116C123.51 50.5019 123.569 50.0778 123.613 49.6395C123.677 49.0202 123.728 48.4199 123.767 47.8387C123.811 47.2574 123.851 46.6548 123.885 46.0307C123.919 45.4065 123.958 44.7253 124.002 43.9868L130.646 43.994V53.0769H131.417V55.9997H130.11V54.2846H122.923V55.9997H121.617ZM123.907 53.0769H129.339V45.2017L125.214 45.1945C125.184 45.7472 125.155 46.2784 125.126 46.7882C125.101 47.2932 125.069 47.8029 125.03 48.3175C124.991 48.832 124.942 49.3775 124.883 49.954C124.829 50.4876 124.768 50.9497 124.7 51.3404C124.636 51.7263 124.543 52.0598 124.421 52.3408C124.298 52.6172 124.127 52.8625 123.907 53.0769Z" fill="white"/>
<path d="M133.027 54.2846V43.994H137.146C137.777 43.994 138.315 44.1202 138.761 44.3727C139.211 44.6252 139.553 44.9587 139.788 45.3732C140.028 45.7829 140.148 46.226 140.148 46.7024C140.148 47.2598 140.001 47.7481 139.708 48.1674C139.414 48.5866 139.017 48.8749 138.518 49.0321L138.504 48.6819C139.184 48.8582 139.712 49.1822 140.089 49.6538C140.466 50.1255 140.655 50.6877 140.655 51.3404C140.655 51.9406 140.527 52.4599 140.273 52.8982C140.023 53.3366 139.661 53.6772 139.186 53.9202C138.717 54.1631 138.159 54.2846 137.513 54.2846H133.027ZM134.349 53.0698H137.263C137.654 53.0698 138.004 53.0007 138.313 52.8625C138.621 52.7196 138.863 52.5195 139.04 52.2622C139.221 52.005 139.311 51.6953 139.311 51.3332C139.311 50.9854 139.23 50.6734 139.069 50.397C138.912 50.1207 138.69 49.9016 138.401 49.7396C138.117 49.5728 137.787 49.4895 137.41 49.4895H134.349V53.0698ZM134.349 48.2889H137.131C137.444 48.2889 137.725 48.2246 137.975 48.0959C138.23 47.9625 138.43 47.7767 138.577 47.5385C138.729 47.3003 138.805 47.0216 138.805 46.7024C138.805 46.2593 138.65 45.8973 138.342 45.6162C138.034 45.3351 137.63 45.1945 137.131 45.1945H134.349V48.2889Z" fill="white"/>
<path d="M150.273 54.2846H148.952V46.2379L143.439 54.2846H142.117V43.994H143.439V52.0335L148.952 43.994H150.273V54.2846Z" fill="white"/>
<path d="M151.445 54.2846L155.894 48.9892L151.82 43.994H153.427L157.245 48.7534V43.994H158.551V48.7534L162.369 43.994H163.976L159.902 48.9892L164.351 54.2846H162.699L158.551 49.3251V54.2846H157.245V49.3251L153.097 54.2846H151.445Z" fill="white"/>
<path d="M165.531 54.2846V43.994H172.212V45.2017H166.838V48.4247H171.331V49.6324H166.838V53.0769H172.212V54.2846H165.531Z" fill="white"/>
<path d="M173.976 54.2846V43.994H175.283V48.5319H180.848V43.994H182.154V54.2846H180.848V49.7396H175.283V54.2846H173.976Z" fill="white"/>
<path d="M192.369 54.2846H191.048V46.2379L185.535 54.2846H184.214V43.994H185.535V52.0335L191.048 43.994H192.369V54.2846Z" fill="white"/>
<path d="M194.422 54.2846V43.994H201.102V45.2017H195.729V48.4247H200.222V49.6324H195.729V53.0769H201.102V54.2846H194.422Z" fill="white"/>
<path d="M210.152 54.499C209.1 54.499 208.207 54.2727 207.473 53.8201C206.739 53.3675 206.178 52.7386 205.792 51.9335C205.41 51.1283 205.219 50.1969 205.219 49.1393C205.219 48.0816 205.41 47.1502 205.792 46.3451C206.178 45.5399 206.739 44.9111 207.473 44.4585C208.207 44.0059 209.1 43.7796 210.152 43.7796C211.376 43.7796 212.382 44.0821 213.17 44.6871C213.962 45.2922 214.508 46.1069 214.807 47.1312L213.478 47.4742C213.263 46.7072 212.878 46.1021 212.325 45.659C211.772 45.216 211.048 44.9944 210.152 44.9944C209.364 44.9944 208.709 45.1683 208.185 45.5161C207.661 45.8639 207.267 46.3499 207.003 46.974C206.739 47.5933 206.604 48.3151 206.599 49.1393C206.594 49.9587 206.724 50.6805 206.988 51.3046C207.253 51.924 207.649 52.4099 208.178 52.7625C208.706 53.1103 209.364 53.2842 210.152 53.2842C211.048 53.2842 211.772 53.0626 212.325 52.6195C212.878 52.1717 213.263 51.5667 213.478 50.8044L214.807 51.1474C214.508 52.1669 213.962 52.9816 213.17 53.5914C212.382 54.1965 211.376 54.499 210.152 54.499Z" fill="white"/>
<path d="M215.396 54.2846L218.934 43.994H220.755L224.293 54.2846H222.935L219.624 44.7372H220.035L216.754 54.2846H215.396ZM217.099 51.8763V50.6829H222.59V51.8763H217.099Z" fill="white"/>
<path d="M225.607 54.2846V43.994H226.929V52.0335L232.442 43.994H233.763V54.2846H232.442V46.2379L226.929 54.2846H225.607ZM229.74 43.0935C229.368 43.0935 229.031 43.0054 228.727 42.8291C228.429 42.6528 228.189 42.4194 228.008 42.1288C227.827 41.8334 227.736 41.5047 227.736 41.1426H228.793C228.793 41.3951 228.886 41.6119 229.072 41.7929C229.258 41.9739 229.481 42.0645 229.74 42.0645C230.004 42.0645 230.227 41.9739 230.408 41.7929C230.594 41.6119 230.687 41.3951 230.687 41.1426H231.744C231.744 41.5047 231.654 41.8334 231.473 42.1288C231.296 42.4194 231.054 42.6528 230.746 42.8291C230.442 43.0054 230.107 43.0935 229.74 43.0935Z" fill="white"/>
<path d="M238.539 54.2846V45.2017H234.935V43.994H243.45V45.2017H239.846V54.2846H238.539Z" fill="white"/>
<path d="M248.965 54.499C247.913 54.499 247.02 54.2727 246.286 53.8201C245.552 53.3675 244.991 52.7386 244.605 51.9335C244.223 51.1283 244.032 50.1969 244.032 49.1393C244.032 48.0816 244.223 47.1502 244.605 46.3451C244.991 45.5399 245.552 44.9111 246.286 44.4585C247.02 44.0059 247.913 43.7796 248.965 43.7796C250.022 43.7796 250.918 44.0059 251.652 44.4585C252.386 44.9111 252.944 45.5399 253.326 46.3451C253.707 47.1502 253.898 48.0816 253.898 49.1393C253.898 50.1969 253.707 51.1283 253.326 51.9335C252.944 52.7386 252.386 53.3675 251.652 53.8201C250.918 54.2727 250.022 54.499 248.965 54.499ZM248.965 53.2842C249.753 53.2889 250.409 53.1174 250.933 52.7696C251.461 52.4171 251.855 51.9287 252.114 51.3046C252.379 50.6805 252.511 49.9587 252.511 49.1393C252.511 48.3151 252.379 47.5933 252.114 46.974C251.855 46.3546 251.461 45.8711 250.933 45.5233C250.409 45.1755 249.753 44.9992 248.965 44.9944C248.177 44.9897 247.521 45.1612 246.998 45.509C246.479 45.8568 246.087 46.3427 245.823 46.9668C245.559 47.5909 245.424 48.3151 245.419 49.1393C245.415 49.9587 245.544 50.6781 245.808 51.2975C246.073 51.9168 246.467 52.4028 246.99 52.7553C247.519 53.1031 248.177 53.2794 248.965 53.2842Z" fill="white"/>
<path d="M255.373 54.2846V43.994H259.491C260.122 43.994 260.661 44.1202 261.106 44.3727C261.556 44.6252 261.899 44.9587 262.134 45.3732C262.374 45.7829 262.493 46.226 262.493 46.7024C262.493 47.2598 262.347 47.7481 262.053 48.1674C261.759 48.5866 261.363 48.8749 260.864 49.0321L260.849 48.6819C261.529 48.8582 262.058 49.1822 262.435 49.6538C262.812 50.1255 263 50.6877 263 51.3404C263 51.9406 262.873 52.4599 262.618 52.8982C262.369 53.3366 262.007 53.6772 261.532 53.9202C261.062 54.1631 260.504 54.2846 259.858 54.2846H255.373ZM256.694 53.0698H259.608C260 53.0698 260.35 53.0007 260.658 52.8625C260.967 52.7196 261.209 52.5195 261.385 52.2622C261.566 52.005 261.657 51.6953 261.657 51.3332C261.657 50.9854 261.576 50.6734 261.414 50.397C261.258 50.1207 261.035 49.9016 260.746 49.7396C260.462 49.5728 260.132 49.4895 259.755 49.4895H256.694V53.0698ZM256.694 48.2889H259.476C259.79 48.2889 260.071 48.2246 260.321 48.0959C260.575 47.9625 260.776 47.7767 260.922 47.5385C261.074 47.3003 261.15 47.0216 261.15 46.7024C261.15 46.2593 260.996 45.8973 260.688 45.6162C260.379 45.3351 259.975 45.1945 259.476 45.1945H256.694V48.2889Z" fill="white"/>
</g>
</svg>
