<svg width="169" height="36" viewBox="0 0 169 36" fill="none" xmlns="http://www.w3.org/2000/svg">
<path d="M0 20.16V0.411428H7.88898C8.0746 0.411428 8.31326 0.420571 8.60495 0.438856C8.89665 0.448 9.16624 0.475428 9.41374 0.521143C10.5186 0.694856 11.4291 1.07428 12.145 1.65943C12.8699 2.24457 13.4046 2.98514 13.7494 3.88114C14.1029 4.768 14.2797 5.75543 14.2797 6.84343C14.2797 8.45257 13.8864 9.83772 13.0997 10.9989C12.313 12.1509 11.1064 12.864 9.48003 13.1383L8.11438 13.2617H3.19537V20.16H0ZM10.965 20.16L7.19952 12.1234L10.4479 11.3829L14.5847 20.16H10.965ZM3.19537 10.176H7.75639C7.93317 10.176 8.13206 10.1669 8.35303 10.1486C8.57401 10.1303 8.77732 10.0937 8.96294 10.0389C9.49329 9.90172 9.90873 9.65943 10.2093 9.312C10.5186 8.96457 10.7352 8.57143 10.8589 8.13257C10.9915 7.69371 11.0578 7.264 11.0578 6.84343C11.0578 6.42286 10.9915 5.99314 10.8589 5.55429C10.7352 5.10629 10.5186 4.70857 10.2093 4.36114C9.90873 4.01371 9.49329 3.77143 8.96294 3.63429C8.77732 3.57943 8.57401 3.54743 8.35303 3.53829C8.13206 3.52 7.93317 3.51086 7.75639 3.51086H3.19537V10.176Z" fill="#00171F"/>
<path d="M16.1799 20.16L22.1994 0.411428H26.8797L32.8992 20.16H29.611L24.1484 2.44114H24.8644L19.468 20.16H16.1799ZM19.5343 15.8811V12.7954H29.558V15.8811H19.5343Z" fill="#00171F"/>
<path d="M35.0312 11.5749V8.98286H42.9864V11.5749H35.0312Z" fill="#00171F"/>
<path d="M53.4986 20.5714C52.102 20.5714 50.8424 20.32 49.7198 19.8171C48.6061 19.3143 47.6868 18.5966 46.962 17.664C46.246 16.7223 45.7908 15.6069 45.5963 14.3177L48.911 13.7966C49.1939 14.9669 49.7729 15.872 50.6479 16.512C51.5319 17.152 52.5484 17.472 53.6975 17.472C54.3781 17.472 55.0189 17.3623 55.62 17.1429C56.2211 16.9234 56.7072 16.6034 57.0785 16.1829C57.4585 15.7623 57.6486 15.2457 57.6486 14.6331C57.6486 14.3589 57.6044 14.1074 57.516 13.8789C57.4276 13.6411 57.295 13.4309 57.1182 13.248C56.9503 13.0651 56.7293 12.9006 56.4553 12.7543C56.1901 12.5989 55.8807 12.4663 55.5272 12.3566L50.5949 10.848C50.1706 10.72 49.711 10.5509 49.216 10.3406C48.7298 10.1211 48.2658 9.824 47.8238 9.44914C47.3907 9.06514 47.0327 8.58057 46.7499 7.99543C46.4758 7.40114 46.3388 6.66971 46.3388 5.80114C46.3388 4.53028 46.6482 3.46514 47.2669 2.60571C47.8945 1.73714 48.7343 1.088 49.7861 0.658285C50.8468 0.228571 52.0224 0.0182849 53.313 0.0274282C54.6212 0.0365704 55.7879 0.269713 56.8133 0.726857C57.8386 1.17486 58.696 1.82857 59.3855 2.688C60.0749 3.54743 60.5611 4.58514 60.8439 5.80114L57.4099 6.41828C57.2685 5.72343 56.9945 5.13371 56.5879 4.64914C56.1901 4.15543 55.6995 3.78057 55.1162 3.52457C54.5416 3.26857 53.9273 3.13143 53.2732 3.11314C52.6368 3.104 52.0445 3.20457 51.4965 3.41486C50.9573 3.616 50.5198 3.90857 50.1839 4.29257C49.8568 4.67657 49.6933 5.12457 49.6933 5.63657C49.6933 6.12114 49.8347 6.51886 50.1176 6.82971C50.4004 7.13143 50.7496 7.37371 51.165 7.55657C51.5893 7.73029 52.018 7.87657 52.4511 7.99543L55.8719 8.98286C56.3404 9.11086 56.8663 9.28457 57.4497 9.504C58.0331 9.72343 58.5944 10.0297 59.1336 10.4229C59.6728 10.816 60.1147 11.3326 60.4594 11.9726C60.813 12.6126 60.9898 13.4263 60.9898 14.4137C60.9898 15.4377 60.7821 16.3383 60.3666 17.1154C59.96 17.8834 59.4076 18.5234 58.7093 19.0354C58.011 19.5474 57.211 19.9314 56.3094 20.1874C55.4167 20.4434 54.4797 20.5714 53.4986 20.5714Z" fill="#00171F"/>
<path d="M67.6376 20.16L61.6181 0.411428H64.9063L69.9446 16.9509L75.0493 0.411428H78.3375L72.318 20.16H67.6376Z" fill="#00171F"/>
<path d="M80.3296 20.16V0.411428H92.6603V3.51086H83.525V8.37943H91.0692V11.4789H83.525V17.0606H92.6603V20.16H80.3296Z" fill="#00171F"/>
<path d="M100.429 20.16V3.51086H94.2503V0.411428H109.803V3.51086H103.624V20.16H100.429Z" fill="#00171F"/>
<path d="M109.812 20.16V16.7726H113.087V20.16H109.812Z" fill="#00171F"/>
<path d="M117.335 20.16V0.411428H125.224C125.41 0.411428 125.648 0.420571 125.94 0.438856C126.232 0.448 126.501 0.475428 126.749 0.521143C127.854 0.694856 128.764 1.07428 129.48 1.65943C130.205 2.24457 130.74 2.98514 131.084 3.88114C131.438 4.768 131.615 5.75543 131.615 6.84343C131.615 7.92229 131.438 8.90971 131.084 9.80571C130.731 10.6926 130.192 11.4286 129.467 12.0137C128.751 12.5989 127.845 12.9783 126.749 13.152C126.501 13.1886 126.227 13.216 125.927 13.2343C125.635 13.2526 125.401 13.2617 125.224 13.2617H120.53V20.16H117.335ZM120.53 10.176H125.091C125.268 10.176 125.467 10.1669 125.688 10.1486C125.909 10.1303 126.112 10.0937 126.298 10.0389C126.828 9.90172 127.244 9.65943 127.544 9.312C127.854 8.96457 128.07 8.57143 128.194 8.13257C128.327 7.69371 128.393 7.264 128.393 6.84343C128.393 6.42286 128.327 5.99314 128.194 5.55429C128.07 5.10629 127.854 4.70857 127.544 4.36114C127.244 4.01371 126.828 3.77143 126.298 3.63429C126.112 3.57943 125.909 3.54743 125.688 3.53829C125.467 3.52 125.268 3.51086 125.091 3.51086H120.53V10.176Z" fill="#00171F"/>
<path d="M134.271 20.16V0.411428H142.16C142.346 0.411428 142.584 0.420571 142.876 0.438856C143.168 0.448 143.437 0.475428 143.685 0.521143C144.79 0.694856 145.7 1.07428 146.416 1.65943C147.141 2.24457 147.676 2.98514 148.02 3.88114C148.374 4.768 148.551 5.75543 148.551 6.84343C148.551 8.45257 148.157 9.83772 147.371 10.9989C146.584 12.1509 145.378 12.864 143.751 13.1383L142.385 13.2617H137.466V20.16H134.271ZM145.236 20.16L141.471 12.1234L144.719 11.3829L148.856 20.16H145.236ZM137.466 10.176H142.027C142.204 10.176 142.403 10.1669 142.624 10.1486C142.845 10.1303 143.048 10.0937 143.234 10.0389C143.764 9.90172 144.18 9.65943 144.48 9.312C144.79 8.96457 145.006 8.57143 145.13 8.13257C145.263 7.69371 145.329 7.264 145.329 6.84343C145.329 6.42286 145.263 5.99314 145.13 5.55429C145.006 5.10629 144.79 4.70857 144.48 4.36114C144.18 4.01371 143.764 3.77143 143.234 3.63429C143.048 3.57943 142.845 3.54743 142.624 3.53829C142.403 3.52 142.204 3.51086 142.027 3.51086H137.466V10.176Z" fill="#00171F"/>
<path d="M159.851 20.5714C157.942 20.5714 156.307 20.1417 154.946 19.2823C153.584 18.4137 152.537 17.2069 151.803 15.6617C151.079 14.1166 150.716 12.3246 150.716 10.2857C150.716 8.24686 151.079 6.45486 151.803 4.90971C152.537 3.36457 153.584 2.16229 154.946 1.30286C156.307 0.434285 157.942 0 159.851 0C161.761 0 163.396 0.434285 164.757 1.30286C166.127 2.16229 167.175 3.36457 167.9 4.90971C168.633 6.45486 169 8.24686 169 10.2857C169 12.3246 168.633 14.1166 167.9 15.6617C167.175 17.2069 166.127 18.4137 164.757 19.2823C163.396 20.1417 161.761 20.5714 159.851 20.5714ZM159.851 17.4583C161.133 17.4674 162.198 17.1749 163.047 16.5806C163.904 15.9863 164.545 15.1497 164.969 14.0709C165.402 12.992 165.619 11.7303 165.619 10.2857C165.619 8.84114 165.402 7.58857 164.969 6.528C164.545 5.45829 163.904 4.62629 163.047 4.032C162.198 3.43771 161.133 3.13143 159.851 3.11314C158.57 3.104 157.505 3.39657 156.656 3.99086C155.808 4.58514 155.167 5.42171 154.734 6.50057C154.309 7.57943 154.097 8.84114 154.097 10.2857C154.097 11.7303 154.309 12.9874 154.734 14.0571C155.158 15.1177 155.794 15.9451 156.643 16.5394C157.5 17.1337 158.57 17.44 159.851 17.4583Z" fill="#00171F"/>
<g opacity="0.4">
<path d="M0 34.8977V28.2822H5.30217V34.8977H4.4625V29.0586H0.839667V34.8977H0Z" fill="#00171F"/>
<path d="M9.41699 35.0355C8.74086 35.0355 8.16693 34.89 7.6952 34.5991C7.22348 34.3081 6.8634 33.9038 6.61496 33.3862C6.36966 32.8686 6.24701 32.2699 6.24701 31.59C6.24701 30.91 6.36966 30.3113 6.61496 29.7937C6.8634 29.2761 7.22348 28.8718 7.6952 28.5809C8.16693 28.2899 8.74086 28.1444 9.41699 28.1444C10.0963 28.1444 10.6718 28.2899 11.1435 28.5809C11.6152 28.8718 11.9737 29.2761 12.219 29.7937C12.4643 30.3113 12.587 30.91 12.587 31.59C12.587 32.2699 12.4643 32.8686 12.219 33.3862C11.9737 33.9038 11.6152 34.3081 11.1435 34.5991C10.6718 34.89 10.0963 35.0355 9.41699 35.0355ZM9.41699 34.2545C9.92331 34.2576 10.3447 34.1473 10.6812 33.9237C11.0208 33.6971 11.274 33.3832 11.4407 32.982C11.6105 32.5807 11.6954 32.1167 11.6954 31.59C11.6954 31.0601 11.6105 30.5961 11.4407 30.198C11.274 29.7998 11.0208 29.4889 10.6812 29.2654C10.3447 29.0418 9.92331 28.9285 9.41699 28.9254C8.91068 28.9223 8.48927 29.0326 8.15277 29.2562C7.81942 29.4798 7.56784 29.7922 7.39802 30.1934C7.2282 30.5946 7.14171 31.0601 7.13857 31.59C7.13542 32.1167 7.21876 32.5792 7.38858 32.9774C7.5584 33.3755 7.81156 33.6879 8.14806 33.9145C8.4877 34.1381 8.91068 34.2514 9.41699 34.2545Z" fill="#00171F"/>
<path d="M18.7752 34.8977H17.9261V29.7248L14.3835 34.8977H13.5344V28.2822H14.3835V33.4505L17.9261 28.2822H18.7752V34.8977Z" fill="#00171F"/>
<path d="M22.8869 35.0355C22.2108 35.0355 21.6368 34.89 21.1651 34.5991C20.6934 34.3081 20.3333 33.9038 20.0849 33.3862C19.8396 32.8686 19.7169 32.2699 19.7169 31.59C19.7169 30.91 19.8396 30.3113 20.0849 29.7937C20.3333 29.2761 20.6934 28.8718 21.1651 28.5809C21.6368 28.2899 22.2108 28.1444 22.8869 28.1444C23.6731 28.1444 24.3194 28.3389 24.8257 28.7279C25.3351 29.1168 25.6858 29.6405 25.8776 30.299L25.0238 30.5195C24.8854 30.0264 24.6386 29.6375 24.2832 29.3527C23.9278 29.0678 23.4624 28.9254 22.8869 28.9254C22.3806 28.9254 21.9592 29.0372 21.6227 29.2608C21.2862 29.4844 21.033 29.7967 20.8632 30.198C20.6934 30.5961 20.6069 31.0601 20.6038 31.59C20.6006 32.1167 20.6839 32.5807 20.8538 32.982C21.0236 33.3801 21.2783 33.6925 21.618 33.9191C21.9576 34.1427 22.3806 34.2545 22.8869 34.2545C23.4624 34.2545 23.9278 34.1121 24.2832 33.8273C24.6386 33.5394 24.8854 33.1504 25.0238 32.6604L25.8776 32.8809C25.6858 33.5363 25.3351 34.06 24.8257 34.452C24.3194 34.841 23.6731 35.0355 22.8869 35.0355Z" fill="#00171F"/>
<path d="M26.9122 34.8977V28.2822H27.7518V31.3878L30.7237 28.2822H31.7803L28.6953 31.4935L32.0209 34.8977H30.936L27.7518 31.6635V34.8977H26.9122Z" fill="#00171F"/>
<path d="M35.1406 35.0355C34.4645 35.0355 33.8906 34.89 33.4188 34.5991C32.9471 34.3081 32.587 33.9038 32.3386 33.3862C32.0933 32.8686 31.9707 32.2699 31.9707 31.59C31.9707 30.91 32.0933 30.3113 32.3386 29.7937C32.587 29.2761 32.9471 28.8718 33.4188 28.5809C33.8906 28.2899 34.4645 28.1444 35.1406 28.1444C35.8199 28.1444 36.3954 28.2899 36.8671 28.5809C37.3389 28.8718 37.6974 29.2761 37.9427 29.7937C38.188 30.3113 38.3106 30.91 38.3106 31.59C38.3106 32.2699 38.188 32.8686 37.9427 33.3862C37.6974 33.9038 37.3389 34.3081 36.8671 34.5991C36.3954 34.89 35.8199 35.0355 35.1406 35.0355ZM35.1406 34.2545C35.6469 34.2576 36.0684 34.1473 36.4049 33.9237C36.7445 33.6971 36.9977 33.3832 37.1643 32.982C37.3341 32.5807 37.4191 32.1167 37.4191 31.59C37.4191 31.0601 37.3341 30.5961 37.1643 30.198C36.9977 29.7998 36.7445 29.4889 36.4049 29.2654C36.0684 29.0418 35.6469 28.9285 35.1406 28.9254C34.6343 28.9223 34.2129 29.0326 33.8764 29.2562C33.5431 29.4798 33.2915 29.7922 33.1217 30.1934C32.9518 30.5946 32.8654 31.0601 32.8622 31.59C32.8591 32.1167 32.9424 32.5792 33.1122 32.9774C33.282 33.3755 33.5352 33.6879 33.8717 33.9145C34.2113 34.1381 34.6343 34.2514 35.1406 34.2545Z" fill="#00171F"/>
<path d="M39.258 34.8977V28.2822H41.9044C42.3101 28.2822 42.656 28.3634 42.9422 28.5257C43.2315 28.6881 43.4517 28.9024 43.6026 29.1689C43.7567 29.4323 43.8338 29.7171 43.8338 30.0234C43.8338 30.3817 43.7394 30.6956 43.5507 30.9652C43.362 31.2347 43.1073 31.42 42.7865 31.521L42.7771 31.2959C43.2142 31.4093 43.5539 31.6175 43.796 31.9207C44.0382 32.2239 44.1592 32.5853 44.1592 33.0049C44.1592 33.3908 44.0775 33.7247 43.9139 34.0064C43.7536 34.2882 43.5208 34.5072 43.2158 34.6634C42.9139 34.8196 42.5554 34.8977 42.1403 34.8977H39.258ZM40.1071 34.1167H41.9799C42.2315 34.1167 42.4563 34.0723 42.6544 33.9835C42.8526 33.8916 43.0082 33.7629 43.1215 33.5976C43.2378 33.4322 43.296 33.2331 43.296 33.0003C43.296 32.7768 43.2441 32.5761 43.1403 32.3985C43.0397 32.2209 42.8966 32.08 42.7111 31.9759C42.5287 31.8687 42.3164 31.8151 42.0742 31.8151H40.1071V34.1167ZM40.1071 31.0433H41.895C42.0962 31.0433 42.2771 31.0019 42.4375 30.9192C42.601 30.8335 42.7299 30.714 42.8243 30.5609C42.9218 30.4078 42.9705 30.2286 42.9705 30.0234C42.9705 29.7386 42.8714 29.5058 42.6733 29.3251C42.4752 29.1444 42.2157 29.054 41.895 29.054H40.1071V31.0433Z" fill="#00171F"/>
<path d="M47.8919 35.0355C47.2158 35.0355 46.6418 34.89 46.1701 34.5991C45.6984 34.3081 45.3383 33.9038 45.0899 33.3862C44.8446 32.8686 44.7219 32.2699 44.7219 31.59C44.7219 30.91 44.8446 30.3113 45.0899 29.7937C45.3383 29.2761 45.6984 28.8718 46.1701 28.5809C46.6418 28.2899 47.2158 28.1444 47.8919 28.1444C48.5712 28.1444 49.1467 28.2899 49.6184 28.5809C50.0901 28.8718 50.4486 29.2761 50.6939 29.7937C50.9392 30.3113 51.0619 30.91 51.0619 31.59C51.0619 32.2699 50.9392 32.8686 50.6939 33.3862C50.4486 33.9038 50.0901 34.3081 49.6184 34.5991C49.1467 34.89 48.5712 35.0355 47.8919 35.0355ZM47.8919 34.2545C48.3982 34.2576 48.8196 34.1473 49.1561 33.9237C49.4958 33.6971 49.7489 33.3832 49.9156 32.982C50.0854 32.5807 50.1703 32.1167 50.1703 31.59C50.1703 31.0601 50.0854 30.5961 49.9156 30.198C49.7489 29.7998 49.4958 29.4889 49.1561 29.2654C48.8196 29.0418 48.3982 28.9285 47.8919 28.9254C47.3856 28.9223 46.9642 29.0326 46.6277 29.2562C46.2943 29.4798 46.0427 29.7922 45.8729 30.1934C45.7031 30.5946 45.6166 31.0601 45.6135 31.59C45.6103 32.1167 45.6937 32.5792 45.8635 32.9774C46.0333 33.3755 46.2865 33.6879 46.623 33.9145C46.9626 34.1381 47.3856 34.2514 47.8919 34.2545Z" fill="#00171F"/>
<path d="M52.0093 34.8977V28.2822H56.302V29.0586H52.849V31.1306H55.7359V31.9069H52.849V34.1213H56.302V34.8977H52.0093Z" fill="#00171F"/>
<path d="M59.3247 34.8977V28.2822H64.6269V34.8977H63.7872V29.0586H60.1644V34.8977H59.3247Z" fill="#00171F"/>
<path d="M65.9491 34.8977V28.2822H68.6332C68.6992 28.2822 68.7779 28.2853 68.869 28.2914C68.9603 28.2945 69.0483 28.3037 69.1332 28.319C69.5012 28.3741 69.8093 28.4966 70.0578 28.6865C70.3094 28.8764 70.4981 29.1168 70.6239 29.4078C70.7496 29.6957 70.8125 30.0157 70.8125 30.3679C70.8125 30.7171 70.7481 31.0371 70.6191 31.3281C70.4933 31.616 70.3047 31.8564 70.0531 32.0494C69.8046 32.2392 69.498 32.3618 69.1332 32.4169C69.0483 32.4291 68.9603 32.4383 68.869 32.4444C68.7779 32.4506 68.6992 32.4536 68.6332 32.4536H66.7887V34.8977H65.9491ZM66.7887 31.6772H68.6049C68.6646 31.6772 68.7322 31.6742 68.8077 31.6681C68.8863 31.6619 68.9603 31.6512 69.0294 31.6359C69.2464 31.5869 69.4225 31.4981 69.5578 31.3694C69.6961 31.2377 69.7968 31.0846 69.8597 30.91C69.9226 30.7324 69.954 30.5517 69.954 30.3679C69.954 30.1842 69.9226 30.005 69.8597 29.8304C69.7968 29.6528 69.6961 29.4981 69.5578 29.3664C69.4225 29.2347 69.2464 29.1459 69.0294 29.1C68.9603 29.0816 68.8863 29.0709 68.8077 29.0678C68.7322 29.0617 68.6646 29.0586 68.6049 29.0586H66.7887V31.6772Z" fill="#00171F"/>
<path d="M74.5461 35.0355C73.8699 35.0355 73.296 34.89 72.8243 34.5991C72.3526 34.3081 71.9925 33.9038 71.7441 33.3862C71.4988 32.8686 71.3761 32.2699 71.3761 31.59C71.3761 30.91 71.4988 30.3113 71.7441 29.7937C71.9925 29.2761 72.3526 28.8718 72.8243 28.5809C73.296 28.2899 73.8699 28.1444 74.5461 28.1444C75.2254 28.1444 75.8009 28.2899 76.2726 28.5809C76.7443 28.8718 77.1028 29.2761 77.3481 29.7937C77.5934 30.3113 77.7161 30.91 77.7161 31.59C77.7161 32.2699 77.5934 32.8686 77.3481 33.3862C77.1028 33.9038 76.7443 34.3081 76.2726 34.5991C75.8009 34.89 75.2254 35.0355 74.5461 35.0355ZM74.5461 34.2545C75.0524 34.2576 75.4738 34.1473 75.8103 33.9237C76.1499 33.6971 76.4031 33.3832 76.5698 32.982C76.7396 32.5807 76.8245 32.1167 76.8245 31.59C76.8245 31.0601 76.7396 30.5961 76.5698 30.198C76.4031 29.7998 76.1499 29.4889 75.8103 29.2654C75.4738 29.0418 75.0524 28.9285 74.5461 28.9254C74.0398 28.9223 73.6184 29.0326 73.2819 29.2562C72.9485 29.4798 72.6969 29.7922 72.5271 30.1934C72.3573 30.5946 72.2708 31.0601 72.2677 31.59C72.2645 32.1167 72.3479 32.5792 72.5177 32.9774C72.6875 33.3755 72.9407 33.6879 73.2772 33.9145C73.6168 34.1381 74.0398 34.2514 74.5461 34.2545Z" fill="#00171F"/>
<path d="M78.149 36.0002V34.1213C78.3975 34.1213 78.5987 34.06 78.7528 33.9375C78.9101 33.815 79.0327 33.6496 79.1208 33.4414C79.2088 33.23 79.2749 32.9927 79.3189 32.7293C79.3661 32.4659 79.4038 32.1933 79.4321 31.9115C79.473 31.5134 79.506 31.1275 79.5312 30.7538C79.5595 30.3802 79.5846 29.9928 79.6066 29.5915C79.6287 29.1903 79.6538 28.7524 79.6821 28.2776L83.9512 28.2822V34.1213H84.4465V36.0002H83.6069V34.8977H78.9887V36.0002H78.149ZM79.6208 34.1213H83.1115V29.0586L80.4605 29.054C80.4416 29.4093 80.4227 29.7508 80.4039 30.0785C80.3881 30.4032 80.3677 30.7309 80.3425 31.0616C80.3174 31.3924 80.2859 31.7431 80.2482 32.1137C80.2136 32.4567 80.1743 32.7538 80.1303 33.0049C80.0894 33.253 80.0296 33.4674 79.951 33.6481C79.8724 33.8257 79.7623 33.9835 79.6208 34.1213Z" fill="#00171F"/>
<path d="M85.4814 34.8977V28.2822H88.1277C88.5334 28.2822 88.8793 28.3634 89.1655 28.5257C89.4548 28.6881 89.675 28.9024 89.8259 29.1689C89.98 29.4323 90.0571 29.7171 90.0571 30.0234C90.0571 30.3817 89.9627 30.6956 89.774 30.9652C89.5854 31.2347 89.3306 31.42 89.0098 31.521L89.0004 31.2959C89.4375 31.4093 89.7772 31.6175 90.0193 31.9207C90.2615 32.2239 90.3826 32.5853 90.3826 33.0049C90.3826 33.3908 90.3008 33.7247 90.1373 34.0064C89.9769 34.2882 89.7442 34.5072 89.4391 34.6634C89.1372 34.8196 88.7787 34.8977 88.3636 34.8977H85.4814ZM86.3305 34.1167H88.2032C88.4548 34.1167 88.6796 34.0723 88.8778 33.9835C89.0759 33.8916 89.2316 33.7629 89.3448 33.5976C89.4611 33.4322 89.5193 33.2331 89.5193 33.0003C89.5193 32.7768 89.4674 32.5761 89.3636 32.3985C89.263 32.2209 89.1199 32.08 88.9344 31.9759C88.752 31.8687 88.5397 31.8151 88.2976 31.8151H86.3305V34.1167ZM86.3305 31.0433H88.1183C88.3196 31.0433 88.5004 31.0019 88.6608 30.9192C88.8243 30.8335 88.9532 30.714 89.0476 30.5609C89.1451 30.4078 89.1938 30.2286 89.1938 30.0234C89.1938 29.7386 89.0948 29.5058 88.8966 29.3251C88.6985 29.1444 88.4391 29.054 88.1183 29.054H86.3305V31.0433Z" fill="#00171F"/>
<path d="M96.5635 34.8977H95.7144V29.7248L92.1717 34.8977H91.3226V28.2822H92.1717V33.4505L95.7144 28.2822H96.5635V34.8977Z" fill="#00171F"/>
<path d="M97.3164 34.8977L100.175 31.4935L97.557 28.2822H98.5901L101.043 31.3419V28.2822H101.883V31.3419L104.336 28.2822H105.369L102.751 31.4935L105.609 34.8977H104.548L101.883 31.7094V34.8977H101.043V31.7094L98.3778 34.8977H97.3164Z" fill="#00171F"/>
<path d="M106.368 34.8977V28.2822H110.661V29.0586H107.208V31.1306H110.095V31.9069H107.208V34.1213H110.661V34.8977H106.368Z" fill="#00171F"/>
<path d="M111.795 34.8977V28.2822H112.634V31.1995H116.21V28.2822H117.05V34.8977H116.21V31.9759H112.634V34.8977H111.795Z" fill="#00171F"/>
<path d="M123.614 34.8977H122.765V29.7248L119.222 34.8977H118.373V28.2822H119.222V33.4505L122.765 28.2822H123.614V34.8977Z" fill="#00171F"/>
<path d="M124.933 34.8977V28.2822H129.226V29.0586H125.773V31.1306H128.66V31.9069H125.773V34.1213H129.226V34.8977H124.933Z" fill="#00171F"/>
<path d="M135.041 35.0355C134.365 35.0355 133.791 34.89 133.319 34.5991C132.847 34.3081 132.487 33.9038 132.239 33.3862C131.994 32.8686 131.871 32.2699 131.871 31.59C131.871 30.91 131.994 30.3113 132.239 29.7937C132.487 29.2761 132.847 28.8718 133.319 28.5809C133.791 28.2899 134.365 28.1444 135.041 28.1444C135.827 28.1444 136.473 28.3389 136.98 28.7279C137.489 29.1168 137.84 29.6405 138.032 30.299L137.178 30.5195C137.039 30.0264 136.793 29.6375 136.437 29.3527C136.082 29.0678 135.616 28.9254 135.041 28.9254C134.535 28.9254 134.113 29.0372 133.777 29.2608C133.44 29.4844 133.187 29.7967 133.017 30.198C132.847 30.5961 132.761 31.0601 132.758 31.59C132.755 32.1167 132.838 32.5807 133.008 32.982C133.178 33.3801 133.432 33.6925 133.772 33.9191C134.112 34.1427 134.535 34.2545 135.041 34.2545C135.616 34.2545 136.082 34.1121 136.437 33.8273C136.793 33.5394 137.039 33.1504 137.178 32.6604L138.032 32.8809C137.84 33.5363 137.489 34.06 136.98 34.452C136.473 34.841 135.827 35.0355 135.041 35.0355Z" fill="#00171F"/>
<path d="M138.41 34.8977L140.684 28.2822H141.854L144.127 34.8977H143.255L141.127 28.76H141.391L139.283 34.8977H138.41ZM139.505 33.3495V32.5823H143.033V33.3495H139.505Z" fill="#00171F"/>
<path d="M144.972 34.8977V28.2822H145.821V33.4505L149.364 28.2822H150.213V34.8977H149.364V29.7248L145.821 34.8977H144.972ZM147.628 27.7034C147.389 27.7034 147.172 27.6467 146.977 27.5334C146.785 27.4201 146.631 27.27 146.514 27.0832C146.398 26.8933 146.34 26.682 146.34 26.4492H147.019C147.019 26.6115 147.079 26.7509 147.198 26.8673C147.318 26.9837 147.461 27.0419 147.628 27.0419C147.798 27.0419 147.941 26.9837 148.057 26.8673C148.176 26.7509 148.236 26.6115 148.236 26.4492H148.915C148.915 26.682 148.857 26.8933 148.741 27.0832C148.628 27.27 148.472 27.4201 148.274 27.5334C148.079 27.6467 147.864 27.7034 147.628 27.7034Z" fill="#00171F"/>
<path d="M153.282 34.8977V29.0586H150.966V28.2822H156.438V29.0586H154.122V34.8977H153.282Z" fill="#00171F"/>
<path d="M159.981 35.0355C159.305 35.0355 158.731 34.89 158.26 34.5991C157.788 34.3081 157.428 33.9038 157.179 33.3862C156.934 32.8686 156.811 32.2699 156.811 31.59C156.811 30.91 156.934 30.3113 157.179 29.7937C157.428 29.2761 157.788 28.8718 158.26 28.5809C158.731 28.2899 159.305 28.1444 159.981 28.1444C160.661 28.1444 161.236 28.2899 161.708 28.5809C162.18 28.8718 162.538 29.2761 162.783 29.7937C163.029 30.3113 163.151 30.91 163.151 31.59C163.151 32.2699 163.029 32.8686 162.783 33.3862C162.538 33.9038 162.18 34.3081 161.708 34.5991C161.236 34.89 160.661 35.0355 159.981 35.0355ZM159.981 34.2545C160.488 34.2576 160.909 34.1473 161.246 33.9237C161.585 33.6971 161.838 33.3832 162.005 32.982C162.175 32.5807 162.26 32.1167 162.26 31.59C162.26 31.0601 162.175 30.5961 162.005 30.198C161.838 29.7998 161.585 29.4889 161.246 29.2654C160.909 29.0418 160.488 28.9285 159.981 28.9254C159.475 28.9223 159.054 29.0326 158.717 29.2562C158.384 29.4798 158.132 29.7922 157.962 30.1934C157.793 30.5946 157.706 31.0601 157.703 31.59C157.7 32.1167 157.783 32.5792 157.953 32.9774C158.123 33.3755 158.376 33.6879 158.712 33.9145C159.052 34.1381 159.475 34.2514 159.981 34.2545Z" fill="#00171F"/>
<path d="M164.099 34.8977V28.2822H166.745C167.151 28.2822 167.497 28.3634 167.783 28.5257C168.072 28.6881 168.292 28.9024 168.443 29.1689C168.597 29.4323 168.675 29.7171 168.675 30.0234C168.675 30.3817 168.58 30.6956 168.391 30.9652C168.203 31.2347 167.948 31.42 167.627 31.521L167.618 31.2959C168.055 31.4093 168.395 31.6175 168.637 31.9207C168.879 32.2239 169 32.5853 169 33.0049C169 33.3908 168.918 33.7247 168.755 34.0064C168.594 34.2882 168.362 34.5072 168.057 34.6634C167.755 34.8196 167.396 34.8977 166.981 34.8977H164.099ZM164.948 34.1167H166.821C167.072 34.1167 167.297 34.0723 167.495 33.9835C167.693 33.8916 167.849 33.7629 167.962 33.5976C168.079 33.4322 168.137 33.2331 168.137 33.0003C168.137 32.7768 168.085 32.5761 167.981 32.3985C167.88 32.2209 167.737 32.08 167.552 31.9759C167.369 31.8687 167.157 31.8151 166.915 31.8151H164.948V34.1167ZM164.948 31.0433H166.736C166.937 31.0433 167.118 31.0019 167.278 30.9192C167.442 30.8335 167.571 30.714 167.665 30.5609C167.763 30.4078 167.811 30.2286 167.811 30.0234C167.811 29.7386 167.712 29.5058 167.514 29.3251C167.316 29.1444 167.057 29.054 166.736 29.054H164.948V31.0433Z" fill="#00171F"/>
</g>
</svg>
