<svg width="36" height="36" viewBox="0 0 36 36" fill="none" xmlns="http://www.w3.org/2000/svg">
<rect width="36" height="36" rx="18" fill="white"/>
<path d="M14.5714 18.1944L14.8936 17.2478L14.1684 17.001L13.7413 17.6368L14.5714 18.1944ZM21.4286 20.5278L21.1064 21.4745L21.9464 21.7603L22.3302 20.9604L21.4286 20.5278ZM26.9434 10.6684C26.7602 10.1473 26.1894 9.87343 25.6684 10.0566L17.1777 13.0413C16.6567 13.2245 16.3828 13.7954 16.5659 14.3164C16.7491 14.8374 17.32 15.1113 17.841 14.9282L25.3882 12.275L28.0413 19.8223C28.2245 20.3433 28.7954 20.6172 29.3164 20.4341C29.8374 20.2509 30.1113 19.68 29.9282 19.159L26.9434 10.6684ZM10.8301 25.5576L15.4015 18.752L13.7413 17.6368L9.16989 24.4424L10.8301 25.5576ZM14.2493 19.1411L21.1064 21.4745L21.7507 19.5811L14.8936 17.2478L14.2493 19.1411ZM22.3302 20.9604L26.9016 11.4326L25.0984 10.5674L20.527 20.0952L22.3302 20.9604Z" fill="#02C754"/>
</svg>
