<svg width="36" height="36" viewBox="0 0 36 36" fill="none" xmlns="http://www.w3.org/2000/svg">
<rect width="36" height="36" rx="18" fill="white"/>
<g clip-path="url(#clip0_348_1481)">
<path d="M7 18C7 15.0826 8.15893 12.2847 10.2218 10.2218C12.2847 8.15893 15.0826 7 18 7C20.9174 7 23.7153 8.15893 25.7782 10.2218C27.8411 12.2847 29 15.0826 29 18C29 20.9174 27.8411 23.7153 25.7782 25.7782C23.7153 27.8411 20.9174 29 18 29C15.0826 29 12.2847 27.8411 10.2218 25.7782C8.15893 23.7153 7 20.9174 7 18Z" fill="#1A4A7F"/>
<path fill-rule="evenodd" clip-rule="evenodd" d="M16.2016 28.8514C13.9969 28.4892 11.9552 27.4626 10.3496 25.9089L20.2606 16.8119L14.5956 18.1869C14.2206 18.279 13.831 18.2956 13.4496 18.2357C13.0681 18.1758 12.7024 18.0405 12.3737 17.8378C12.0451 17.635 11.7601 17.3689 11.5353 17.0549C11.3105 16.7409 11.1505 16.3853 11.0646 16.0089C10.8904 15.2428 11.0239 14.439 11.4364 13.7704C11.8489 13.1018 12.5073 12.6219 13.2701 12.4339L25.0621 9.56836C26.4983 10.7709 27.6035 12.3203 28.2732 14.0696C28.9428 15.819 29.1546 17.7104 28.8886 19.5645C28.6225 21.4187 27.8874 23.1742 26.7528 24.6646C25.6183 26.1551 24.122 27.3312 22.4056 28.0814C22.3726 27.6909 22.4111 27.2839 22.5486 26.8879L24.4186 21.3109L16.2016 28.8514Z" fill="url(#paint0_linear_348_1481)"/>
</g>
<defs>
<linearGradient id="paint0_linear_348_1481" x1="33.9831" y1="8.39136" x2="-3.67539" y2="42.9479" gradientUnits="userSpaceOnUse">
<stop stop-color="#FFB800"/>
<stop offset="1" stop-color="#FFF11D"/>
</linearGradient>
<clipPath id="clip0_348_1481">
<rect width="22" height="22" fill="white" transform="translate(7 7)"/>
</clipPath>
</defs>
</svg>
