<svg width="36" height="36" viewBox="0 0 36 36" fill="none" xmlns="http://www.w3.org/2000/svg">
<rect width="36" height="36" rx="18" fill="white"/>
<g clip-path="url(#clip0_348_1475)">
<path fill-rule="evenodd" clip-rule="evenodd" d="M12.383 20.6752L11.2128 21.8962L7 17.5008L11.2128 13.1055L12.383 14.3264L9.34043 17.5008L12.383 20.6752Z" fill="#DA0E16"/>
<path fill-rule="evenodd" clip-rule="evenodd" d="M23.6172 14.3264L24.7874 13.1055L29.0002 17.5008L24.7874 21.8962L23.6172 20.6752L26.6597 17.5008L23.6172 14.3264Z" fill="#DA0E16"/>
<path fill-rule="evenodd" clip-rule="evenodd" d="M23.6169 10.4074C23.6169 9.45456 23.245 8.59283 22.6453 7.97162L21.6654 10.8938L19.0151 9.92095L19.9953 6.99805C18.3479 7.1785 17.0637 8.6358 17.0637 10.4074C17.0637 11.3604 17.4356 12.2219 18.0352 12.8431L15.3144 21.1828C13.667 21.3633 12.3828 22.8203 12.3828 24.5921C12.3828 25.545 12.7547 26.4067 13.3543 27.0279L14.3343 24.1057L16.9846 25.0786L16.0044 28.0012C17.6518 27.821 18.936 26.3637 18.936 24.5921C18.936 23.6393 18.5641 22.7776 17.9645 22.1564L20.6852 13.8167C22.3327 13.6362 23.6169 12.1792 23.6169 10.4074Z" fill="#393837"/>
</g>
<defs>
<clipPath id="clip0_348_1475">
<rect width="22" height="21" fill="white" transform="translate(7 7)"/>
</clipPath>
</defs>
</svg>
