<svg width="36" height="36" viewBox="0 0 36 36" fill="none" xmlns="http://www.w3.org/2000/svg">
<rect width="36" height="36" rx="18" fill="white"/>
<path d="M10.5053 22C10.1231 22 9.76218 21.9279 9.42249 21.7836C9.08279 21.6394 8.78732 21.435 8.53609 21.1706C8.28839 20.9061 8.10969 20.5936 8 20.233L9.23671 19.9084C9.32518 20.2038 9.48618 20.4322 9.71972 20.5936C9.9568 20.7516 10.2169 20.8288 10.5 20.8254C10.7512 20.8254 10.9759 20.7687 11.1741 20.6554C11.3722 20.5421 11.5279 20.3892 11.6411 20.1969C11.7544 20.0011 11.811 19.7831 11.811 19.5426C11.811 19.1752 11.6889 18.8678 11.4448 18.6205C11.2006 18.3732 10.8857 18.2496 10.5 18.2496C10.3832 18.2496 10.2682 18.265 10.155 18.2959C10.0453 18.3268 9.93911 18.3698 9.83649 18.4247L9.25264 17.4459L11.8216 15.3131L11.9331 15.6119H8.29724V14.4425H12.984V15.6171L10.9193 17.5438L10.9087 17.178C11.3722 17.2089 11.7668 17.3343 12.0923 17.5541C12.4214 17.7739 12.6726 18.0572 12.846 18.4041C13.0229 18.751 13.1114 19.1305 13.1114 19.5426C13.1114 20.0097 12.9929 20.4287 12.7558 20.7997C12.5222 21.1706 12.2073 21.4642 11.811 21.6806C11.4182 21.8935 10.983 22 10.5053 22Z" fill="black"/>
<path d="M17.4484 21.8609V20.6348H14.0621V19.4757L16.509 14.4425H17.9686L15.5217 19.4757H17.4484V17.5438H18.7435V19.4757H19.4601V20.6348H18.7435V21.8609H17.4484Z" fill="black"/>
<path d="M24.5364 16.7092V13.4224L23.8172 13.8423V13.4173L24.5364 13H24.9318V16.7092H24.5364Z" fill="#02C754"/>
<path d="M26.6046 16.7092V13.4224L25.8854 13.8423V13.4173L26.6046 13H27V16.7092H26.6046Z" fill="#02C754"/>
<path d="M20.2477 16.9883H23.0343C23.0625 16.9882 23.0902 16.9806 23.1143 16.9664C23.1384 16.9522 23.1581 16.9319 23.1712 16.9076C23.1843 16.8834 23.1903 16.8561 23.1887 16.8288C23.187 16.8015 23.1777 16.7751 23.1617 16.7525L21.7684 14.7992C21.7107 14.7182 21.5716 14.7182 21.5138 14.7992L20.1205 16.7525C20.1043 16.775 20.0949 16.8014 20.0931 16.8288C20.0914 16.8562 20.0974 16.8835 20.1105 16.9078C20.1236 16.9321 20.1433 16.9525 20.1675 16.9667C20.1917 16.9808 20.2194 16.9883 20.2477 16.9883Z" fill="#02C754"/>
</svg>
