<svg width="36" height="36" viewBox="0 0 36 36" fill="none" xmlns="http://www.w3.org/2000/svg">
<rect width="36" height="36" rx="18" fill="white"/>
<g clip-path="url(#clip0_348_1489)">
<path d="M7.00879 12.2894C7.00879 9.37344 9.37246 7.00977 12.2884 7.00977H23.71C26.6268 7.00977 28.9905 9.37344 28.9905 12.2894V29.0006H12.2884C9.37246 29.0006 7.00879 26.6369 7.00879 23.721V12.2894Z" fill="#74AA9C"/>
<path d="M17.1248 9.73442C15.3144 9.73442 13.706 10.8984 13.1454 12.6175L12.9434 13.7979V17.7106C12.9434 17.9062 13.0439 18.08 13.2122 18.1806L16.3622 19.9957V14.619H16.3631V14.3639L19.5516 12.5224C19.8599 12.3439 20.1957 12.2219 20.5434 12.1582L20.2365 11.117C19.4446 10.2318 18.3117 9.72893 17.1248 9.73442ZM17.1248 10.8088L17.1193 10.8143C17.8481 10.8143 18.5485 11.0658 19.109 11.5312C19.0862 11.5422 19.0414 11.5705 19.0084 11.587L15.7121 13.4852C15.5439 13.5803 15.4433 13.7595 15.4433 13.9552V18.411L14.0251 17.5935V13.9104C14.0242 12.1996 15.4113 10.8116 17.1248 10.8088Z" fill="white"/>
<path d="M24.7206 13.1096C23.8153 11.5416 22.0031 10.7307 20.2341 11.1048L19.1107 11.5201L15.7223 13.4764C15.5528 13.5742 15.4527 13.7482 15.4497 13.9442L15.4527 17.5798L20.1091 14.8914L20.1095 14.8922L20.3305 14.7647L23.5195 16.6052C23.8282 16.7829 24.1018 17.0128 24.3308 17.282L25.0791 16.4956C25.4497 15.3673 25.3188 14.1347 24.7206 13.1096ZM23.7901 13.6468L23.7826 13.6447C24.147 14.2759 24.2794 15.0082 24.1566 15.7263C24.1357 15.712 24.0888 15.6874 24.058 15.6671L20.7659 13.7615C20.5995 13.6633 20.394 13.6658 20.2245 13.7637L16.3657 15.9916L16.3645 14.3546L19.5542 12.5131C21.0353 11.6569 22.931 12.1642 23.7901 13.6468Z" fill="white"/>
<path d="M25.5958 21.3751C26.501 19.8072 26.2971 17.8323 25.0887 16.4874L24.1674 15.7221L20.7789 13.7658C20.6095 13.668 20.4087 13.6682 20.2375 13.7636L17.0905 15.5841L21.7468 18.2724L21.7464 18.2732L21.9673 18.4007L21.9679 22.0828C21.9684 22.439 21.9061 22.7908 21.7874 23.1238L22.8426 23.3786C24.0051 23.1354 25.0071 22.4057 25.5958 21.3751ZM24.6653 20.8379L24.6633 20.8304C24.2989 21.4616 23.7309 21.9424 23.0476 22.1951C23.0495 22.1698 23.0474 22.1169 23.0496 22.0801L23.0538 18.2763C23.0556 18.083 22.9507 17.9063 22.7812 17.8085L18.9224 15.5806L20.3394 14.7611L23.5291 16.6027C25.0112 17.4573 25.5197 19.3526 24.6653 20.8379Z" fill="white"/>
<path d="M18.8752 26.2656C20.6856 26.2656 22.294 25.1016 22.8546 23.3825L23.0566 22.2021V18.2894C23.0566 18.0938 22.9561 17.92 22.7878 17.8194L19.6378 16.0043V21.381H19.6369V21.6361L16.4484 23.4776C16.1401 23.6561 15.8043 23.7781 15.4566 23.8418L15.7635 24.883C16.5554 25.7682 17.6883 26.2711 18.8752 26.2656ZM18.8752 25.1912L18.8807 25.1857C18.1519 25.1857 17.4515 24.9342 16.891 24.4688C16.9138 24.4578 16.9586 24.4295 16.9916 24.413L20.2879 22.5148C20.4561 22.4197 20.5567 22.2405 20.5567 22.0448V17.589L21.9749 18.4065V22.0896C21.9758 23.8004 20.5887 25.1884 18.8752 25.1912Z" fill="white"/>
<path d="M11.2794 22.8904C12.1847 24.4584 13.9969 25.2693 15.7659 24.8952L16.8893 24.4799L20.2777 22.5236C20.4472 22.4258 20.5473 22.2518 20.5503 22.0558L20.5473 18.4202L15.8909 21.1086L15.8905 21.1078L15.6695 21.2353L12.4805 19.3948C12.1718 19.2171 11.8982 18.9872 11.6692 18.718L10.9209 19.5044C10.5503 20.6327 10.6812 21.8653 11.2794 22.8904ZM12.2099 22.3532L12.2174 22.3553C11.853 21.7241 11.7206 20.9918 11.8434 20.2737C11.8643 20.288 11.9112 20.3126 11.942 20.3329L15.2341 22.2385C15.4005 22.3367 15.606 22.3342 15.7755 22.2363L19.6343 20.0084L19.6355 21.6454L16.4458 23.4869C14.9647 24.3431 13.069 23.8358 12.2099 22.3532Z" fill="white"/>
<path d="M10.4042 14.6249C9.49901 16.1928 9.70287 18.1677 10.9113 19.5126L11.8326 20.2779L15.2211 22.2342C15.3905 22.332 15.5913 22.3318 15.7625 22.2364L18.9095 20.4159L14.2532 17.7276L14.2536 17.7268L14.0327 17.5993L14.0321 13.9172C14.0316 13.561 14.0939 13.2092 14.2126 12.8762L13.1574 12.6214C11.9949 12.8646 10.9929 13.5943 10.4042 14.6249ZM11.3347 15.1621L11.3367 15.1696C11.7011 14.5384 12.2691 14.0576 12.9524 13.8049C12.9505 13.8302 12.9526 13.8831 12.9504 13.9199L12.9462 17.7237C12.9444 17.917 13.0493 18.0937 13.2188 18.1915L17.0776 20.4194L15.6606 21.2389L12.4709 19.3973C10.9888 18.5427 10.4803 16.6474 11.3347 15.1621Z" fill="white"/>
</g>
<defs>
<clipPath id="clip0_348_1489">
<rect x="7" y="7" width="22" height="22" rx="11" fill="white"/>
</clipPath>
</defs>
</svg>
