<svg width="256" height="50" viewBox="0 0 256 50" fill="none" xmlns="http://www.w3.org/2000/svg">
<path fill-rule="evenodd" clip-rule="evenodd" d="M55.3445 6.54102C52.9312 6.92578 51.2902 8.46481 50.8075 10.8696C50.6145 12.12 50.4214 13.4667 50.2284 14.7171C49.6492 18.2762 49.07 22.7971 48.5874 26.3561C48.3943 27.7028 48.2012 28.9532 48.0082 30.2037C47.8151 31.9351 48.0082 31.6466 50.8075 31.6466C51.4833 31.6466 52.2555 31.6466 52.9312 31.6466C53.7034 31.6466 54.4757 31.8389 54.6687 31.1656C54.7653 30.877 56.2132 19.9114 56.3098 19.5266L57.082 13.7553C57.3716 11.4467 58.8195 12.0238 62.1016 12.0238C63.3565 12.0238 64.6113 12.0238 64.3217 14.0438C63.9356 16.5448 63.646 19.2381 63.2599 21.8352C62.8738 24.4323 62.4877 27.0294 62.1981 29.6266C61.9085 31.9351 62.005 31.5504 64.4183 31.5504C69.4378 31.5504 68.9552 32.0313 69.2448 29.6266L70.017 23.8552C70.4031 21.2581 70.7893 18.7571 71.0788 16.0638C71.465 13.2743 72.1407 10.9657 70.5962 8.75338C68.7621 6.25245 66.735 6.44483 64.0322 6.44483C62.7773 6.54102 56.2132 6.44483 55.3445 6.54102Z" fill="#002B4E"/>
<path fill-rule="evenodd" clip-rule="evenodd" d="M240.875 16.3525C240.875 15.9677 241.165 15.1982 241.261 14.7172C241.647 12.5049 241.937 10.0039 242.323 7.69538C242.42 6.92586 242.13 6.63729 241.358 6.63729C239.234 6.63729 236.724 6.25253 235.47 8.84965C235.083 9.71536 234.987 11.2544 234.794 12.3125C234.504 14.621 234.118 17.122 233.829 19.4305L232.381 30.1076C232.188 31.9352 232.284 31.6466 234.794 31.6466C239.331 31.6466 238.945 32.0314 239.234 30.1076C239.331 29.4343 239.427 28.9533 239.524 28.28C239.717 27.0295 239.813 25.9714 240.006 24.721C240.103 24.1438 240.199 23.4705 240.296 22.9896C240.489 20.9696 239.91 20.9696 240.972 20.9696C241.165 20.9696 241.358 20.9696 241.647 20.9696C242.806 20.9696 243.868 21.0658 244.543 22.1238C245.123 22.9896 245.509 25.1057 245.702 26.4524C245.895 28.0876 246.184 29.6266 246.377 31.2619C246.474 32.1276 247.246 31.9352 248.501 31.9352C249.37 31.9352 250.335 31.9352 251.204 31.9352C253.714 31.9352 253.617 32.1276 253.038 28.9533C252.652 26.5486 252.266 22.3162 250.625 20.3924C250.142 19.8153 249.852 19.6229 248.984 19.3343C248.598 19.2382 248.308 19.142 247.922 19.0458C247.632 18.9496 247.053 18.9496 246.957 18.661C247.246 18.4686 248.887 18.661 251.011 17.0258C252.555 15.8715 254.293 11.543 255.065 9.61917C256.223 6.82967 256.706 6.63729 254.1 6.63729C251.88 6.63729 250.721 6.44491 249.273 7.59919C248.308 8.46489 247.825 9.90774 247.343 11.3506C246.86 12.6011 245.991 14.1401 245.316 15.102C244.254 16.1601 242.999 16.4486 240.875 16.3525Z" fill="#002B4E"/>
<path fill-rule="evenodd" clip-rule="evenodd" d="M222.438 16.5443C221.376 16.6404 215.005 16.4481 214.715 16.6404C214.136 16.929 214.233 17.8909 214.136 18.6604C213.75 22.3156 213.171 20.969 221.665 21.2576C221.665 21.6423 220.99 23.4699 220.797 23.8547C220.41 24.7204 219.928 25.2013 219.156 25.5861C218.287 26.067 217.418 26.1632 216.26 26.1632C214.619 26.1632 212.688 26.1632 211.144 26.067C210.757 26.067 209.985 25.8747 209.599 25.8747C209.02 25.8747 209.02 26.3556 208.923 26.9327C208.73 28.3756 208.73 29.6261 209.889 30.8765C210.468 31.4537 211.144 31.8384 212.205 32.0308C213.846 32.3194 217.128 32.4156 218.866 32.2232C225.333 31.5499 227.554 28.2794 228.809 21.3537C229.484 17.6023 229.967 12.5043 228.036 9.52239C227.071 8.07955 226.009 7.21384 223.982 6.6367C222.341 6.15575 219.445 5.96337 217.611 6.15575C215.101 6.34813 213.653 6.15575 212.398 7.79098C211.916 8.36812 211.53 9.33001 211.53 10.2919C211.53 10.5805 211.53 11.8309 211.53 12.0233C211.626 12.5043 212.302 12.5043 212.881 12.5043C214.136 12.5043 218.962 12.4081 219.831 12.5043C220.893 12.6005 221.665 13.0814 222.051 13.6586C222.534 14.2357 222.727 15.6785 222.438 16.5443Z" fill="#002B4E"/>
<path fill-rule="evenodd" clip-rule="evenodd" d="M35.0734 0H34.6873C34.2046 0.480949 34.3012 0.577139 34.2046 1.34666L26.2892 46.1711C26.1926 46.7482 25.71 48.8644 25.9031 49.2492C26.3857 49.3454 26.5788 49.153 26.8684 48.9606L32.8532 45.4016C33.5289 45.0168 33.4324 44.8244 33.6255 43.4778C33.722 42.7083 33.915 41.9387 34.0116 41.1692C34.1081 40.6883 34.5908 37.995 34.4942 37.6102C34.3012 37.1293 33.915 37.3216 33.5289 37.2254C33.4324 36.7445 34.1081 33.2817 34.2046 32.8969C34.4942 32.3198 34.5908 32.416 35.2665 32.2236C36.0387 32.0312 36.1352 30.6845 36.2318 29.8188C36.8109 27.0293 36.1352 28.1836 35.363 27.6065C34.9769 27.3179 35.1699 26.7408 35.1699 26.2598C35.2665 25.7789 35.363 25.2979 35.4595 24.817C35.6526 23.8551 35.6526 22.6046 36.3283 22.2198C37.1971 21.8351 37.3901 22.6046 37.7762 20.296C37.8728 19.8151 37.9693 19.3341 38.0658 18.8532C38.5485 16.9294 36.7144 18.3722 36.8109 16.8332C36.8109 16.2561 37.3901 12.7932 37.5832 12.4085C38.1624 11.5428 39.0311 12.6009 39.3207 10.6771C39.6103 8.75327 39.9964 6.73328 40.286 4.80949C40.3826 4.03997 40.093 4.03997 39.7068 3.7514L35.7491 0.769518C35.7491 0.577139 35.2665 0.288569 35.0734 0Z" fill="#002B4E"/>
<path fill-rule="evenodd" clip-rule="evenodd" d="M2.34945 31.6465C3.31475 32.416 3.7974 31.2618 3.41128 33.8589L2.92863 36.937C2.54251 37.9951 1.28762 37.0332 1.09456 38.5722C0.708436 40.5922 0.418847 42.8045 0.032727 44.7283C-0.160333 45.5941 0.515377 45.6902 1.67374 46.556C2.44598 47.1331 3.02516 47.614 3.70087 48.095C6.11411 49.8264 6.11411 50.5959 6.59676 46.9407C6.69329 45.9788 6.98288 45.0169 7.07941 44.055C7.369 42.1312 7.75512 40.2074 8.04471 38.3798C8.43083 36.5522 8.72042 34.6284 9.01001 32.7046C9.39613 30.877 9.68572 28.857 9.97531 27.0294C10.2649 25.1056 10.651 23.1818 10.9406 21.3542C11.2302 19.4304 11.6163 17.5066 11.9059 15.5828C12.6782 11.8314 13.1608 7.98384 13.933 4.23244C14.3192 3.36673 14.4157 2.40483 14.6088 1.44294C14.8983 -0.19229 14.6087 8.96901e-05 13.2573 0.769608C12.5816 1.15437 7.27247 4.13625 7.07941 4.6172C6.88635 4.90577 6.21064 9.61907 6.11411 10.3886C6.01758 10.6772 5.82452 11.5429 5.92105 11.7352C6.01758 12.4086 6.69329 12.12 6.98288 12.4086C7.369 12.7933 6.88635 14.5247 6.78982 15.1981C6.59676 16.16 6.59676 17.3143 5.72799 17.5066C4.66616 17.699 4.76269 17.9876 4.4731 19.6228C4.37657 20.1038 4.28005 20.4885 4.18352 20.9695C3.7974 22.7009 5.63146 21.3542 5.4384 22.8933C5.4384 23.278 5.24534 23.9513 5.24534 24.3361C5.14881 24.9132 4.95576 26.7409 4.66617 27.1256C4.18352 28.1837 3.31475 26.9332 2.92863 28.7608C2.73557 29.2418 2.34945 31.1656 2.34945 31.6465Z" fill="#002B4E"/>
<path fill-rule="evenodd" clip-rule="evenodd" d="M87.7785 17.6026L87.2959 21.0654C87.1994 21.6425 87.1028 22.2197 87.1028 22.7968C86.9098 23.8549 87.1028 23.5663 86.5236 24.2397C85.5583 25.2977 85.6549 25.2977 84.593 26.1635C84.0139 26.6444 82.4694 27.4139 81.6006 26.6444C80.8284 25.9711 81.7937 20.7768 82.1798 19.8149C82.4694 18.9492 83.0486 17.8911 84.0139 17.6988C84.9792 17.5064 86.6202 17.6026 87.7785 17.6026ZM87.3924 27.9911C87.4889 28.7606 87.3924 29.8187 87.3924 30.5882C87.3924 31.8386 87.9716 31.6463 89.0334 31.6463C89.9022 31.6463 90.771 31.6463 91.7363 31.6463C92.7981 31.6463 92.7016 30.9729 92.7981 30.011C93.2807 26.8368 93.5703 23.6625 94.053 20.4883L94.8252 14.6207C94.8252 14.0435 94.7287 13.9473 94.246 13.8512C93.4738 13.6588 92.7016 13.5626 91.9293 13.4664C88.6473 12.9855 85.3653 12.6969 81.8902 13.1778C78.7047 13.5626 76.8707 15.3902 75.8088 17.8911C74.8435 20.2959 74.2643 24.2397 74.4574 27.3177C74.747 30.6844 76.7741 32.4158 80.4423 31.9348C85.5583 31.3577 86.9098 28.1834 87.3924 27.9911Z" fill="#002B4E"/>
<path fill-rule="evenodd" clip-rule="evenodd" d="M129.48 20.9697C129.287 21.1621 129.094 21.0659 128.804 21.1621C128.708 21.1621 128.418 21.2583 128.128 21.1621C128.128 20.8735 128.225 20.6811 128.225 20.4888C128.321 20.104 128.225 20.104 128.418 19.9116C128.418 19.623 128.804 18.7573 128.997 18.565C129.19 18.1802 129.576 17.8916 130.155 17.6993C131.024 17.4107 132.858 17.3145 133.534 17.7954C133.824 17.9878 133.824 18.9497 133.727 19.4307C133.534 19.9116 133.148 20.2964 132.762 20.4888C132.376 20.7773 130.155 21.0659 129.48 20.9697ZM138.554 30.6849C138.554 30.3001 138.167 27.0297 138.071 26.8373C137.781 26.3563 136.913 26.6449 136.237 26.6449C134.403 26.7411 131.507 26.9335 129.769 26.7411C128.418 26.5487 127.646 25.9716 127.742 24.4325L132.376 23.9516C134.885 23.7592 138.457 23.3744 139.712 21.0659C140.388 19.8154 140.87 16.545 139.422 15.0059C137.974 13.5631 136.14 12.986 133.92 12.8898C130.928 12.6012 127.26 12.8898 125.136 14.2364C123.109 15.5831 121.95 17.5069 121.371 20.6811C120.889 23.5668 120.696 27.222 122.24 29.3382C124.557 32.4163 130.542 32.4163 134.499 31.8391C137.106 31.4544 136.526 31.3582 138.554 30.6849Z" fill="#002B4E"/>
<path fill-rule="evenodd" clip-rule="evenodd" d="M156.122 18.084C156.122 18.6612 154.577 29.3382 154.481 30.3001C154.287 32.0316 154.77 31.743 156.411 31.743C157.57 31.743 158.728 31.743 159.886 31.743C161.238 31.743 160.948 31.3582 161.238 29.5306L162.493 20.3926C162.589 19.5269 163.361 14.6212 163.361 14.2364C163.361 13.6593 162.879 13.5631 162.299 13.5631H156.99C156.508 13.5631 156.508 13.4669 155.349 13.4669C151.488 13.4669 148.11 12.8898 146.662 17.0259C146.179 18.3726 145.986 20.4888 145.214 22.605C144.538 24.5288 144.538 26.3564 142.318 26.7411C141.063 26.9335 141.256 26.8373 141.352 29.1459C141.352 29.723 141.449 30.204 141.449 30.6849C141.449 31.4544 141.352 31.8392 142.125 31.8392C144.441 32.0316 146.372 31.9354 148.013 30.8773C149.558 29.9154 150.233 28.6649 150.812 26.6449C151.392 24.8173 151.874 22.9897 152.357 21.1621C153.226 18.1802 153.322 17.7955 156.122 18.084Z" fill="#002B4E"/>
<path fill-rule="evenodd" clip-rule="evenodd" d="M110.367 19.9113H105.347C105.25 19.6227 105.926 15.4865 106.023 14.6208C106.119 13.8513 106.023 13.5627 105.154 13.5627H100.424C99.3621 13.5627 99.4586 14.2361 99.3621 15.198L97.335 29.8188C97.2384 30.6845 96.8523 31.6464 97.9141 31.6464H102.837C103.706 31.6464 103.706 31.0693 103.802 30.2998L104.768 24.336H110.077C110.077 24.8169 109.498 29.0493 109.305 30.2036C109.208 31.0693 109.015 31.5502 110.077 31.5502H115C115.965 31.5502 115.869 30.6845 115.965 29.8188L117.027 22.6046C117.317 20.9693 117.413 19.3341 117.703 17.7951C117.799 17.0256 117.896 16.1599 117.992 15.3903C118.282 13.178 118.668 13.5627 112.49 13.5627C111.621 13.5627 111.621 13.9475 111.525 14.717L110.849 19.4303C110.753 19.8151 110.849 19.9113 110.367 19.9113Z" fill="#002B4E"/>
<path fill-rule="evenodd" clip-rule="evenodd" d="M190.583 6.54127C189.038 6.82984 187.783 7.88793 187.397 9.42696C187.301 9.90791 187.011 11.8317 187.494 12.1203C187.88 12.3127 192.513 12.1203 193.479 12.2165C194.637 12.3127 194.154 13.5631 194.058 14.4288L192.61 25.1059C192.32 26.8373 192.127 28.6649 191.838 30.3963C191.644 31.6468 192.513 31.4544 193.575 31.4544C194.637 31.4544 195.602 31.4544 196.664 31.4544C198.884 31.4544 198.498 31.9354 199.077 27.703L200.911 14.4288C201.008 14.0441 201.008 13.5631 201.104 13.0822C201.201 12.6012 201.104 12.1203 201.587 12.0241C201.877 11.9279 207.089 11.9279 207.668 12.0241C208.344 12.1203 208.441 12.3127 208.441 11.4469C208.441 10.8698 208.537 10.5812 208.344 10.0041C208.055 8.56125 206.993 7.11841 205.641 6.63746C204.869 6.34889 203.614 6.44508 202.649 6.44508C201.78 6.54127 191.355 6.44508 190.583 6.54127Z" fill="#002B4E"/>
<path fill-rule="evenodd" clip-rule="evenodd" d="M174.076 23.4705C174.559 23.3743 175.717 23.2782 176.103 23.4705C176.683 23.6629 176.779 24.3362 176.683 25.0096C176.49 26.3562 176.2 27.3181 175.042 27.6067C174.462 27.7991 173.69 27.7029 173.111 27.5105C171.953 27.0296 172.435 25.5867 172.628 24.2401C172.821 23.4705 172.821 23.6629 174.076 23.4705ZM165.968 26.6448C165.968 27.7991 166.064 28.761 166.643 29.7229C167.995 31.8391 172.049 32.0314 174.559 32.0314C177.165 32.0314 179.675 31.5505 181.123 30.3C182.957 28.6648 184.405 21.9315 181.606 20.3925C180.061 19.5268 176.779 19.4306 174.849 19.7191C174.366 19.8153 173.787 20.0077 173.304 20.0077C173.304 19.2382 173.787 15.9677 173.98 14.8135C174.076 14.0439 174.076 13.6592 173.208 13.6592H168.574C167.512 13.6592 167.609 14.4287 167.416 16.3525C167.223 17.5068 167.126 18.661 166.933 19.8153C166.643 20.7772 165.968 25.6829 165.968 26.6448Z" fill="#002B4E"/>
<path fill-rule="evenodd" clip-rule="evenodd" d="M103.416 42.4197C103.513 42.1312 103.706 41.9388 103.802 41.6502C104.092 40.9769 104.188 39.8226 104.382 38.9569H106.023C106.023 39.4378 105.829 40.2074 105.733 40.6883L105.54 42.035C105.443 42.6121 105.54 42.4197 103.416 42.4197ZM101.196 42.5159C101.003 43.0931 100.713 44.5359 100.906 45.113C101.196 45.2092 101.582 45.2092 101.872 45.113C101.968 45.0168 102.161 43.8626 102.161 43.7664H106.023C106.023 44.8245 105.443 45.4016 106.988 45.2092C107.181 44.8245 107.181 44.1511 107.277 43.6702C107.47 42.8045 107.567 42.6121 106.602 42.6121C106.602 42.2273 107.084 39.8226 107.181 39.1493C107.277 38.6683 107.374 38.3798 107.181 37.995C106.795 37.8988 103.609 37.8988 103.223 37.995C103.03 38.5721 102.837 40.1112 102.644 40.7845C102.547 41.2654 102.451 41.6502 102.161 41.9388C101.775 42.6121 101.775 42.4197 101.196 42.5159Z" fill="#002B4E"/>
<path fill-rule="evenodd" clip-rule="evenodd" d="M166.643 42.4196H164.713C164.906 41.9387 165.099 41.9387 165.292 40.7844C165.388 40.2073 165.485 39.5339 165.581 38.9568H167.222C167.222 39.4377 167.029 40.2073 166.933 40.6882C166.836 40.9768 166.836 41.2654 166.74 41.5539C166.74 41.7463 166.74 41.8425 166.643 41.9387C166.836 42.4196 166.74 42.4196 166.643 42.4196ZM162.589 42.612C162.492 42.9006 162.396 43.4777 162.299 43.8625C162.203 44.4396 162.106 44.632 162.299 45.1129C162.589 45.2091 162.975 45.2091 163.265 45.1129C163.361 45.0168 163.361 44.7282 163.458 44.4396C163.458 44.2472 163.554 43.9587 163.554 43.7663H167.416C167.319 44.9206 166.836 45.4015 168.381 45.2091C168.477 44.9206 168.863 43.1891 168.767 42.8044C168.477 42.5158 168.574 42.612 167.995 42.5158L168.574 39.053C168.67 38.3797 168.767 38.4758 168.477 37.9949C167.609 37.8987 165.968 37.9949 165.002 37.9949C164.616 37.9949 164.616 37.9949 164.52 38.3797C164.23 39.9187 164.23 41.6501 163.168 42.5158C162.975 42.7082 162.975 42.612 162.686 42.7082L162.589 42.612Z" fill="#002B4E"/>
<path fill-rule="evenodd" clip-rule="evenodd" d="M59.6883 38.9571C60.7501 38.6685 61.5223 39.438 61.4258 40.4961C61.3293 41.3618 60.6536 42.2275 59.8813 42.4199C57.5646 43.0933 57.275 39.7266 59.6883 38.9571ZM58.4334 38.2838C58.3368 38.1876 58.3368 37.9952 58.2403 37.8028C57.9507 37.7066 57.6611 37.7066 57.3715 37.8028C57.1785 37.899 56.3097 43.2856 56.2132 44.1513C56.1166 44.4399 56.0201 45.017 56.1166 45.2094C56.2132 45.498 56.8889 45.498 57.0819 45.4018L57.1785 45.2094C57.275 44.9209 57.3715 43.5742 57.5646 42.9971C57.7577 43.2856 58.3368 43.5742 58.916 43.6704C60.557 43.8628 62.1015 42.6123 62.4876 40.9771C63.3564 38.1876 60.4605 36.8409 58.4334 38.2838Z" fill="#002B4E"/>
<path fill-rule="evenodd" clip-rule="evenodd" d="M48.0081 43.6706C48.7803 43.6706 48.5873 43.7667 48.7803 42.3239L49.6491 37.2258H53.1242C53.1242 37.8992 52.4485 40.881 52.3519 42.0353C52.3519 42.3239 52.2554 42.5163 52.2554 42.8048C52.1589 43.382 52.1589 43.1896 52.3519 43.5744C53.6068 43.7667 53.4138 43.6705 53.7034 41.9391L54.4756 37.7068C54.5721 36.9373 55.0548 35.9754 54.0895 35.9754C52.8346 35.9754 49.8422 35.8792 48.7803 35.9754C48.6838 36.1677 47.622 41.9391 47.4289 42.9972C47.3324 43.4782 47.5254 43.6706 48.0081 43.6706Z" fill="#002B4E"/>
<path fill-rule="evenodd" clip-rule="evenodd" d="M11.7125 44.6318C7.75476 45.4975 8.527 50.6918 11.809 49.9223C13.0639 49.6337 14.3188 48.4794 14.4153 47.1328C14.6084 45.5937 13.3535 44.2471 11.7125 44.6318Z" fill="#FAB93D"/>
<path fill-rule="evenodd" clip-rule="evenodd" d="M27.6407 0.865588C23.7795 1.7313 24.1656 6.63698 27.6407 6.05984C28.8956 5.86746 30.1505 4.61699 30.3435 3.36652C30.5366 1.7313 29.1852 0.577019 27.6407 0.865588Z" fill="#FAB93D"/>
<path fill-rule="evenodd" clip-rule="evenodd" d="M172.242 42.4199C172.242 42.1313 172.242 41.2656 172.628 41.2656C173.304 41.2656 174.366 41.1694 174.655 41.5542C175.235 42.6123 172.628 42.4199 172.242 42.4199ZM172.918 39.0532C173.594 38.957 174.462 38.957 174.945 39.2456C175.138 40.3999 173.69 40.1113 172.725 40.1113L172.918 39.0532ZM171.373 43.6703C172.725 43.6703 174.752 43.8627 175.524 42.9008C176.103 42.1313 176.007 41.3618 175.524 40.7846C176.2 40.3037 176.49 38.8608 175.621 38.2837C174.945 37.8989 173.014 37.8028 172.146 37.899C171.76 37.899 171.856 38.0913 171.76 38.4761C171.76 38.7647 171.663 39.0532 171.663 39.2456L171.084 42.4199C170.891 42.997 170.601 43.6703 171.373 43.6703Z" fill="#002B4E"/>
<path fill-rule="evenodd" clip-rule="evenodd" d="M124.556 41.3613C125.135 41.2651 126.97 41.0727 126.776 41.9384C126.583 42.7079 125.135 42.5155 124.363 42.5155L124.556 41.3613ZM124.942 39.0527C125.618 39.0527 126.39 38.9565 126.97 39.2451C127.163 40.3032 125.715 40.207 124.749 40.207L124.942 39.0527ZM123.494 43.6698C124.942 43.6698 126.873 43.8622 127.645 42.9003C128.224 42.1308 128.031 41.3613 127.645 40.7841C128.321 40.207 128.611 38.8603 127.742 38.2832C127.066 37.8984 125.135 37.8984 124.267 37.8984C123.881 37.8984 123.977 37.9946 123.881 38.4756L123.494 40.8803C123.398 41.4575 123.301 41.9384 123.205 42.4194C123.012 42.9965 122.626 43.6698 123.494 43.6698Z" fill="#002B4E"/>
<path fill-rule="evenodd" clip-rule="evenodd" d="M224.755 40.1107C225.044 39.6298 225.527 39.0527 226.299 38.9565C227.264 38.7641 227.747 39.245 227.844 40.1107H224.755ZM228.23 42.8041C228.23 42.5155 227.94 41.8422 227.554 41.9383C227.361 41.9383 226.878 42.3231 226.492 42.4193C225.43 42.7079 224.562 42.2269 224.465 41.265H228.519C228.809 41.265 228.809 41.1688 228.905 40.8803C229.485 37.706 226.685 36.9365 224.755 38.2831C221.28 40.7841 223.982 45.8821 228.23 42.8041Z" fill="#002B4E"/>
<path fill-rule="evenodd" clip-rule="evenodd" d="M239.91 40.1116C240.392 38.9573 242.806 37.9954 242.902 40.1116H239.91ZM243.481 42.9011C243.481 42.5163 243.288 42.2278 243.095 42.0354C242.323 41.9392 242.13 42.6125 241.068 42.6125C240.296 42.6125 239.717 42.1316 239.62 41.4582C240.875 41.362 242.516 41.4582 243.578 41.4582C243.964 41.4582 243.964 41.4582 243.964 41.0735C244.543 38.1878 242.033 36.9373 239.91 38.3802C237.4 40.1116 237.786 43.9592 240.972 43.863C242.323 43.6706 242.709 43.1897 243.481 42.9011Z" fill="#002B4E"/>
<path fill-rule="evenodd" clip-rule="evenodd" d="M88.3573 41.3618C88.9365 41.2656 90.1914 41.1694 90.481 41.5541C90.9636 42.7084 88.9365 42.516 88.0677 42.516L88.3573 41.3618ZM88.7434 39.0532C89.4191 39.0532 90.1914 38.957 90.7706 39.2456C90.9636 40.3037 89.7087 40.2075 88.5504 40.1113L88.7434 39.0532ZM87.0059 43.5741H89.3226C90.674 43.5741 91.7359 42.997 91.8324 41.7465C91.8324 41.1694 91.6393 40.977 91.4463 40.6884C92.315 39.9189 92.7012 37.8027 89.9983 37.8027H87.7781C87.5851 38.1875 87.1024 41.3618 86.9094 42.2275C86.8128 42.997 86.6198 43.1894 87.0059 43.5741Z" fill="#002B4E"/>
<path fill-rule="evenodd" clip-rule="evenodd" d="M211.916 41.169C211.82 41.7462 211.433 42.1309 211.047 42.3233C209.406 43.0928 208.538 41.5538 210.082 41.0728C210.661 40.9766 211.337 41.0728 211.916 41.169ZM209.117 38.0909C209.02 39.149 209.213 39.2452 210.179 39.0528C210.758 38.9566 211.723 38.8605 212.109 39.2452L212.206 40.1109C211.144 40.1109 210.661 39.7262 209.599 40.2071C208.827 40.4957 208.345 40.8804 208.151 41.7462C207.958 42.8042 208.441 43.3814 209.213 43.67C210.372 44.1509 210.951 43.5738 211.82 43.3814C212.013 43.8623 212.206 43.8623 212.881 43.7661C213.171 43.189 213.75 39.63 213.461 38.8605C212.881 37.129 209.696 37.8024 209.117 38.0909Z" fill="#002B4E"/>
<path fill-rule="evenodd" clip-rule="evenodd" d="M250.238 40.3038C250.142 41.6505 249.466 43.0933 249.949 43.6705H250.817C251.01 43.3819 251.3 41.4581 251.396 40.881C251.783 38.7648 252.362 37.7067 251.01 37.8029C250.721 37.8029 250.624 38.0915 250.431 38.1877C250.142 38.5724 249.852 38.861 249.466 39.1496L247.535 41.1695L248.018 38.5724C248.114 38.0915 248.018 38.0915 247.921 37.8029H246.956C246.763 38.0915 246.28 41.5543 246.087 42.3238C245.991 42.8048 245.701 43.4781 246.28 43.5743C247.053 43.7667 247.149 43.2857 247.439 42.9971C247.825 42.6124 248.018 42.42 248.308 42.1314C248.887 41.7467 249.852 40.4962 250.238 40.3038Z" fill="#002B4E"/>
<path fill-rule="evenodd" clip-rule="evenodd" d="M72.4299 43.5741C73.5883 43.7665 73.3952 43.4779 73.9744 42.9008C74.1674 42.7084 74.264 42.6122 74.3605 42.4198C74.457 42.2275 74.6501 42.1313 74.8431 42.0351C75.4223 41.4579 75.905 40.7846 76.4842 40.2075C76.4842 40.977 76.098 42.3237 76.0015 43.0932C75.905 43.6703 76.1946 43.6703 76.7737 43.6703C77.3529 43.6703 77.2564 43.5741 77.4495 42.3237L78.0286 39.0532C78.2217 38.1875 78.4148 37.8027 77.4495 37.8027C77.0633 37.8027 77.0633 37.8989 76.8703 38.0913L75.6154 39.438C75.3258 39.8227 74.264 41.0732 73.9744 41.2656C74.264 38.3799 75.2293 37.7065 73.2987 37.8989C73.1056 38.4761 72.7195 41.2656 72.5264 42.2275C72.3334 42.8046 72.1403 43.1894 72.4299 43.5741Z" fill="#002B4E"/>
<path fill-rule="evenodd" clip-rule="evenodd" d="M178.613 43.6698C179.482 43.6698 179.385 43.2851 180.254 42.4194C181.026 41.6498 181.799 40.7841 182.378 40.207C182.378 40.9765 181.992 42.3232 181.895 43.0927C181.799 43.766 182.281 43.6698 182.957 43.6698C183.15 43.3813 183.729 39.9184 183.826 39.0527C184.019 38.187 184.212 37.8984 183.247 37.8984C182.667 37.8984 182.571 38.3794 182.281 38.668L180.64 40.4956C180.447 40.7841 179.965 41.2651 179.771 41.3613C180.061 38.4756 181.026 37.8022 179.096 37.9946C178.903 38.5718 178.42 41.5536 178.227 42.5155C178.13 42.9965 177.841 43.6698 178.613 43.6698Z" fill="#002B4E"/>
<path fill-rule="evenodd" clip-rule="evenodd" d="M67.314 38.9566C68.3759 38.668 69.2446 39.3413 69.1481 40.4956C69.0516 41.3613 68.2794 42.227 67.5071 42.4194C65.0939 43.0927 64.9008 39.6299 67.314 38.9566ZM67.314 37.8023C63.2598 38.5718 63.4529 44.4394 67.5071 43.7661C68.9551 43.4775 70.21 42.227 70.403 40.5918C70.5961 38.7642 69.1481 37.4175 67.314 37.8023Z" fill="#002B4E"/>
<path fill-rule="evenodd" clip-rule="evenodd" d="M96.8523 38.9572C97.9142 38.6687 98.7829 39.342 98.6864 40.4963C98.5899 41.362 97.8176 42.2277 97.0454 42.4201C94.6321 43.0934 94.4391 39.6306 96.8523 38.9572ZM96.9489 37.7068C92.8946 38.2839 92.8946 44.1515 96.8523 43.6705C98.3968 43.4782 99.6517 42.2277 99.9413 40.6887C100.231 38.8611 98.7829 37.5144 96.9489 37.7068Z" fill="#002B4E"/>
<path fill-rule="evenodd" clip-rule="evenodd" d="M134.789 40.8808C134.113 43.1893 130.734 42.9969 131.41 40.496C131.603 39.7265 132.375 38.957 133.341 38.8608C134.403 38.8608 135.078 39.8227 134.789 40.8808ZM133.148 37.8027C131.507 38.0913 130.348 39.2455 130.155 40.8808C129.866 42.7084 131.314 44.055 133.148 43.7665C134.692 43.5741 135.947 42.3236 136.14 40.6884C136.333 38.8608 134.982 37.5141 133.148 37.8027Z" fill="#002B4E"/>
<path fill-rule="evenodd" clip-rule="evenodd" d="M152.357 40.1115C150.523 40.3039 149.654 39.7268 149.461 40.5925C149.268 41.6505 150.33 41.2658 152.067 41.2658C151.874 41.8429 151.006 42.5163 150.04 42.4201C149.268 42.3239 149.268 42.0353 148.978 41.8429C148.592 41.6505 148.11 42.1315 148.013 42.3239C148.11 43.2858 150.33 44.4401 152.357 42.8048C154.577 40.9772 153.805 37.1296 150.716 37.6106C149.944 37.7068 148.689 38.3801 148.689 38.6687C148.689 38.861 149.075 39.4382 149.461 39.342C149.654 39.342 150.04 38.9572 150.523 38.7649C151.488 38.7649 152.261 39.2458 152.357 40.1115Z" fill="#002B4E"/>
<path fill-rule="evenodd" clip-rule="evenodd" d="M12.871 37.4175C11.7127 37.6099 10.6508 38.5718 10.5543 39.9185C10.2647 42.9965 14.8016 42.8042 15.3808 39.6299C15.6704 37.9947 14.4155 37.0328 12.871 37.4175Z" fill="#FAB93D"/>
<path fill-rule="evenodd" clip-rule="evenodd" d="M235.084 39.0536C235.084 40.0155 234.215 42.9973 234.408 43.5745C234.408 43.5745 235.373 44.0554 235.566 43.2859L236.242 39.2459C236.339 38.6688 236.532 38.1879 236.242 37.8993C235.856 37.8031 232.863 37.8031 232.284 37.8993C232.091 38.1879 231.705 41.0736 231.512 41.7469C231.126 42.9973 230.836 42.4202 230.161 42.4202C229.871 42.4202 229.195 43.4783 230.354 43.6707C232.574 44.1516 232.863 41.1697 233.057 39.4383C233.346 38.9574 233.153 38.9574 235.084 39.0536Z" fill="#002B4E"/>
<path fill-rule="evenodd" clip-rule="evenodd" d="M26.2891 8.65714C22.9106 9.42666 23.2967 13.8514 26.3856 13.2743C27.544 13.0819 28.5093 12.0238 28.7024 10.7733C28.8954 9.42666 27.7371 8.36857 26.2891 8.65714Z" fill="#FAB93D"/>
<path fill-rule="evenodd" clip-rule="evenodd" d="M80.4425 38.6683C80.539 38.9568 80.8286 39.2454 80.9252 39.4378C81.3113 39.4378 82.4696 38.5721 83.3384 38.9568C84.0141 39.2454 83.5315 40.0149 82.8558 40.0149C82.3731 40.0149 81.5043 39.9187 81.1182 40.1111C80.9251 40.3997 80.9251 40.8806 81.0217 41.1692C81.6974 41.4578 82.7592 40.9768 83.3384 41.5539C83.5315 42.5158 82.3731 42.7082 81.4078 42.5158C80.8286 42.4197 80.4425 41.4578 79.5737 42.7082C79.8633 43.9587 83.5315 44.4396 84.3037 42.612C84.5933 41.8425 84.5933 41.2654 84.1106 40.7844C84.6898 40.4959 85.3655 38.5721 83.7245 37.9949C82.5662 37.4178 80.7321 38.0911 80.4425 38.6683Z" fill="#002B4E"/>
<path fill-rule="evenodd" clip-rule="evenodd" d="M216.164 43.6702H216.743C216.936 43.2854 217.129 41.9387 217.225 41.3616H219.542C219.542 41.8426 219.349 42.3235 219.349 42.8045C219.156 43.7664 219.542 43.7664 220.411 43.6702C220.604 43.3816 220.893 41.3616 220.99 40.7845C221.087 40.3035 221.183 39.8226 221.28 39.3416C221.376 38.6683 221.569 38.3797 221.28 37.995H220.314L219.832 40.3035H217.515C217.708 38.3797 218.384 37.8988 216.743 37.995C216.55 38.4759 216.26 40.3035 216.164 40.9768C216.067 41.4578 215.97 41.9387 215.874 42.5159C215.681 43.093 215.391 43.6702 216.164 43.6702Z" fill="#002B4E"/>
<path fill-rule="evenodd" clip-rule="evenodd" d="M201.201 43.6703C201.973 43.6703 201.78 43.7665 201.973 42.7084L202.456 40.1113C202.649 38.8608 202.166 38.957 204.966 38.957C204.966 39.438 204.483 41.6503 204.386 42.4198C204.29 43.0932 204.193 42.997 204.386 43.5741C205.641 43.7665 205.448 43.6703 205.641 42.3237L206.22 39.0532C206.317 38.3799 206.607 37.8027 205.738 37.8027H201.684C201.49 38.2837 201.201 40.2075 201.104 40.8808C201.008 41.3618 200.911 41.9389 200.815 42.4198C200.622 43.0932 200.429 43.6703 201.201 43.6703Z" fill="#002B4E"/>
<path fill-rule="evenodd" clip-rule="evenodd" d="M156.025 43.6701C156.604 43.6701 156.604 43.7663 156.7 43.3815L157.087 41.3615H159.403C159.21 43.1891 158.631 43.6701 159.886 43.6701C160.272 43.6701 160.272 43.5739 160.369 43.1891C160.465 42.9006 160.465 42.612 160.465 42.3234L161.044 39.053C161.237 37.9949 161.43 37.7063 160.079 37.8025L159.596 40.1111H157.28C157.28 39.7263 157.376 39.2454 157.473 38.8606C157.666 37.8987 157.666 37.8025 156.797 37.8025C156.314 37.8025 156.411 37.9949 156.218 39.053L155.639 42.3234C155.542 42.9968 155.253 43.6701 156.025 43.6701Z" fill="#002B4E"/>
<path fill-rule="evenodd" clip-rule="evenodd" d="M146.372 42.612C146.276 42.3234 145.89 41.7463 145.407 41.9386C145.021 42.131 144.924 42.4196 144.152 42.5158C142.994 42.612 142.318 41.7463 142.608 40.592C142.801 39.8225 143.573 38.9568 144.442 38.9568C145.311 38.8606 145.311 39.1491 145.697 39.4377C146.179 39.7263 146.662 39.2453 146.855 38.9568C146.565 37.3215 142.222 36.9368 141.353 40.4958C140.774 42.8044 142.704 44.3434 144.731 43.6701C145.407 43.4777 146.179 42.9967 146.372 42.612Z" fill="#002B4E"/>
<path fill-rule="evenodd" clip-rule="evenodd" d="M114.324 39.5338C116.158 38.6681 113.841 37.8024 113.359 37.7062C112.007 37.5138 110.945 38.1872 110.366 38.8605C108.822 40.4957 109.111 43.67 111.814 43.7662C112.683 43.7662 114.807 43.0928 114.131 42.3233C113.552 41.65 113.455 42.0348 112.876 42.3233C110.945 43.2852 109.691 41.0729 111.332 39.5338C111.621 39.2452 112.104 38.8605 112.779 38.9567C113.841 38.9567 113.648 39.5338 114.324 39.5338Z" fill="#002B4E"/>
<path fill-rule="evenodd" clip-rule="evenodd" d="M14.3191 30.2037C11.3267 30.877 11.8094 35.0132 14.5122 34.3399C17.215 33.6665 17.215 29.5304 14.3191 30.2037Z" fill="#FAB93D"/>
<path fill-rule="evenodd" clip-rule="evenodd" d="M24.9375 16.5445C23.8756 16.7369 23.0069 17.6026 22.8138 18.7569C22.6207 20.1036 23.6826 21.0655 24.9375 20.7769C27.8334 20.1036 27.7368 16.0636 24.9375 16.5445Z" fill="#FAB93D"/>
<path fill-rule="evenodd" clip-rule="evenodd" d="M189.424 41.746C189.328 42.9003 188.749 43.6698 189.907 43.6698C190.39 43.6698 190.293 43.6698 190.486 42.5155L191.065 39.3413C191.162 38.668 191.355 38.3794 191.065 37.8984H190.1L189.618 40.5918C187.204 40.8803 187.301 40.5918 187.59 38.9565C187.687 38.2832 187.783 38.3794 187.494 37.8984H186.529C186.239 38.5718 185.949 40.3994 186.336 41.0727C186.915 41.9384 188.266 41.8422 189.424 41.746Z" fill="#002B4E"/>
<path fill-rule="evenodd" clip-rule="evenodd" d="M118.475 39.0531L117.799 42.7083C117.606 43.574 117.703 43.6702 118.571 43.6702C119.054 43.6702 118.958 43.2854 119.054 42.7083C119.151 42.3235 119.151 41.9388 119.247 41.4578C119.344 40.6883 119.537 39.7264 119.73 38.9569C120.309 38.8607 120.985 39.0531 121.467 38.8607C121.564 38.7645 121.757 38.2836 121.467 37.8026C120.792 37.7064 117.799 37.7064 116.93 37.8026C116.351 39.3416 117.22 38.9569 118.475 39.0531Z" fill="#002B4E"/>
<path fill-rule="evenodd" clip-rule="evenodd" d="M15.4776 22.8935C12.8713 23.7592 13.6435 27.1258 15.9603 26.4525C18.3735 25.683 17.8909 22.0278 15.4776 22.8935Z" fill="#FAB93D"/>
<path fill-rule="evenodd" clip-rule="evenodd" d="M23.4894 24.4326C20.9796 25.2021 21.4622 28.5687 23.972 27.8954C26.2887 27.2221 25.9991 23.663 23.4894 24.4326Z" fill="#FAB93D"/>
<path fill-rule="evenodd" clip-rule="evenodd" d="M22.1378 32.2232C19.9176 32.8965 20.4968 35.7822 22.5239 35.205C24.551 34.7241 24.1649 31.646 22.1378 32.2232Z" fill="#FAB93D"/>
<path fill-rule="evenodd" clip-rule="evenodd" d="M16.9253 15.4868C16.0566 15.7754 15.5739 16.1601 15.4774 17.2182C15.3809 18.1801 16.1531 18.7573 17.2149 18.5649C19.3386 17.9877 18.9525 14.8135 16.9253 15.4868Z" fill="#FAB93D"/>
<path fill-rule="evenodd" clip-rule="evenodd" d="M18.1805 8.36816C16.443 8.9453 16.9256 11.2539 18.5666 10.6767C20.2076 10.1958 19.918 7.79102 18.1805 8.36816Z" fill="#FAB93D"/>
<path fill-rule="evenodd" clip-rule="evenodd" d="M20.9796 40.1108C19.1455 40.5917 19.4351 42.9003 21.0761 42.5155C21.6553 42.4193 22.138 41.8422 22.2345 41.1689C22.331 40.3993 21.6553 39.9184 20.9796 40.1108Z" fill="#FAB93D"/>
<path fill-rule="evenodd" clip-rule="evenodd" d="M248.887 35.4941C248.598 35.3979 248.308 35.5903 248.018 35.6865C247.922 36.8408 248.694 37.6103 249.852 37.4179C250.721 37.3217 251.59 36.456 251.687 35.7827C251.493 35.5903 251.107 35.3018 250.818 35.3018C250.528 35.5903 250.432 36.1675 249.949 36.2637C248.984 36.5522 249.466 35.7827 248.887 35.4941Z" fill="#002B4E"/>
<path fill-rule="evenodd" clip-rule="evenodd" d="M194.637 40.3994C195.506 40.3994 197.244 40.3994 198.016 40.3994C198.209 39.8223 198.306 39.2451 197.63 39.2451H194.734C194.251 39.2451 194.251 39.3413 194.155 39.8223C194.058 40.207 194.155 40.3994 194.637 40.3994Z" fill="#002B4E"/>
<path fill-rule="evenodd" clip-rule="evenodd" d="M19.6284 47.9027C18.1804 48.4798 18.6631 50.2112 19.8214 49.8265C21.0763 49.4417 20.7867 47.4217 19.6284 47.9027Z" fill="#FAB93D"/>
<path fill-rule="evenodd" clip-rule="evenodd" d="M19.6282 0.961687C18.3733 1.34645 18.4698 3.17405 19.7247 2.88548C20.9796 2.6931 20.9796 0.576928 19.6282 0.961687Z" fill="#FAB93D"/>
<path fill-rule="evenodd" clip-rule="evenodd" d="M129.48 20.9692C129.19 20.9692 129.093 20.9692 128.804 21.0654C128.611 21.0654 128.418 21.0654 128.225 21.1616C128.321 20.6807 128.418 20.3921 128.514 19.9111C128.321 20.1035 128.418 20.1035 128.321 20.4883C128.225 20.7768 128.225 20.9692 128.225 21.1616C128.418 21.2578 128.707 21.1616 128.9 21.1616C129.093 21.1616 129.286 21.1616 129.48 20.9692Z" fill="#9CADBA"/>
</svg>
