<svg width="29" height="29" viewBox="0 0 29 29" fill="none" xmlns="http://www.w3.org/2000/svg">
<path d="M13.8958 19.9375H15.1042V13.2917H13.8958V19.9375ZM14.5 11.5722C14.7111 11.5722 14.8879 11.5009 15.0305 11.3583C15.173 11.2157 15.2439 11.0389 15.2431 10.8279C15.2423 10.6168 15.171 10.4404 15.0293 10.2986C14.8875 10.1568 14.7111 10.0856 14.5 10.0847C14.2889 10.0839 14.1125 10.1552 13.9708 10.2986C13.829 10.442 13.7577 10.6188 13.7569 10.8291C13.7561 11.0393 13.8274 11.2157 13.9708 11.3583C14.1141 11.5009 14.2906 11.5722 14.5 11.5722ZM14.5036 25.375C12.9997 25.375 11.5859 25.0898 10.2624 24.5195C8.93885 23.9484 7.78731 23.1734 6.80775 22.1947C5.82819 21.2159 5.05285 20.0656 4.48171 18.7437C3.91057 17.4217 3.625 16.0084 3.625 14.5036C3.625 12.9988 3.91057 11.5851 4.48171 10.2624C5.05204 8.93885 5.82578 7.7873 6.80292 6.80775C7.78006 5.82819 8.93079 5.05285 10.2551 4.48171C11.5795 3.91057 12.9932 3.625 14.4964 3.625C15.9995 3.625 17.4133 3.91057 18.7376 4.48171C20.0612 5.05204 21.2127 5.82618 22.1922 6.80412C23.1718 7.78207 23.9472 8.93281 24.5183 10.2563C25.0894 11.5799 25.375 12.9932 25.375 14.4964C25.375 15.9995 25.0898 17.4133 24.5195 18.7376C23.9492 20.062 23.1742 21.2135 22.1947 22.1922C21.2151 23.171 20.0648 23.9463 18.7437 24.5183C17.4226 25.0902 16.0092 25.3758 14.5036 25.375Z" fill="#004FDF"/>
</svg>
