<svg width="815" height="662" viewBox="0 0 815 662" fill="none" xmlns="http://www.w3.org/2000/svg">
<g opacity="0.4">
<path d="M436.917 239.858C451.177 239.858 464.768 242.839 477.124 248.201C478.05 228.04 484.999 209.396 496.147 193.963C488.298 192.322 480.202 191.449 471.912 191.449H393.367C385.095 191.449 376.998 192.314 369.211 193.936C381.091 210.42 388.19 230.536 388.305 252.32C402.742 244.383 419.305 239.858 436.917 239.858Z" fill="#C8DCFF"/>
<path d="M432.622 185.135C483.746 185.135 525.189 143.691 525.189 92.5673C525.189 41.4438 483.746 0 432.622 0C381.499 0 340.055 41.4438 340.055 92.5673C340.055 143.691 381.499 185.135 432.622 185.135Z" fill="#C8DCFF"/>
<path d="M578.008 343.088C625.121 343.088 663.291 304.901 663.291 257.806C663.291 210.693 625.121 172.523 578.008 172.523C531.336 172.523 493.493 210.014 492.787 256.518C519.677 273.38 538.533 301.902 541.972 335.01C552.926 340.142 565.105 343.088 578.008 343.088Z" fill="#C8DCFF"/>
<path d="M287.253 172.515C240.132 172.515 201.962 210.693 201.962 257.797C201.962 304.901 240.132 343.071 287.253 343.071C303.939 343.071 319.453 338.194 332.611 329.913C336.8 302.652 351.414 278.814 372.289 262.586C372.377 260.99 372.527 259.411 372.527 257.797C372.527 210.693 334.34 172.515 287.253 172.515Z" fill="#C8DCFF"/>
<path d="M633.402 170.698C660.292 187.56 679.148 216.082 682.579 249.198C693.524 254.322 705.712 257.277 718.614 257.277C765.727 257.277 803.897 219.098 803.897 171.994C803.897 124.89 765.727 86.7114 718.614 86.7114C671.952 86.7026 634.108 124.202 633.402 170.698Z" fill="#C8DCFF"/>
<path d="M436.916 431.139C484.022 431.139 522.208 392.953 522.208 345.848C522.208 298.743 484.022 260.557 436.916 260.557C389.811 260.557 351.625 298.743 351.625 345.848C351.625 392.953 389.811 431.139 436.916 431.139Z" fill="#C8DCFF"/>
<path d="M614.202 348.9H542.378C541.593 377.634 529.334 403.509 509.932 422.109C563.447 438.037 602.614 487.672 602.614 546.303V573.572C673.521 570.953 714.389 550.88 717.079 549.504L722.777 546.611H723.367V458.101C723.385 397.883 674.403 348.9 614.202 348.9Z" fill="#C8DCFF"/>
<path d="M754.8 263.089H682.993C682.217 291.822 669.949 317.698 650.556 336.298C704.071 352.225 743.229 401.852 743.229 460.482V487.752C814.127 485.141 855.005 465.068 857.694 463.684L863.392 460.8H864V372.289C864 312.08 815.018 263.089 754.8 263.089Z" fill="#C8DCFF"/>
<path d="M363.849 422.101C344.543 403.589 332.32 377.854 331.42 349.306C328.766 349.112 326.129 348.892 323.412 348.892H251.068C190.85 348.892 141.858 397.883 141.858 458.101V546.62L142.079 547.987L148.173 549.91C194.271 564.312 235.422 570.926 271.149 573.025V546.294C271.167 487.672 310.316 438.037 363.849 422.101Z" fill="#C8DCFF"/>
<path d="M473.093 436.951H400.722C340.504 436.951 291.513 485.96 291.513 546.152V634.671L291.742 636.056L297.827 637.961C355.294 655.908 405.22 661.905 446.3 661.905C526.565 661.905 573.078 639.019 575.953 637.564L581.65 634.671H582.25V546.152C582.276 485.942 533.294 436.951 473.093 436.951Z" fill="#C8DCFF"/>
<path d="M145.395 259.994C158.298 259.994 170.477 257.039 181.431 251.915C184.87 218.799 203.717 190.269 230.607 173.406C229.901 126.92 192.058 89.4199 145.395 89.4199C98.2734 89.4199 60.1035 127.599 60.1035 174.711C60.1035 221.815 98.2734 259.994 145.395 259.994Z" fill="#C8DCFF"/>
<path d="M213.445 339.024C194.06 320.424 181.792 294.539 181.016 265.797H109.201C48.9824 265.806 0 314.797 0 375.007V463.526H0.608531L6.3058 466.41C9.0045 467.768 49.8643 487.867 120.771 490.469V463.2C120.771 404.578 159.92 354.943 213.445 339.024Z" fill="#C8DCFF"/>
<path d="M245.141 164.084C255.372 159.939 270.982 154.85 285.886 154.85C303.234 154.85 320.202 159.313 335.336 167.806C338.705 164.498 341.792 160.9 344.596 157.046C330.221 138.164 322.372 115.022 322.372 91.2188C322.372 75.1853 325.952 59.2753 332.779 44.8205C317.239 30.7802 297.413 23.1162 276.344 23.1162C237.998 23.1162 204.617 49.0714 194.845 85.6274C223.49 102.296 242.151 131.435 245.141 164.084Z" fill="#C8DCFF"/>
<path d="M521.37 152.223C524.333 156.932 527.799 161.368 531.733 165.496C545.738 158.511 561.136 154.842 576.641 154.842C591.889 154.842 606.503 158.74 616.081 162.003C619.079 126.611 640.483 95.3733 672.524 79.5427C660.777 45.9852 628.974 23.0815 592.965 23.0815C569.682 23.0815 547.634 32.6417 531.715 49.4689C537.307 62.8036 540.138 76.8175 540.138 91.1842C540.129 113.188 533.655 134.161 521.37 152.223Z" fill="#C8DCFF"/>
</g>
</svg>
