<svg width="815" height="662" viewBox="0 0 815 662" fill="none" xmlns="http://www.w3.org/2000/svg">
<g opacity="0.4">
<path d="M387.917 239.858C402.177 239.858 415.768 242.839 428.124 248.201C429.05 228.04 435.999 209.396 447.147 193.963C439.298 192.322 431.202 191.449 422.912 191.449H344.367C336.095 191.449 327.998 192.314 320.211 193.936C332.091 210.42 339.19 230.536 339.305 252.32C353.742 244.383 370.305 239.858 387.917 239.858Z" fill="#C8DCFF"/>
<path d="M383.622 185.135C434.746 185.135 476.189 143.691 476.189 92.5673C476.189 41.4438 434.746 0 383.622 0C332.499 0 291.055 41.4438 291.055 92.5673C291.055 143.691 332.499 185.135 383.622 185.135Z" fill="#C8DCFF"/>
<path d="M529.008 343.088C576.121 343.088 614.291 304.901 614.291 257.806C614.291 210.693 576.121 172.523 529.008 172.523C482.336 172.523 444.493 210.014 443.787 256.518C470.677 273.38 489.533 301.902 492.972 335.01C503.926 340.142 516.105 343.088 529.008 343.088Z" fill="#C8DCFF"/>
<path d="M238.253 172.515C191.132 172.515 152.962 210.693 152.962 257.797C152.962 304.901 191.132 343.071 238.253 343.071C254.939 343.071 270.453 338.194 283.611 329.913C287.8 302.652 302.414 278.814 323.289 262.586C323.377 260.99 323.527 259.411 323.527 257.797C323.527 210.693 285.34 172.515 238.253 172.515Z" fill="#C8DCFF"/>
<path d="M584.402 170.698C611.292 187.56 630.148 216.082 633.579 249.198C644.524 254.322 656.712 257.277 669.614 257.277C716.727 257.277 754.897 219.098 754.897 171.994C754.897 124.89 716.727 86.7114 669.614 86.7114C622.952 86.7026 585.108 124.202 584.402 170.698Z" fill="#C8DCFF"/>
<path d="M387.916 431.139C435.022 431.139 473.208 392.953 473.208 345.848C473.208 298.743 435.022 260.557 387.916 260.557C340.811 260.557 302.625 298.743 302.625 345.848C302.625 392.953 340.811 431.139 387.916 431.139Z" fill="#C8DCFF"/>
<path d="M565.202 348.9H493.378C492.593 377.634 480.334 403.509 460.932 422.109C514.447 438.037 553.614 487.672 553.614 546.303V573.572C624.521 570.953 665.389 550.88 668.079 549.504L673.777 546.611H674.367V458.101C674.385 397.883 625.403 348.9 565.202 348.9Z" fill="#C8DCFF"/>
<path d="M705.8 263.089H633.993C633.217 291.822 620.949 317.698 601.556 336.298C655.071 352.225 694.229 401.852 694.229 460.482V487.752C765.127 485.141 806.005 465.068 808.694 463.684L814.392 460.8H815V372.289C815 312.08 766.018 263.089 705.8 263.089Z" fill="#C8DCFF"/>
<path d="M314.849 422.101C295.543 403.589 283.32 377.854 282.42 349.306C279.766 349.112 277.129 348.892 274.412 348.892H202.068C141.85 348.892 92.8584 397.883 92.8584 458.101V546.62L93.0789 547.987L99.173 549.91C145.271 564.312 186.422 570.926 222.149 573.025V546.294C222.167 487.672 261.316 438.037 314.849 422.101Z" fill="#C8DCFF"/>
<path d="M424.093 436.951H351.722C291.504 436.951 242.513 485.96 242.513 546.152V634.671L242.742 636.056L248.827 637.961C306.294 655.908 356.22 661.905 397.3 661.905C477.565 661.905 524.078 639.019 526.953 637.564L532.65 634.671H533.25V546.152C533.276 485.942 484.294 436.951 424.093 436.951Z" fill="#C8DCFF"/>
<path d="M96.3949 259.994C109.298 259.994 121.477 257.039 132.431 251.915C135.87 218.799 154.717 190.269 181.607 173.406C180.901 126.92 143.058 89.4199 96.3949 89.4199C49.2734 89.4199 11.1035 127.599 11.1035 174.711C11.1035 221.815 49.2734 259.994 96.3949 259.994Z" fill="#C8DCFF"/>
<path d="M164.445 339.024C145.06 320.424 132.792 294.539 132.016 265.797H60.2005C-0.0176315 265.806 -49 314.797 -49 375.007V463.526H-48.3915L-42.6942 466.41C-39.9955 467.768 0.8643 487.867 71.7714 490.469V463.2C71.7714 404.578 110.92 354.943 164.445 339.024Z" fill="#C8DCFF"/>
<path d="M196.141 164.084C206.372 159.939 221.982 154.85 236.886 154.85C254.234 154.85 271.202 159.313 286.336 167.806C289.705 164.498 292.792 160.9 295.596 157.046C281.221 138.164 273.372 115.022 273.372 91.2188C273.372 75.1853 276.952 59.2753 283.779 44.8205C268.239 30.7802 248.413 23.1162 227.344 23.1162C188.998 23.1162 155.617 49.0714 145.845 85.6274C174.49 102.296 193.151 131.435 196.141 164.084Z" fill="#C8DCFF"/>
<path d="M472.37 152.223C475.333 156.932 478.799 161.368 482.733 165.496C496.738 158.511 512.136 154.842 527.641 154.842C542.889 154.842 557.503 158.74 567.081 162.003C570.079 126.611 591.483 95.3733 623.524 79.5427C611.777 45.9852 579.974 23.0815 543.965 23.0815C520.682 23.0815 498.634 32.6417 482.715 49.4689C488.307 62.8036 491.138 76.8175 491.138 91.1842C491.129 113.188 484.655 134.161 472.37 152.223Z" fill="#C8DCFF"/>
</g>
</svg>
