<svg width="291" height="402" viewBox="0 0 291 402" fill="none" xmlns="http://www.w3.org/2000/svg">
<path d="M145.404 170.583C192.509 170.583 230.695 132.397 230.695 85.2914C230.695 38.1863 192.509 0 145.404 0C98.2986 0 60.1123 38.1863 60.1123 85.2914C60.1123 132.397 98.2986 170.583 145.404 170.583Z" fill="#004FDF"/>
<path d="M181.58 176.395H109.209C48.9912 176.395 0 225.403 0 285.595V374.114L0.22931 375.499L6.31461 377.404C63.7811 395.351 113.707 401.348 154.787 401.348C235.052 401.348 281.565 378.462 284.44 377.007L290.137 374.114H290.737V285.595C290.763 225.386 241.781 176.395 181.58 176.395Z" fill="#004FDF"/>
</svg>
