<svg width="28" height="28" viewBox="0 0 28 28" fill="none" xmlns="http://www.w3.org/2000/svg">
<rect width="28" height="28" rx="14" fill="white"/>
<g clip-path="url(#clip0_348_1461)">
<path fill-rule="evenodd" clip-rule="evenodd" d="M13.411 10.91C13.5673 10.7538 13.7792 10.666 14.0002 10.666C14.2211 10.666 14.433 10.7538 14.5893 10.91L19.3035 15.6242C19.4553 15.7813 19.5393 15.9918 19.5374 16.2103C19.5355 16.4288 19.4478 16.6378 19.2933 16.7924C19.1388 16.9469 18.9298 17.0345 18.7113 17.0364C18.4928 17.0383 18.2823 16.9543 18.1252 16.8025L14.0002 12.6775L9.87515 16.8025C9.71798 16.9543 9.50748 17.0383 9.28898 17.0364C9.07049 17.0345 8.86147 16.9469 8.70697 16.7924C8.55246 16.6378 8.46482 16.4288 8.46292 16.2103C8.46102 15.9918 8.54502 15.7813 8.69682 15.6242L13.411 10.91Z" fill="#00171F"/>
</g>
<defs>
<clipPath id="clip0_348_1461">
<rect width="20" height="20" fill="white" transform="translate(4 4)"/>
</clipPath>
</defs>
</svg>
