<svg width="912" height="705" viewBox="0 0 912 705" fill="none" xmlns="http://www.w3.org/2000/svg">
<g clip-path="url(#clip0_348_826)">
<rect width="912" height="705" rx="20" fill="#00171F"/>
<rect x="23.8662" y="186.113" width="11.9048" height="11.9048" stroke="white" stroke-opacity="0.08" stroke-width="0.238095"/>
<rect x="35.7705" y="186.113" width="11.9048" height="11.9048" stroke="white" stroke-opacity="0.08" stroke-width="0.238095"/>
<rect x="47.6758" y="186.113" width="11.9048" height="11.9048" stroke="white" stroke-opacity="0.08" stroke-width="0.238095"/>
<rect x="59.5801" y="186.113" width="11.9048" height="11.9048" stroke="white" stroke-opacity="0.08" stroke-width="0.238095"/>
<rect x="71.4854" y="186.113" width="11.9048" height="11.9048" stroke="white" stroke-opacity="0.08" stroke-width="0.238095"/>
<rect x="83.3896" y="186.113" width="11.9048" height="11.9048" stroke="white" stroke-opacity="0.08" stroke-width="0.238095"/>
<rect x="95.2949" y="186.113" width="11.9048" height="11.9048" stroke="white" stroke-opacity="0.08" stroke-width="0.238095"/>
<rect x="107.199" y="186.113" width="11.9048" height="11.9048" stroke="white" stroke-opacity="0.08" stroke-width="0.238095"/>
<rect x="119.104" y="186.113" width="11.9048" height="11.9048" stroke="white" stroke-opacity="0.08" stroke-width="0.238095"/>
<rect x="131.009" y="186.113" width="11.9048" height="11.9048" stroke="white" stroke-opacity="0.08" stroke-width="0.238095"/>
<rect x="142.914" y="186.113" width="11.9048" height="11.9048" stroke="white" stroke-opacity="0.08" stroke-width="0.238095"/>
<rect x="154.818" y="186.113" width="11.9048" height="11.9048" stroke="white" stroke-opacity="0.08" stroke-width="0.238095"/>
<rect x="166.724" y="186.113" width="11.9048" height="11.9048" stroke="white" stroke-opacity="0.08" stroke-width="0.238095"/>
<rect x="178.628" y="186.113" width="11.9048" height="11.9048" stroke="white" stroke-opacity="0.08" stroke-width="0.238095"/>
<rect x="190.533" y="186.113" width="11.9048" height="11.9048" stroke="white" stroke-opacity="0.08" stroke-width="0.238095"/>
<rect x="202.438" y="186.113" width="11.9048" height="11.9048" stroke="white" stroke-opacity="0.08" stroke-width="0.238095"/>
<rect x="214.343" y="186.113" width="11.9048" height="11.9048" stroke="white" stroke-opacity="0.08" stroke-width="0.238095"/>
<rect x="226.247" y="186.113" width="11.9048" height="11.9048" stroke="white" stroke-opacity="0.08" stroke-width="0.238095"/>
<rect x="238.152" y="186.113" width="11.9048" height="11.9048" stroke="white" stroke-opacity="0.08" stroke-width="0.238095"/>
<rect x="250.057" y="186.113" width="11.9048" height="11.9048" stroke="white" stroke-opacity="0.08" stroke-width="0.238095"/>
<rect x="261.962" y="186.113" width="11.9048" height="11.9048" stroke="white" stroke-opacity="0.08" stroke-width="0.238095"/>
<rect x="23.8662" y="228.188" width="11.9048" height="11.9048" stroke="white" stroke-opacity="0.08" stroke-width="0.238095"/>
<rect x="35.7705" y="228.188" width="11.9048" height="11.9048" stroke="white" stroke-opacity="0.08" stroke-width="0.238095"/>
<rect x="47.6758" y="228.188" width="11.9048" height="11.9048" fill="white" fill-opacity="0.09" stroke="white" stroke-opacity="0.08" stroke-width="0.238095"/>
<rect x="59.5801" y="228.188" width="11.9048" height="11.9048" stroke="white" stroke-opacity="0.08" stroke-width="0.238095"/>
<rect x="71.4854" y="228.188" width="11.9048" height="11.9048" stroke="white" stroke-opacity="0.08" stroke-width="0.238095"/>
<rect x="83.3896" y="228.188" width="11.9048" height="11.9048" stroke="white" stroke-opacity="0.08" stroke-width="0.238095"/>
<rect x="95.2949" y="228.188" width="11.9048" height="11.9048" stroke="white" stroke-opacity="0.08" stroke-width="0.238095"/>
<rect x="107.199" y="228.188" width="11.9048" height="11.9048" stroke="white" stroke-opacity="0.08" stroke-width="0.238095"/>
<rect x="119.104" y="228.188" width="11.9048" height="11.9048" stroke="white" stroke-opacity="0.08" stroke-width="0.238095"/>
<rect x="131.009" y="228.188" width="11.9048" height="11.9048" fill="white" fill-opacity="0.09" stroke="white" stroke-opacity="0.08" stroke-width="0.238095"/>
<rect x="142.914" y="228.188" width="11.9048" height="11.9048" stroke="white" stroke-opacity="0.08" stroke-width="0.238095"/>
<rect x="154.818" y="228.188" width="11.9048" height="11.9048" stroke="white" stroke-opacity="0.08" stroke-width="0.238095"/>
<rect x="166.724" y="228.188" width="11.9048" height="11.9048" stroke="white" stroke-opacity="0.08" stroke-width="0.238095"/>
<rect x="178.628" y="228.188" width="11.9048" height="11.9048" stroke="white" stroke-opacity="0.08" stroke-width="0.238095"/>
<rect x="190.533" y="228.188" width="11.9048" height="11.9048" stroke="white" stroke-opacity="0.08" stroke-width="0.238095"/>
<rect x="202.438" y="228.188" width="11.9048" height="11.9048" stroke="white" stroke-opacity="0.08" stroke-width="0.238095"/>
<rect x="214.343" y="228.188" width="11.9048" height="11.9048" stroke="white" stroke-opacity="0.08" stroke-width="0.238095"/>
<rect x="226.247" y="228.188" width="11.9048" height="11.9048" stroke="white" stroke-opacity="0.08" stroke-width="0.238095"/>
<rect x="238.152" y="228.188" width="11.9048" height="11.9048" stroke="white" stroke-opacity="0.08" stroke-width="0.238095"/>
<rect x="250.057" y="228.188" width="11.9048" height="11.9048" stroke="white" stroke-opacity="0.08" stroke-width="0.238095"/>
<rect x="261.962" y="228.188" width="11.9048" height="11.9048" stroke="white" stroke-opacity="0.08" stroke-width="0.238095"/>
<rect x="23.8662" y="269.027" width="11.9048" height="11.9048" stroke="white" stroke-opacity="0.08" stroke-width="0.238095"/>
<rect x="35.7705" y="269.027" width="11.9048" height="11.9048" stroke="white" stroke-opacity="0.08" stroke-width="0.238095"/>
<rect x="47.6758" y="269.027" width="11.9048" height="11.9048" stroke="white" stroke-opacity="0.08" stroke-width="0.238095"/>
<rect x="59.5801" y="269.027" width="11.9048" height="11.9048" stroke="white" stroke-opacity="0.08" stroke-width="0.238095"/>
<rect x="71.4854" y="269.027" width="11.9048" height="11.9048" stroke="white" stroke-opacity="0.08" stroke-width="0.238095"/>
<rect x="83.3896" y="269.027" width="11.9048" height="11.9048" stroke="white" stroke-opacity="0.08" stroke-width="0.238095"/>
<rect x="95.2949" y="269.027" width="11.9048" height="11.9048" stroke="white" stroke-opacity="0.08" stroke-width="0.238095"/>
<rect x="107.199" y="269.027" width="11.9048" height="11.9048" stroke="white" stroke-opacity="0.08" stroke-width="0.238095"/>
<rect x="119.104" y="269.027" width="11.9048" height="11.9048" stroke="white" stroke-opacity="0.08" stroke-width="0.238095"/>
<rect x="131.009" y="269.027" width="11.9048" height="11.9048" stroke="white" stroke-opacity="0.08" stroke-width="0.238095"/>
<rect x="142.914" y="269.027" width="11.9048" height="11.9048" stroke="white" stroke-opacity="0.08" stroke-width="0.238095"/>
<rect x="154.818" y="269.027" width="11.9048" height="11.9048" stroke="white" stroke-opacity="0.08" stroke-width="0.238095"/>
<rect x="166.724" y="269.027" width="11.9048" height="11.9048" stroke="white" stroke-opacity="0.08" stroke-width="0.238095"/>
<rect x="178.628" y="269.027" width="11.9048" height="11.9048" stroke="white" stroke-opacity="0.08" stroke-width="0.238095"/>
<rect x="190.533" y="269.027" width="11.9048" height="11.9048" stroke="white" stroke-opacity="0.08" stroke-width="0.238095"/>
<rect x="202.438" y="269.027" width="11.9048" height="11.9048" stroke="white" stroke-opacity="0.08" stroke-width="0.238095"/>
<rect x="214.343" y="269.027" width="11.9048" height="11.9048" fill="white" fill-opacity="0.09" stroke="white" stroke-opacity="0.08" stroke-width="0.238095"/>
<rect x="226.247" y="269.027" width="11.9048" height="11.9048" stroke="white" stroke-opacity="0.08" stroke-width="0.238095"/>
<rect x="238.152" y="269.027" width="11.9048" height="11.9048" stroke="white" stroke-opacity="0.08" stroke-width="0.238095"/>
<rect x="250.057" y="269.027" width="11.9048" height="11.9048" stroke="white" stroke-opacity="0.08" stroke-width="0.238095"/>
<rect x="261.962" y="269.027" width="11.9048" height="11.9048" stroke="white" stroke-opacity="0.08" stroke-width="0.238095"/>
<rect x="23.8662" y="311.104" width="11.9048" height="11.9048" stroke="white" stroke-opacity="0.08" stroke-width="0.238095"/>
<rect x="35.7705" y="311.104" width="11.9048" height="11.9048" stroke="white" stroke-opacity="0.08" stroke-width="0.238095"/>
<rect x="47.6758" y="311.104" width="11.9048" height="11.9048" stroke="white" stroke-opacity="0.08" stroke-width="0.238095"/>
<rect x="59.5801" y="311.104" width="11.9048" height="11.9048" stroke="white" stroke-opacity="0.08" stroke-width="0.238095"/>
<rect x="71.4854" y="311.104" width="11.9048" height="11.9048" stroke="white" stroke-opacity="0.08" stroke-width="0.238095"/>
<rect x="83.3896" y="311.104" width="11.9048" height="11.9048" stroke="white" stroke-opacity="0.08" stroke-width="0.238095"/>
<rect x="95.2949" y="311.104" width="11.9048" height="11.9048" stroke="white" stroke-opacity="0.08" stroke-width="0.238095"/>
<rect x="107.199" y="311.104" width="11.9048" height="11.9048" stroke="white" stroke-opacity="0.08" stroke-width="0.238095"/>
<rect x="119.104" y="311.104" width="11.9048" height="11.9048" stroke="white" stroke-opacity="0.08" stroke-width="0.238095"/>
<rect x="131.009" y="311.104" width="11.9048" height="11.9048" stroke="white" stroke-opacity="0.08" stroke-width="0.238095"/>
<rect x="142.914" y="311.104" width="11.9048" height="11.9048" stroke="white" stroke-opacity="0.08" stroke-width="0.238095"/>
<rect x="154.818" y="311.104" width="11.9048" height="11.9048" stroke="white" stroke-opacity="0.08" stroke-width="0.238095"/>
<rect x="166.724" y="311.104" width="11.9048" height="11.9048" stroke="white" stroke-opacity="0.08" stroke-width="0.238095"/>
<rect x="178.628" y="311.104" width="11.9048" height="11.9048" stroke="white" stroke-opacity="0.08" stroke-width="0.238095"/>
<rect x="190.533" y="311.104" width="11.9048" height="11.9048" stroke="white" stroke-opacity="0.08" stroke-width="0.238095"/>
<rect x="202.438" y="311.104" width="11.9048" height="11.9048" stroke="white" stroke-opacity="0.08" stroke-width="0.238095"/>
<rect x="214.343" y="311.104" width="11.9048" height="11.9048" stroke="white" stroke-opacity="0.08" stroke-width="0.238095"/>
<rect x="226.247" y="311.104" width="11.9048" height="11.9048" stroke="white" stroke-opacity="0.08" stroke-width="0.238095"/>
<rect x="238.152" y="311.104" width="11.9048" height="11.9048" stroke="white" stroke-opacity="0.08" stroke-width="0.238095"/>
<rect x="250.057" y="311.104" width="11.9048" height="11.9048" stroke="white" stroke-opacity="0.08" stroke-width="0.238095"/>
<rect x="261.962" y="311.104" width="11.9048" height="11.9048" stroke="white" stroke-opacity="0.08" stroke-width="0.238095"/>
<rect x="23.8662" y="351.941" width="11.9048" height="11.9048" stroke="white" stroke-opacity="0.08" stroke-width="0.238095"/>
<rect x="35.7705" y="351.941" width="11.9048" height="11.9048" stroke="white" stroke-opacity="0.08" stroke-width="0.238095"/>
<rect x="47.6758" y="351.941" width="11.9048" height="11.9048" stroke="white" stroke-opacity="0.08" stroke-width="0.238095"/>
<rect x="59.5801" y="351.941" width="11.9048" height="11.9048" fill="white" fill-opacity="0.09" stroke="white" stroke-opacity="0.08" stroke-width="0.238095"/>
<rect x="71.4854" y="351.941" width="11.9048" height="11.9048" stroke="white" stroke-opacity="0.08" stroke-width="0.238095"/>
<rect x="83.3896" y="351.941" width="11.9048" height="11.9048" stroke="white" stroke-opacity="0.08" stroke-width="0.238095"/>
<rect x="95.2949" y="351.941" width="11.9048" height="11.9048" stroke="white" stroke-opacity="0.08" stroke-width="0.238095"/>
<rect x="107.199" y="351.941" width="11.9048" height="11.9048" stroke="white" stroke-opacity="0.08" stroke-width="0.238095"/>
<rect x="119.104" y="351.941" width="11.9048" height="11.9048" stroke="white" stroke-opacity="0.08" stroke-width="0.238095"/>
<rect x="131.009" y="351.941" width="11.9048" height="11.9048" stroke="white" stroke-opacity="0.08" stroke-width="0.238095"/>
<rect x="142.914" y="351.941" width="11.9048" height="11.9048" stroke="white" stroke-opacity="0.08" stroke-width="0.238095"/>
<rect x="154.818" y="351.941" width="11.9048" height="11.9048" stroke="white" stroke-opacity="0.08" stroke-width="0.238095"/>
<rect x="166.724" y="351.941" width="11.9048" height="11.9048" fill="white" fill-opacity="0.09" stroke="white" stroke-opacity="0.08" stroke-width="0.238095"/>
<rect x="178.628" y="351.941" width="11.9048" height="11.9048" stroke="white" stroke-opacity="0.08" stroke-width="0.238095"/>
<rect x="190.533" y="351.941" width="11.9048" height="11.9048" stroke="white" stroke-opacity="0.08" stroke-width="0.238095"/>
<rect x="202.438" y="351.941" width="11.9048" height="11.9048" stroke="white" stroke-opacity="0.08" stroke-width="0.238095"/>
<rect x="214.343" y="351.941" width="11.9048" height="11.9048" stroke="white" stroke-opacity="0.08" stroke-width="0.238095"/>
<rect x="226.247" y="351.941" width="11.9048" height="11.9048" stroke="white" stroke-opacity="0.08" stroke-width="0.238095"/>
<rect x="238.152" y="351.941" width="11.9048" height="11.9048" stroke="white" stroke-opacity="0.08" stroke-width="0.238095"/>
<rect x="250.057" y="351.941" width="11.9048" height="11.9048" stroke="white" stroke-opacity="0.08" stroke-width="0.238095"/>
<rect x="261.961" y="351.941" width="11.9048" height="11.9048" stroke="white" stroke-opacity="0.08" stroke-width="0.238095"/>
<rect x="23.8662" y="394.018" width="11.9048" height="11.9048" stroke="white" stroke-opacity="0.08" stroke-width="0.238095"/>
<rect x="35.7705" y="394.018" width="11.9048" height="11.9048" stroke="white" stroke-opacity="0.08" stroke-width="0.238095"/>
<rect x="47.6758" y="394.018" width="11.9048" height="11.9048" stroke="white" stroke-opacity="0.08" stroke-width="0.238095"/>
<rect x="59.5801" y="394.018" width="11.9048" height="11.9048" stroke="white" stroke-opacity="0.08" stroke-width="0.238095"/>
<rect x="71.4854" y="394.018" width="11.9048" height="11.9048" stroke="white" stroke-opacity="0.08" stroke-width="0.238095"/>
<rect x="83.3896" y="394.018" width="11.9048" height="11.9048" stroke="white" stroke-opacity="0.08" stroke-width="0.238095"/>
<rect x="95.2949" y="394.018" width="11.9048" height="11.9048" stroke="white" stroke-opacity="0.08" stroke-width="0.238095"/>
<rect x="107.199" y="394.018" width="11.9048" height="11.9048" stroke="white" stroke-opacity="0.08" stroke-width="0.238095"/>
<rect x="119.104" y="394.018" width="11.9048" height="11.9048" stroke="white" stroke-opacity="0.08" stroke-width="0.238095"/>
<rect x="131.009" y="394.018" width="11.9048" height="11.9048" stroke="white" stroke-opacity="0.08" stroke-width="0.238095"/>
<rect x="142.914" y="394.018" width="11.9048" height="11.9048" stroke="white" stroke-opacity="0.08" stroke-width="0.238095"/>
<rect x="154.818" y="394.018" width="11.9048" height="11.9048" stroke="white" stroke-opacity="0.08" stroke-width="0.238095"/>
<rect x="166.724" y="394.018" width="11.9048" height="11.9048" stroke="white" stroke-opacity="0.08" stroke-width="0.238095"/>
<rect x="178.628" y="394.018" width="11.9048" height="11.9048" stroke="white" stroke-opacity="0.08" stroke-width="0.238095"/>
<rect x="190.533" y="394.018" width="11.9048" height="11.9048" stroke="white" stroke-opacity="0.08" stroke-width="0.238095"/>
<rect x="202.438" y="394.018" width="11.9048" height="11.9048" stroke="white" stroke-opacity="0.08" stroke-width="0.238095"/>
<rect x="214.343" y="394.018" width="11.9048" height="11.9048" stroke="white" stroke-opacity="0.08" stroke-width="0.238095"/>
<rect x="226.247" y="394.018" width="11.9048" height="11.9048" stroke="white" stroke-opacity="0.08" stroke-width="0.238095"/>
<rect x="238.152" y="394.018" width="11.9048" height="11.9048" fill="white" fill-opacity="0.09" stroke="white" stroke-opacity="0.08" stroke-width="0.238095"/>
<rect x="250.057" y="394.018" width="11.9048" height="11.9048" stroke="white" stroke-opacity="0.08" stroke-width="0.238095"/>
<rect x="261.962" y="394.018" width="11.9048" height="11.9048" stroke="white" stroke-opacity="0.08" stroke-width="0.238095"/>
<rect x="23.8662" y="434.855" width="11.9048" height="11.9048" stroke="white" stroke-opacity="0.08" stroke-width="0.238095"/>
<rect x="35.7705" y="434.855" width="11.9048" height="11.9048" stroke="white" stroke-opacity="0.08" stroke-width="0.238095"/>
<rect x="47.6758" y="434.855" width="11.9048" height="11.9048" stroke="white" stroke-opacity="0.08" stroke-width="0.238095"/>
<rect x="59.5801" y="434.855" width="11.9048" height="11.9048" stroke="white" stroke-opacity="0.08" stroke-width="0.238095"/>
<rect x="71.4854" y="434.855" width="11.9048" height="11.9048" stroke="white" stroke-opacity="0.08" stroke-width="0.238095"/>
<rect x="83.3896" y="434.855" width="11.9048" height="11.9048" stroke="white" stroke-opacity="0.08" stroke-width="0.238095"/>
<rect x="95.2949" y="434.855" width="11.9048" height="11.9048" stroke="white" stroke-opacity="0.08" stroke-width="0.238095"/>
<rect x="107.199" y="434.855" width="11.9048" height="11.9048" stroke="white" stroke-opacity="0.08" stroke-width="0.238095"/>
<rect x="119.104" y="434.855" width="11.9048" height="11.9048" stroke="white" stroke-opacity="0.08" stroke-width="0.238095"/>
<rect x="131.009" y="434.855" width="11.9048" height="11.9048" stroke="white" stroke-opacity="0.08" stroke-width="0.238095"/>
<rect x="142.914" y="434.855" width="11.9048" height="11.9048" stroke="white" stroke-opacity="0.08" stroke-width="0.238095"/>
<rect x="154.818" y="434.855" width="11.9048" height="11.9048" stroke="white" stroke-opacity="0.08" stroke-width="0.238095"/>
<rect x="166.724" y="434.855" width="11.9048" height="11.9048" stroke="white" stroke-opacity="0.08" stroke-width="0.238095"/>
<rect x="178.628" y="434.855" width="11.9048" height="11.9048" stroke="white" stroke-opacity="0.08" stroke-width="0.238095"/>
<rect x="190.533" y="434.855" width="11.9048" height="11.9048" stroke="white" stroke-opacity="0.08" stroke-width="0.238095"/>
<rect x="202.438" y="434.855" width="11.9048" height="11.9048" stroke="white" stroke-opacity="0.08" stroke-width="0.238095"/>
<rect x="214.343" y="434.855" width="11.9048" height="11.9048" stroke="white" stroke-opacity="0.08" stroke-width="0.238095"/>
<rect x="226.247" y="434.855" width="11.9048" height="11.9048" stroke="white" stroke-opacity="0.08" stroke-width="0.238095"/>
<rect x="238.152" y="434.855" width="11.9048" height="11.9048" stroke="white" stroke-opacity="0.08" stroke-width="0.238095"/>
<rect x="250.057" y="434.855" width="11.9048" height="11.9048" stroke="white" stroke-opacity="0.08" stroke-width="0.238095"/>
<rect x="261.962" y="434.855" width="11.9048" height="11.9048" stroke="white" stroke-opacity="0.08" stroke-width="0.238095"/>
<rect x="23.8662" y="475.694" width="11.9048" height="11.9048" stroke="white" stroke-opacity="0.08" stroke-width="0.238095"/>
<rect x="35.7705" y="475.694" width="11.9048" height="11.9048" stroke="white" stroke-opacity="0.08" stroke-width="0.238095"/>
<rect x="47.6758" y="475.694" width="11.9048" height="11.9048" stroke="white" stroke-opacity="0.08" stroke-width="0.238095"/>
<rect x="59.5801" y="475.694" width="11.9048" height="11.9048" stroke="white" stroke-opacity="0.08" stroke-width="0.238095"/>
<rect x="71.4854" y="475.694" width="11.9048" height="11.9048" stroke="white" stroke-opacity="0.08" stroke-width="0.238095"/>
<rect x="83.3896" y="475.694" width="11.9048" height="11.9048" stroke="white" stroke-opacity="0.08" stroke-width="0.238095"/>
<rect x="95.2949" y="475.694" width="11.9048" height="11.9048" stroke="white" stroke-opacity="0.08" stroke-width="0.238095"/>
<rect x="107.199" y="475.694" width="11.9048" height="11.9048" stroke="white" stroke-opacity="0.08" stroke-width="0.238095"/>
<rect x="119.104" y="475.694" width="11.9048" height="11.9048" fill="white" fill-opacity="0.09" stroke="white" stroke-opacity="0.08" stroke-width="0.238095"/>
<rect x="131.009" y="475.694" width="11.9048" height="11.9048" stroke="white" stroke-opacity="0.08" stroke-width="0.238095"/>
<rect x="142.914" y="475.694" width="11.9048" height="11.9048" stroke="white" stroke-opacity="0.08" stroke-width="0.238095"/>
<rect x="154.818" y="475.694" width="11.9048" height="11.9048" stroke="white" stroke-opacity="0.08" stroke-width="0.238095"/>
<rect x="166.724" y="475.694" width="11.9048" height="11.9048" stroke="white" stroke-opacity="0.08" stroke-width="0.238095"/>
<rect x="178.628" y="475.694" width="11.9048" height="11.9048" stroke="white" stroke-opacity="0.08" stroke-width="0.238095"/>
<rect x="190.533" y="475.694" width="11.9048" height="11.9048" stroke="white" stroke-opacity="0.08" stroke-width="0.238095"/>
<rect x="202.438" y="475.694" width="11.9048" height="11.9048" stroke="white" stroke-opacity="0.08" stroke-width="0.238095"/>
<rect x="214.343" y="475.694" width="11.9048" height="11.9048" stroke="white" stroke-opacity="0.08" stroke-width="0.238095"/>
<rect x="226.247" y="475.694" width="11.9048" height="11.9048" stroke="white" stroke-opacity="0.08" stroke-width="0.238095"/>
<rect x="238.152" y="475.694" width="11.9048" height="11.9048" stroke="white" stroke-opacity="0.08" stroke-width="0.238095"/>
<rect x="250.057" y="475.694" width="11.9048" height="11.9048" stroke="white" stroke-opacity="0.08" stroke-width="0.238095"/>
<rect x="261.961" y="475.694" width="11.9048" height="11.9048" stroke="white" stroke-opacity="0.08" stroke-width="0.238095"/>
<rect x="23.8662" y="517.771" width="11.9048" height="11.9048" stroke="white" stroke-opacity="0.08" stroke-width="0.238095"/>
<rect x="35.7705" y="517.771" width="11.9048" height="11.9048" stroke="white" stroke-opacity="0.08" stroke-width="0.238095"/>
<rect x="47.6758" y="517.771" width="11.9048" height="11.9048" stroke="white" stroke-opacity="0.08" stroke-width="0.238095"/>
<rect x="59.5801" y="517.771" width="11.9048" height="11.9048" stroke="white" stroke-opacity="0.08" stroke-width="0.238095"/>
<rect x="71.4854" y="517.771" width="11.9048" height="11.9048" fill="white" fill-opacity="0.09" stroke="white" stroke-opacity="0.08" stroke-width="0.238095"/>
<rect x="83.3896" y="517.771" width="11.9048" height="11.9048" stroke="white" stroke-opacity="0.08" stroke-width="0.238095"/>
<rect x="95.2949" y="517.771" width="11.9048" height="11.9048" stroke="white" stroke-opacity="0.08" stroke-width="0.238095"/>
<rect x="107.199" y="517.771" width="11.9048" height="11.9048" stroke="white" stroke-opacity="0.08" stroke-width="0.238095"/>
<rect x="119.104" y="517.771" width="11.9048" height="11.9048" stroke="white" stroke-opacity="0.08" stroke-width="0.238095"/>
<rect x="131.009" y="517.771" width="11.9048" height="11.9048" stroke="white" stroke-opacity="0.08" stroke-width="0.238095"/>
<rect x="142.914" y="517.771" width="11.9048" height="11.9048" stroke="white" stroke-opacity="0.08" stroke-width="0.238095"/>
<rect x="154.818" y="517.771" width="11.9048" height="11.9048" stroke="white" stroke-opacity="0.08" stroke-width="0.238095"/>
<rect x="166.724" y="517.771" width="11.9048" height="11.9048" stroke="white" stroke-opacity="0.08" stroke-width="0.238095"/>
<rect x="178.628" y="517.771" width="11.9048" height="11.9048" stroke="white" stroke-opacity="0.08" stroke-width="0.238095"/>
<rect x="190.533" y="517.771" width="11.9048" height="11.9048" stroke="white" stroke-opacity="0.08" stroke-width="0.238095"/>
<rect x="202.438" y="517.771" width="11.9048" height="11.9048" stroke="white" stroke-opacity="0.08" stroke-width="0.238095"/>
<rect x="214.343" y="517.771" width="11.9048" height="11.9048" stroke="white" stroke-opacity="0.08" stroke-width="0.238095"/>
<rect x="226.247" y="517.771" width="11.9048" height="11.9048" stroke="white" stroke-opacity="0.08" stroke-width="0.238095"/>
<rect x="238.152" y="517.771" width="11.9048" height="11.9048" stroke="white" stroke-opacity="0.08" stroke-width="0.238095"/>
<rect x="250.057" y="517.771" width="11.9048" height="11.9048" stroke="white" stroke-opacity="0.08" stroke-width="0.238095"/>
<rect x="261.962" y="517.771" width="11.9048" height="11.9048" stroke="white" stroke-opacity="0.08" stroke-width="0.238095"/>
<rect x="23.8662" y="558.608" width="11.9048" height="11.9048" stroke="white" stroke-opacity="0.08" stroke-width="0.238095"/>
<rect x="35.7705" y="558.608" width="11.9048" height="11.9048" stroke="white" stroke-opacity="0.08" stroke-width="0.238095"/>
<rect x="47.6758" y="558.608" width="11.9048" height="11.9048" stroke="white" stroke-opacity="0.08" stroke-width="0.238095"/>
<rect x="59.5801" y="558.608" width="11.9048" height="11.9048" stroke="white" stroke-opacity="0.08" stroke-width="0.238095"/>
<rect x="71.4854" y="558.608" width="11.9048" height="11.9048" stroke="white" stroke-opacity="0.08" stroke-width="0.238095"/>
<rect x="83.3896" y="558.608" width="11.9048" height="11.9048" stroke="white" stroke-opacity="0.08" stroke-width="0.238095"/>
<rect x="95.2949" y="558.608" width="11.9048" height="11.9048" stroke="white" stroke-opacity="0.08" stroke-width="0.238095"/>
<rect x="107.199" y="558.608" width="11.9048" height="11.9048" stroke="white" stroke-opacity="0.08" stroke-width="0.238095"/>
<rect x="119.104" y="558.608" width="11.9048" height="11.9048" stroke="white" stroke-opacity="0.08" stroke-width="0.238095"/>
<rect x="131.009" y="558.608" width="11.9048" height="11.9048" stroke="white" stroke-opacity="0.08" stroke-width="0.238095"/>
<rect x="142.914" y="558.608" width="11.9048" height="11.9048" stroke="white" stroke-opacity="0.08" stroke-width="0.238095"/>
<rect x="154.818" y="558.608" width="11.9048" height="11.9048" stroke="white" stroke-opacity="0.08" stroke-width="0.238095"/>
<rect x="166.724" y="558.608" width="11.9048" height="11.9048" stroke="white" stroke-opacity="0.08" stroke-width="0.238095"/>
<rect x="178.628" y="558.608" width="11.9048" height="11.9048" stroke="white" stroke-opacity="0.08" stroke-width="0.238095"/>
<rect x="190.533" y="558.608" width="11.9048" height="11.9048" stroke="white" stroke-opacity="0.08" stroke-width="0.238095"/>
<rect x="202.438" y="558.608" width="11.9048" height="11.9048" stroke="white" stroke-opacity="0.08" stroke-width="0.238095"/>
<rect x="214.343" y="558.608" width="11.9048" height="11.9048" stroke="white" stroke-opacity="0.08" stroke-width="0.238095"/>
<rect x="226.247" y="558.608" width="11.9048" height="11.9048" stroke="white" stroke-opacity="0.08" stroke-width="0.238095"/>
<rect x="238.152" y="558.608" width="11.9048" height="11.9048" stroke="white" stroke-opacity="0.08" stroke-width="0.238095"/>
<rect x="250.057" y="558.608" width="11.9048" height="11.9048" stroke="white" stroke-opacity="0.08" stroke-width="0.238095"/>
<rect x="261.962" y="558.608" width="11.9048" height="11.9048" stroke="white" stroke-opacity="0.08" stroke-width="0.238095"/>
<rect x="23.8662" y="600.684" width="11.9048" height="11.9048" stroke="white" stroke-opacity="0.08" stroke-width="0.238095"/>
<rect x="35.7705" y="600.684" width="11.9048" height="11.9048" stroke="white" stroke-opacity="0.08" stroke-width="0.238095"/>
<rect x="47.6758" y="600.684" width="11.9048" height="11.9048" stroke="white" stroke-opacity="0.08" stroke-width="0.238095"/>
<rect x="59.5801" y="600.684" width="11.9048" height="11.9048" stroke="white" stroke-opacity="0.08" stroke-width="0.238095"/>
<rect x="71.4854" y="600.684" width="11.9048" height="11.9048" stroke="white" stroke-opacity="0.08" stroke-width="0.238095"/>
<rect x="83.3896" y="600.684" width="11.9048" height="11.9048" stroke="white" stroke-opacity="0.08" stroke-width="0.238095"/>
<rect x="95.2949" y="600.684" width="11.9048" height="11.9048" stroke="white" stroke-opacity="0.08" stroke-width="0.238095"/>
<rect x="107.199" y="600.684" width="11.9048" height="11.9048" stroke="white" stroke-opacity="0.08" stroke-width="0.238095"/>
<rect x="119.104" y="600.684" width="11.9048" height="11.9048" stroke="white" stroke-opacity="0.08" stroke-width="0.238095"/>
<rect x="131.009" y="600.684" width="11.9048" height="11.9048" stroke="white" stroke-opacity="0.08" stroke-width="0.238095"/>
<rect x="142.914" y="600.684" width="11.9048" height="11.9048" stroke="white" stroke-opacity="0.08" stroke-width="0.238095"/>
<rect x="154.818" y="600.684" width="11.9048" height="11.9048" stroke="white" stroke-opacity="0.08" stroke-width="0.238095"/>
<rect x="166.724" y="600.684" width="11.9048" height="11.9048" stroke="white" stroke-opacity="0.08" stroke-width="0.238095"/>
<rect x="178.628" y="600.684" width="11.9048" height="11.9048" stroke="white" stroke-opacity="0.08" stroke-width="0.238095"/>
<rect x="190.533" y="600.684" width="11.9048" height="11.9048" stroke="white" stroke-opacity="0.08" stroke-width="0.238095"/>
<rect x="202.438" y="600.684" width="11.9048" height="11.9048" stroke="white" stroke-opacity="0.08" stroke-width="0.238095"/>
<rect x="214.343" y="600.684" width="11.9048" height="11.9048" stroke="white" stroke-opacity="0.08" stroke-width="0.238095"/>
<rect x="226.247" y="600.684" width="11.9048" height="11.9048" stroke="white" stroke-opacity="0.08" stroke-width="0.238095"/>
<rect x="238.152" y="600.684" width="11.9048" height="11.9048" stroke="white" stroke-opacity="0.08" stroke-width="0.238095"/>
<rect x="250.057" y="600.684" width="11.9048" height="11.9048" stroke="white" stroke-opacity="0.08" stroke-width="0.238095"/>
<rect x="261.962" y="600.684" width="11.9048" height="11.9048" stroke="white" stroke-opacity="0.08" stroke-width="0.238095"/>
<rect x="23.8662" y="641.523" width="11.9048" height="11.9048" stroke="white" stroke-opacity="0.08" stroke-width="0.238095"/>
<rect x="35.7705" y="641.523" width="11.9048" height="11.9048" stroke="white" stroke-opacity="0.08" stroke-width="0.238095"/>
<rect x="47.6758" y="641.523" width="11.9048" height="11.9048" stroke="white" stroke-opacity="0.08" stroke-width="0.238095"/>
<rect x="59.5801" y="641.523" width="11.9048" height="11.9048" stroke="white" stroke-opacity="0.08" stroke-width="0.238095"/>
<rect x="71.4854" y="641.523" width="11.9048" height="11.9048" stroke="white" stroke-opacity="0.08" stroke-width="0.238095"/>
<rect x="83.3896" y="641.523" width="11.9048" height="11.9048" stroke="white" stroke-opacity="0.08" stroke-width="0.238095"/>
<rect x="95.2949" y="641.523" width="11.9048" height="11.9048" stroke="white" stroke-opacity="0.08" stroke-width="0.238095"/>
<rect x="107.199" y="641.523" width="11.9048" height="11.9048" stroke="white" stroke-opacity="0.08" stroke-width="0.238095"/>
<rect x="119.104" y="641.523" width="11.9048" height="11.9048" stroke="white" stroke-opacity="0.08" stroke-width="0.238095"/>
<rect x="131.009" y="641.523" width="11.9048" height="11.9048" stroke="white" stroke-opacity="0.08" stroke-width="0.238095"/>
<rect x="142.914" y="641.523" width="11.9048" height="11.9048" stroke="white" stroke-opacity="0.08" stroke-width="0.238095"/>
<rect x="154.818" y="641.523" width="11.9048" height="11.9048" stroke="white" stroke-opacity="0.08" stroke-width="0.238095"/>
<rect x="166.724" y="641.523" width="11.9048" height="11.9048" stroke="white" stroke-opacity="0.08" stroke-width="0.238095"/>
<rect x="178.628" y="641.523" width="11.9048" height="11.9048" stroke="white" stroke-opacity="0.08" stroke-width="0.238095"/>
<rect x="190.533" y="641.523" width="11.9048" height="11.9048" stroke="white" stroke-opacity="0.08" stroke-width="0.238095"/>
<rect x="202.438" y="641.523" width="11.9048" height="11.9048" stroke="white" stroke-opacity="0.08" stroke-width="0.238095"/>
<rect x="214.343" y="641.523" width="11.9048" height="11.9048" stroke="white" stroke-opacity="0.08" stroke-width="0.238095"/>
<rect x="226.247" y="641.523" width="11.9048" height="11.9048" stroke="white" stroke-opacity="0.08" stroke-width="0.238095"/>
<rect x="238.152" y="641.523" width="11.9048" height="11.9048" stroke="white" stroke-opacity="0.08" stroke-width="0.238095"/>
<rect x="250.057" y="641.523" width="11.9048" height="11.9048" stroke="white" stroke-opacity="0.08" stroke-width="0.238095"/>
<rect x="261.962" y="641.523" width="11.9048" height="11.9048" stroke="white" stroke-opacity="0.08" stroke-width="0.238095"/>
<rect x="23.8662" y="683.599" width="11.9048" height="11.9048" stroke="white" stroke-opacity="0.08" stroke-width="0.238095"/>
<rect x="35.7705" y="683.599" width="11.9048" height="11.9048" stroke="white" stroke-opacity="0.08" stroke-width="0.238095"/>
<rect x="47.6758" y="683.599" width="11.9048" height="11.9048" stroke="white" stroke-opacity="0.08" stroke-width="0.238095"/>
<rect x="59.5801" y="683.599" width="11.9048" height="11.9048" stroke="white" stroke-opacity="0.08" stroke-width="0.238095"/>
<rect x="71.4854" y="683.599" width="11.9048" height="11.9048" stroke="white" stroke-opacity="0.08" stroke-width="0.238095"/>
<rect x="83.3896" y="683.599" width="11.9048" height="11.9048" stroke="white" stroke-opacity="0.08" stroke-width="0.238095"/>
<rect x="95.2949" y="683.599" width="11.9048" height="11.9048" stroke="white" stroke-opacity="0.08" stroke-width="0.238095"/>
<rect x="107.199" y="683.599" width="11.9048" height="11.9048" stroke="white" stroke-opacity="0.08" stroke-width="0.238095"/>
<rect x="119.104" y="683.599" width="11.9048" height="11.9048" stroke="white" stroke-opacity="0.08" stroke-width="0.238095"/>
<rect x="131.009" y="683.599" width="11.9048" height="11.9048" stroke="white" stroke-opacity="0.08" stroke-width="0.238095"/>
<rect x="142.914" y="683.599" width="11.9048" height="11.9048" stroke="white" stroke-opacity="0.08" stroke-width="0.238095"/>
<rect x="154.818" y="683.599" width="11.9048" height="11.9048" stroke="white" stroke-opacity="0.08" stroke-width="0.238095"/>
<rect x="166.724" y="683.599" width="11.9048" height="11.9048" stroke="white" stroke-opacity="0.08" stroke-width="0.238095"/>
<rect x="178.628" y="683.599" width="11.9048" height="11.9048" stroke="white" stroke-opacity="0.08" stroke-width="0.238095"/>
<rect x="190.533" y="683.599" width="11.9048" height="11.9048" stroke="white" stroke-opacity="0.08" stroke-width="0.238095"/>
<rect x="202.438" y="683.599" width="11.9048" height="11.9048" stroke="white" stroke-opacity="0.08" stroke-width="0.238095"/>
<rect x="214.343" y="683.599" width="11.9048" height="11.9048" stroke="white" stroke-opacity="0.08" stroke-width="0.238095"/>
<rect x="226.247" y="683.599" width="11.9048" height="11.9048" stroke="white" stroke-opacity="0.08" stroke-width="0.238095"/>
<rect x="238.152" y="683.599" width="11.9048" height="11.9048" stroke="white" stroke-opacity="0.08" stroke-width="0.238095"/>
<rect x="250.057" y="683.599" width="11.9048" height="11.9048" stroke="white" stroke-opacity="0.08" stroke-width="0.238095"/>
<rect x="261.962" y="683.599" width="11.9048" height="11.9048" stroke="white" stroke-opacity="0.08" stroke-width="0.238095"/>
<g filter="url(#filter0_f_348_826)">
<rect x="-46.6729" y="-398" width="1050.66" height="827.906" fill="url(#paint0_radial_348_826)"/>
</g>
<rect x="-163.119" y="-7.06045" width="1195.69" height="750.18" fill="url(#paint1_radial_348_826)" stroke="#0A101F" stroke-width="0.238095"/>
</g>
<defs>
<filter id="filter0_f_348_826" x="-118.101" y="-469.429" width="1193.52" height="970.763" filterUnits="userSpaceOnUse" color-interpolation-filters="sRGB">
<feFlood flood-opacity="0" result="BackgroundImageFix"/>
<feBlend mode="normal" in="SourceGraphic" in2="BackgroundImageFix" result="shape"/>
<feGaussianBlur stdDeviation="35.7143" result="effect1_foregroundBlur_348_826"/>
</filter>
<radialGradient id="paint0_radial_348_826" cx="0" cy="0" r="1" gradientUnits="userSpaceOnUse" gradientTransform="translate(478.657 15.9528) rotate(90) scale(413.953 525.33)">
<stop offset="0.015625" stop-color="#4D76F4" stop-opacity="0.69"/>
<stop offset="0.223958" stop-color="#4D76F4" stop-opacity="0.34"/>
<stop offset="0.911458" stop-color="#4D76F4" stop-opacity="0"/>
</radialGradient>
<radialGradient id="paint1_radial_348_826" cx="0" cy="0" r="1" gradientUnits="userSpaceOnUse" gradientTransform="translate(434.726 368.029) rotate(90) scale(374.971 597.726)">
<stop stop-color="#0A101F" stop-opacity="0"/>
<stop offset="0.833333" stop-color="#0A101F"/>
</radialGradient>
<clipPath id="clip0_348_826">
<rect width="912" height="705" rx="20" fill="white"/>
</clipPath>
</defs>
</svg>
