<svg width="52" height="52" viewBox="0 0 52 52" fill="none" xmlns="http://www.w3.org/2000/svg">
<circle cx="26" cy="26" r="26" fill="#A5E0C7"/>
<circle cx="25.9996" cy="25.9994" r="16.9" fill="white"/>
<path d="M26.0003 8.66821C16.4497 8.66821 8.66699 16.4509 8.66699 26.0015C8.66699 35.5522 16.4497 43.3349 26.0003 43.3349C35.551 43.3349 43.3337 35.5522 43.3337 26.0015C43.3337 16.4509 35.551 8.66821 26.0003 8.66821ZM34.2857 22.0149L24.4577 31.8429C24.215 32.0856 23.8857 32.2242 23.539 32.2242C23.1923 32.2242 22.863 32.0856 22.6203 31.8429L17.715 26.9375C17.2123 26.4349 17.2123 25.6029 17.715 25.1002C18.2177 24.5975 19.0497 24.5975 19.5523 25.1002L23.539 29.0869L32.4483 20.1775C32.951 19.6749 33.783 19.6749 34.2857 20.1775C34.7883 20.6802 34.7883 21.4949 34.2857 22.0149Z" fill="#0CB46D"/>
</svg>
